<svg width="1075" height="688" viewBox="0 0 1075 688" fill="none" xmlns="http://www.w3.org/2000/svg">
<path opacity="0.3" d="M88.5165 391.491L94.2361 373.607C98.8935 359.044 114.475 351.014 129.037 355.671V355.671C153.157 363.385 178.964 350.086 186.677 325.966L188.737 319.525M88.5165 391.491L93.1579 389.099M88.5165 391.491L86.1245 386.849M188.737 319.525L184.483 321.718M188.737 319.525L190.93 323.78" stroke="#E4E4E4"/>
<path opacity="0.3" d="M953.5 88.5L953.5 111M953.5 88.5L931 88.5M953.5 88.5L953.5 66M953.5 88.5L976 88.5" stroke="#E4E4E4"/>
<g opacity="0.3">
<circle cx="905.387" cy="645.683" r="7.12525" transform="rotate(136.048 905.387 645.683)" stroke="#E4E4E4"/>
<path d="M899.897 650.975L880.292 669.877" stroke="#E4E4E4"/>
<path d="M930.482 621.49L910.877 640.391" stroke="#E4E4E4"/>
</g>
<g opacity="0.3">
<rect x="1039.44" y="322.449" width="43.6101" height="46.4882" transform="rotate(143.326 1039.44 322.449)" stroke="#E4E4E4"/>
<rect x="1073.37" y="333.069" width="64.4761" height="68.7932" transform="rotate(143.326 1073.37 333.069)" stroke="#E4E4E4"/>
</g>
<g opacity="0.3">
<circle cx="26.4523" cy="631.452" r="18.6159" transform="rotate(-146.913 26.4523 631.452)" stroke="#E4E4E4"/>
<path d="M33.6248 636.126C39.2406 627.507 50.689 625.026 59.1917 630.566C67.6945 636.106 70.0491 647.581 64.4332 656.2C58.8174 664.819 47.3691 667.301 38.8663 661.76C30.3635 656.22 28.0089 644.745 33.6248 636.126Z" stroke="#E4E4E4"/>
<circle cx="71.6061" cy="660.874" r="18.6159" transform="rotate(-146.913 71.6061 660.874)" stroke="#E4E4E4"/>
</g>
<g opacity="0.3">
<rect x="230.374" y="89.3726" width="12.0836" height="12.0836" transform="rotate(166.648 230.374 89.3726)" stroke="#E4E4E4"/>
<rect x="271.669" y="106.465" width="83.5401" height="55.3601" transform="rotate(166.648 271.669 106.465)" stroke="#E4E4E4"/>
<rect x="271.669" y="106.465" width="83.5401" height="11.0772" transform="rotate(166.648 271.669 106.465)" stroke="#E4E4E4"/>
<path d="M265.001 102.355L256.188 104.447" stroke="#E4E4E4"/>
</g>
<rect opacity="0.3" x="631.764" y="16.4116" width="20.6152" height="20.6152" transform="rotate(139.634 631.764 16.4116)" stroke="#E4E4E4"/>
</svg>
