<svg width="1920" height="866" viewBox="0 0 1920 866" fill="none" xmlns="http://www.w3.org/2000/svg">
<path opacity="0.3" d="M249.008 180.962L258.303 151.899C265.871 128.234 291.191 115.185 314.857 122.753V122.753C354.053 135.289 395.99 113.676 408.525 74.4803L411.872 64.0136M249.008 180.962L256.551 177.075M249.008 180.962L245.121 173.42M411.872 64.0136L404.958 67.5769M411.872 64.0136L415.436 70.9277" stroke="#E4E4E4"/>
<g opacity="0.3">
<circle opacity="0.4" cx="34.2393" cy="528.718" r="13.5" transform="rotate(-33.1496 34.2393 528.718)" fill="white" stroke="#E4E4E4"/>
<path d="M45.9607 521.062L87.823 493.721" stroke="#E4E4E4"/>
<path d="M-19.3445 563.715L22.5178 536.374" stroke="#E4E4E4"/>
</g>
<rect opacity="0.3" x="431.5" y="721.5" width="130" height="43" transform="rotate(-180 431.5 721.5)" stroke="#E4E4E4"/>
<g opacity="0.3">
<circle cx="1463.79" cy="61.4988" r="13.5" transform="rotate(136.048 1463.79 61.4988)" stroke="#E4E4E4"/>
<path d="M1453.71 71.2158L1417.72 105.919" stroke="#E4E4E4"/>
<path d="M1509.87 17.0791L1473.87 51.7821" stroke="#E4E4E4"/>
</g>
<g opacity="0.3">
<rect x="1882.85" y="814.906" width="77.3516" height="82.4066" transform="rotate(-180 1882.85 814.906)" stroke="#E4E4E4"/>
<rect x="1919.5" y="865.456" width="114" height="121.582" transform="rotate(-180 1919.5 865.456)" stroke="#E4E4E4"/>
</g>
<path opacity="0.3" d="M59 33L75 17L59 1" stroke="#E4E4E4"/>
<g opacity="0.3">
<circle cx="1723.15" cy="460.523" r="22.9713" transform="rotate(137.891 1723.15 460.523)" stroke="#E4E4E4"/>
<path d="M1730.87 453.55C1722.35 444.134 1723 429.693 1732.29 421.295C1741.59 412.897 1756.02 413.707 1764.53 423.123C1773.04 432.539 1772.39 446.98 1763.1 455.379C1753.81 463.777 1739.38 462.967 1730.87 453.55Z" stroke="#E4E4E4"/>
<circle cx="1772.24" cy="416.151" r="22.9713" transform="rotate(137.891 1772.24 416.151)" stroke="#E4E4E4"/>
</g>
</svg>
