<svg width="564" height="307" viewBox="0 0 564 307" fill="none" xmlns="http://www.w3.org/2000/svg">
<path opacity="0.2" d="M86.2993 213.588L91.1191 205.47L83.0002 200.65" stroke="#E4E4E4" strokeWidth="0.7"/>
<g opacity="0.2">
<circle cx="427.464" cy="15.4633" r="7.82035" transform="rotate(-170.013 427.464 15.4633)" stroke="#E4E4E4" strokeWidth="0.7"/>
<path d="M431.202 16.1217C431.951 11.8642 435.967 9.02012 440.163 9.759C444.359 10.4979 447.161 14.5424 446.412 18.8C445.662 23.0575 441.647 25.9016 437.45 25.1627C433.254 24.4238 430.452 20.3793 431.202 16.1217Z" stroke="#E4E4E4" strokeWidth="0.7"/>
<circle cx="450.15" cy="19.4579" r="7.82035" transform="rotate(-170.013 450.15 19.4579)" stroke="#E4E4E4" strokeWidth="0.7"/>
</g>
<g opacity="0.2">
<path d="M560.754 214.6C557.605 217.836 552.466 217.933 549.276 214.829C546.086 211.725 546.043 206.586 549.192 203.349C552.341 200.113 557.48 200.016 560.67 203.12C563.859 206.224 563.903 211.364 560.754 214.6Z" stroke="#E4E4E4" strokeWidth="0.7"/>
<path d="M568.041 221.691C564.892 224.927 559.753 225.024 556.563 221.92C553.373 218.816 553.33 213.676 556.479 210.44C559.628 207.204 564.767 207.107 567.957 210.211C571.146 213.315 571.19 218.454 568.041 221.691Z" stroke="#E4E4E4" strokeWidth="0.7"/>
</g>
<path opacity="0.2" d="M4.59865 252.364L16.6226 253.243C26.4136 253.958 33.7709 262.475 33.0556 272.266V272.266C31.8709 288.482 44.0564 302.589 60.2727 303.773L64.6031 304.09M4.59865 252.364L6.79029 254.901M4.59865 252.364L7.13576 250.173M64.6031 304.09L62.5941 301.764M64.6031 304.09L62.2774 306.099" stroke="#E4E4E4" strokeWidth="0.7"/>
<g opacity="0.2">
<circle opacity="0.4" cx="19.122" cy="127.512" r="4.1742" transform="rotate(-43.4717 19.122 127.512)" fill="white" stroke="#E4E4E4" strokeWidth="0.7"/>
<path d="M22.4048 124.399L34.1308 113.283" stroke="#E4E4E4" strokeWidth="0.7"/>
<path d="M4.1123 141.741L15.8383 130.625" stroke="#E4E4E4" strokeWidth="0.7"/>
</g>
<g opacity="0.2">
<circle opacity="0.4" cx="524.988" cy="151.844" r="2.93853" transform="rotate(133.892 524.988 151.844)" fill="white" stroke="#E4E4E4" strokeWidth="0.7"/>
<circle cx="537.595" cy="138.74" r="2.93853" transform="rotate(133.892 537.595 138.74)" stroke="#E4E4E4" strokeWidth="0.7"/>
<path d="M527.129 149.34L535.176 140.976" stroke="#E4E4E4" strokeWidth="0.7"/>
</g>
<path opacity="0.2" d="M44.5 35.5L44.5 45M44.5 35.5L35 35.5M44.5 35.5L44.5 26M44.5 35.5L54 35.5" stroke="#E4E4E4" strokeWidth="0.7"/>
<g opacity="0.2">
<path d="M162.509 11.5708C161.79 9.58681 162.794 7.41382 164.735 6.71046C166.677 6.0071 168.839 7.03354 169.558 9.01749C170.276 11.0014 169.273 13.1744 167.331 13.8778C165.39 14.5812 163.228 13.5547 162.509 11.5708Z" stroke="#E4E4E4" strokeWidth="0.7"/>
<path d="M162.18 11.6899L148.418 16.6751" stroke="#E4E4E4" strokeWidth="0.7"/>
<path d="M183.65 3.91309L169.887 8.89821" stroke="#E4E4E4" strokeWidth="0.7"/>
</g>
<g opacity="0.2">
<rect x="551.07" y="51.1675" width="4.99433" height="4.99433" transform="rotate(166.648 551.07 51.1675)" stroke="#E4E4E4" strokeWidth="0.7"/>
<rect x="569.043" y="58.6065" width="36.0941" height="23.8294" transform="rotate(166.648 569.043 58.6065)" stroke="#E4E4E4" strokeWidth="0.7"/>
<rect x="569.043" y="58.6065" width="36.0941" height="4.55631" transform="rotate(166.648 569.043 58.6065)" stroke="#E4E4E4" strokeWidth="0.7"/>
<path d="M566.3 56.916L562.465 57.8264" stroke="#E4E4E4" strokeWidth="0.7"/>
</g>
<g opacity="0.2">
<rect x="532.133" y="290.584" width="21.7835" height="23.2341" transform="rotate(-180 532.133 290.584)" stroke="#E4E4E4" strokeWidth="0.7"/>
<rect x="542.65" y="305.09" width="32.3" height="34.4758" transform="rotate(-180 542.65 305.09)" stroke="#E4E4E4" strokeWidth="0.7"/>
</g>
</svg>
