<svg width="1361" height="669" viewBox="0 0 1361 669" fill="none" xmlns="http://www.w3.org/2000/svg">
<g opacity="0.2">
<circle cx="34.3817" cy="633.872" r="23.8319" transform="rotate(137.33 34.3817 633.872)" stroke="#E4E4E4"/>
<circle cx="55.5252" cy="614.382" r="23.8319" transform="rotate(137.33 55.5252 614.382)" stroke="#E4E4E4"/>
</g>
<g opacity="0.2">
<circle opacity="0.4" cx="52.5389" cy="319.215" r="9.45342" transform="rotate(-33.1496 52.5389 319.215)" fill="white" stroke="#E4E4E4"/>
<path d="M60.8721 313.772L90.6344 294.333" stroke="#E4E4E4"/>
<path d="M14.4424 344.096L44.2047 324.658" stroke="#E4E4E4"/>
</g>
<path opacity="0.2" d="M255.415 147.87L262.595 125.42C268.441 107.139 288 97.0593 306.281 102.906V102.906C336.559 112.589 368.954 95.8939 378.637 65.6161L381.223 57.5309M255.415 147.87L261.241 144.868M255.415 147.87L252.412 142.044M381.223 57.5309L375.882 60.2834M381.223 57.5309L383.975 62.8718" stroke="#E4E4E4"/>
<path opacity="0.2" d="M81 101L92 90.5L81 80" stroke="#E4E4E4"/>
<path opacity="0.2" d="M167.626 380.733L205.736 370.521L195.525 408.631L167.626 380.733Z" stroke="#E4E4E4"/>
<rect opacity="0.2" x="297.5" y="628.5" width="87" height="29" transform="rotate(-180 297.5 628.5)" stroke="#E4E4E4"/>
<g opacity="0.2">
<circle cx="1013.29" cy="43.262" r="10.6134" transform="rotate(136.048 1013.29 43.262)" stroke="#E4E4E4"/>
<path d="M1005.29 50.9751L976.714 78.5228" stroke="#E4E4E4"/>
<path d="M1049.86 8.00098L1021.29 35.5487" stroke="#E4E4E4"/>
</g>
<g opacity="0.2">
<rect x="1306.61" y="119.725" width="16.0184" height="16.0184" transform="rotate(166.648 1306.61 119.725)" stroke="#E4E4E4"/>
<rect x="1360.32" y="141.958" width="108.965" height="72.3102" transform="rotate(166.648 1360.32 141.958)" stroke="#E4E4E4"/>
<rect x="1360.32" y="141.958" width="108.965" height="14.7093" transform="rotate(166.648 1360.32 141.958)" stroke="#E4E4E4"/>
<path d="M1351.47 136.5L1340 139.221" stroke="#E4E4E4"/>
</g>
<g opacity="0.2">
<circle cx="1217.3" cy="380.491" r="18.1174" transform="rotate(137.891 1217.3 380.491)" stroke="#E4E4E4"/>
<path d="M1223.49 374.891C1216.78 367.464 1217.29 356.075 1224.62 349.452C1231.94 342.83 1243.33 343.468 1250.04 350.895C1256.75 358.323 1256.24 369.711 1248.91 376.334C1241.59 382.956 1230.2 382.319 1223.49 374.891Z" stroke="#E4E4E4"/>
<circle cx="1256.23" cy="345.296" r="18.1174" transform="rotate(137.891 1256.23 345.296)" stroke="#E4E4E4"/>
</g>
<g opacity="0.2">
<rect x="1293.05" y="623.972" width="55.5494" height="59.1978" transform="rotate(-180 1293.05 623.972)" stroke="#E4E4E4"/>
<rect x="1319.5" y="660.456" width="82" height="87.4725" transform="rotate(-180 1319.5 660.456)" stroke="#E4E4E4"/>
</g>
<g opacity="0.2">
<circle opacity="0.4" cx="989.021" cy="625.255" r="8" transform="rotate(135 989.021 625.255)" fill="white" stroke="#E4E4E4"/>
<circle cx="1022.26" cy="592.021" r="8" transform="rotate(135 1022.26 592.021)" stroke="#E4E4E4"/>
<path d="M994.677 618.891L1015.89 597.678" stroke="#E4E4E4"/>
</g>
<path opacity="0.2" d="M1105 279L1105 304M1105 279L1080 279M1105 279L1105 254M1105 279L1130 279" stroke="#E4E4E4"/>
</svg>
