<svg width="714" height="923" viewBox="0 0 714 923" fill="none" xmlns="http://www.w3.org/2000/svg">
<g opacity="0.2">
<circle opacity="0.4" cx="56.6389" cy="266.817" r="6.54701" transform="rotate(-65.4146 56.6389 266.817)" fill="white" stroke="#E4E4E4"/>
<circle cx="40.4279" cy="302.25" r="6.54701" transform="rotate(-65.4146 40.4279 302.25)" stroke="#E4E4E4"/>
<path d="M54.0842 273.397L43.7363 296.014" stroke="#E4E4E4"/>
</g>
<g opacity="0.2">
<circle opacity="0.4" cx="38.4134" cy="520.958" r="7.99316" transform="rotate(-28.5728 38.4134 520.958)" fill="white" stroke="#E4E4E4"/>
<path d="M45.8721 516.896L72.5106 502.388" stroke="#E4E4E4"/>
<path d="M4.31641 539.527L30.9549 525.02" stroke="#E4E4E4"/>
</g>
<path opacity="0.2" d="M249.581 98.2362L255.406 80.0252C260.148 65.1962 276.014 57.0194 290.843 61.762V61.762C315.404 69.6168 341.682 56.0741 349.537 31.5134L351.634 24.9549M249.581 98.2362L254.308 95.8005M249.581 98.2362L247.146 93.51M351.634 24.9549L347.302 27.1877M351.634 24.9549L353.867 29.2873" stroke="#E4E4E4"/>
<g opacity="0.2">
<circle cx="47.2892" cy="804.325" r="19.5198" transform="rotate(137.33 47.2892 804.325)" stroke="#E4E4E4"/>
<circle cx="64.6857" cy="788.289" r="19.5198" transform="rotate(137.33 64.6857 788.289)" stroke="#E4E4E4"/>
</g>
<path opacity="0.2" d="M6 76L21 61.5L6 47" stroke="#E4E4E4"/>
<g opacity="0.2">
<path d="M354.104 859.542L397.729 847.852L386.04 891.478L354.104 859.542Z" stroke="#E4E4E4"/>
<path d="M335.104 877.542L378.729 865.852L367.04 909.478L335.104 877.542Z" stroke="#E4E4E4"/>
</g>
<g opacity="0.2">
<circle cx="518.997" cy="128.289" r="6.99935" transform="rotate(167.967 518.997 128.289)" stroke="#E4E4E4"/>
<path d="M510.721 129.868L484.526 135.452" stroke="#E4E4E4"/>
<path d="M551.584 121.158L525.389 126.741" stroke="#E4E4E4"/>
</g>
<g opacity="0.2">
<rect x="638.079" y="259.332" width="10.92" height="10.92" transform="rotate(11.0922 638.079 259.332)" stroke="#E4E4E4"/>
<rect x="610.273" y="229.587" width="76.0217" height="50.3478" transform="rotate(11.0922 610.273 229.587)" stroke="#E4E4E4"/>
<rect x="610.273" y="229.587" width="76.0217" height="10.0031" transform="rotate(11.0922 610.273 229.587)" stroke="#E4E4E4"/>
<path d="M614.219 235.458L622.317 237.045" stroke="#E4E4E4"/>
</g>
<g opacity="0.2">
<circle cx="631.804" cy="519.347" r="15.5224" transform="rotate(150.16 631.804 519.347)" stroke="#E4E4E4"/>
<path d="M638.099 515.736C633.83 508.295 636.333 498.854 643.672 494.644C651.011 490.435 660.424 493.04 664.693 500.481C668.961 507.922 666.458 517.363 659.119 521.573C651.78 525.783 642.367 523.177 638.099 515.736Z" stroke="#E4E4E4"/>
<circle cx="670.987" cy="496.871" r="15.5224" transform="rotate(150.16 670.987 496.871)" stroke="#E4E4E4"/>
</g>
<g opacity="0.2">
<rect x="689.795" y="817.271" width="48.2954" height="51.4757" transform="rotate(-180 689.795 817.271)" stroke="#E4E4E4"/>
<rect x="713.5" y="854.5" width="59" height="76.6471" transform="rotate(-180 713.5 854.5)" stroke="#E4E4E4"/>
</g>
<path opacity="0.2" d="M666.5 50.5L666.5 63M666.5 50.5L654 50.5M666.5 50.5L666.5 38M666.5 50.5L679 50.5" stroke="#E4E4E4"/>
</svg>
