<svg width="370" height="729" viewBox="0 0 370 729" fill="none" xmlns="http://www.w3.org/2000/svg">
<g opacity="0.2">
<path d="M77.7919 530.029L73.0972 521.837L64.9054 526.532" stroke="#E4E4E4" strokeWidth="0.7"/>
<circle cx="176.657" cy="32.4366" r="10.9409" transform="rotate(-173.845 176.657 32.4366)" stroke="#E4E4E4" strokeWidth="0.7"/>
<path d="M181.739 32.9846C182.388 26.9729 187.726 22.6258 193.655 23.2652C199.584 23.9046 203.873 29.2899 203.225 35.3016C202.576 41.3132 197.238 45.6603 191.309 45.0209C185.38 44.3816 181.091 38.9962 181.739 32.9846Z" stroke="#E4E4E4" strokeWidth="0.7"/>
<circle cx="208.307" cy="35.8497" r="10.9409" transform="rotate(-173.845 208.307 35.8497)" stroke="#E4E4E4" strokeWidth="0.7"/>
<path d="M202.637 582.599C199.488 585.835 194.349 585.932 191.16 582.828C187.97 579.724 187.926 574.584 191.075 571.348C194.224 568.112 199.363 568.015 202.553 571.119C205.743 574.223 205.786 579.362 202.637 582.599Z" stroke="#E4E4E4" strokeWidth="0.7"/>
<path d="M209.924 589.689C206.775 592.926 201.637 593.023 198.447 589.919C195.257 586.815 195.213 581.675 198.363 578.439C201.512 575.203 206.65 575.106 209.84 578.21C213.03 581.314 213.073 586.453 209.924 589.689Z" stroke="#E4E4E4" strokeWidth="0.7"/>
<path d="M304.562 713.212L324.573 687.319L336.991 717.596L304.562 713.212Z" stroke="#E4E4E4" strokeWidth="0.7"/>
<path d="M25.3181 645.447L42.3054 638.743C56.138 633.283 71.7774 640.071 77.2369 653.904V653.904C86.2791 676.814 112.182 688.056 135.092 679.014L141.21 676.599M25.3181 645.447L29.9768 647.469M25.3181 645.447L27.3401 640.789M141.21 676.599L136.939 674.746M141.21 676.599L139.356 680.87" stroke="#E4E4E4" strokeWidth="0.7"/>
<circle opacity="0.4" cx="11.8692" cy="370.268" r="5.47822" transform="rotate(-76.5416 11.8692 370.268)" fill="white" stroke="#E4E4E4" strokeWidth="0.7"/>
<path d="M13.2256 364.6L18.0701 344.356" stroke="#E4E4E4" strokeWidth="0.7"/>
<path d="M5.66821 396.18L10.5127 375.936" stroke="#E4E4E4" strokeWidth="0.7"/>
<circle opacity="0.4" cx="313.159" cy="148.661" r="2.93853" transform="rotate(87.7687 313.159 148.661)" fill="white" stroke="#E4E4E4" strokeWidth="0.7"/>
<circle cx="312.451" cy="130.491" r="2.93853" transform="rotate(87.7687 312.451 130.491)" stroke="#E4E4E4" strokeWidth="0.7"/>
<path d="M312.838 145.383L312.386 133.785" stroke="#E4E4E4" strokeWidth="0.7"/>
<path d="M67.5 133.5L67.5 143M67.5 133.5L58 133.5M67.5 133.5L67.5 124M67.5 133.5L77 133.5" stroke="#E4E4E4" strokeWidth="0.7"/>
<circle cx="347.04" cy="370.452" r="8.94703" transform="rotate(-30 347.04 370.452)" stroke="#E4E4E4" strokeWidth="0.7"/>
<path d="M349.651 392.204L349.651 358.359L378.962 375.282L349.651 392.204Z" stroke="#E4E4E4" strokeWidth="0.7"/>
<path d="M47.6783 18.6018C46.2138 17.0827 46.2447 14.6895 47.7316 13.2561C49.2184 11.8227 51.6111 11.8792 53.0756 13.3983C54.5402 14.9174 54.5092 17.3106 53.0224 18.744C51.5356 20.1774 49.1429 20.1209 47.6783 18.6018Z" stroke="#E4E4E4" strokeWidth="0.7"/>
<path d="M47.4264 18.8442L36.8885 29.0037" stroke="#E4E4E4" strokeWidth="0.7"/>
<path d="M63.8655 2.99561L53.3276 13.155" stroke="#E4E4E4" strokeWidth="0.7"/>
<rect x="348.679" y="34.1675" width="4.99433" height="4.99433" transform="rotate(166.648 348.679 34.1675)" stroke="#E4E4E4" strokeWidth="0.7"/>
<rect x="366.652" y="41.6065" width="36.0941" height="23.8294" transform="rotate(166.648 366.652 41.6065)" stroke="#E4E4E4" strokeWidth="0.7"/>
<rect x="366.652" y="41.6065" width="36.0941" height="4.55631" transform="rotate(166.648 366.652 41.6065)" stroke="#E4E4E4" strokeWidth="0.7"/>
<path d="M363.909 39.916L360.073 40.8264" stroke="#E4E4E4" strokeWidth="0.7"/>
<rect x="347.354" y="580.595" width="32.0033" height="34.1132" transform="rotate(-180 347.354 580.595)" stroke="#E4E4E4" strokeWidth="0.7"/>
<rect x="362.65" y="601.694" width="47.3" height="50.4648" transform="rotate(-180 362.65 601.694)" stroke="#E4E4E4" strokeWidth="0.7"/>
</g>
</svg>
