<svg width="22" height="22" viewBox="0 0 22 22" fill="none" xmlns="http://www.w3.org/2000/svg">
<path d="M14.8103 13.8779L15.5259 13.6534L14.8103 13.8779L16.6698 19.8038L11.6086 16.2041L11.1739 16.8153L11.6086 16.2041C11.2442 15.945 10.7558 15.9449 10.3914 16.2041L5.33024 19.8038L7.18974 13.8779C7.3236 13.4513 7.17266 12.9868 6.81363 12.7204L6.36669 13.3226L6.81363 12.7203L1.82614 9.01923L8.03656 8.95654C8.48363 8.95202 8.8788 8.66492 9.02125 8.24112L11 2.35404L12.9788 8.24112C13.1212 8.66491 13.5164 8.95202 13.9634 8.95654L20.1739 9.01923L15.1864 12.7203C14.8273 12.9868 14.6764 13.4513 14.8103 13.8779Z" stroke="#CE341F" stroke-width="1.5"/>
</svg>
