<svg width="22" height="22" viewBox="0 0 22 22" fill="none" xmlns="http://www.w3.org/2000/svg">
<path d="M14.3332 14.0276L14.3332 14.0276L15.7473 18.5341L11.8984 15.7966L11.1739 16.8153L11.8984 15.7966C11.3605 15.4141 10.6395 15.4141 10.1016 15.7966C10.1016 15.7966 10.1016 15.7966 10.1016 15.7966L6.25269 18.5341L7.66681 14.0276C7.86441 13.3979 7.64159 12.7121 7.11159 12.3188L6.36669 13.3226L7.11159 12.3188L3.31869 9.50419L8.04161 9.45651C8.70156 9.44985 9.28492 9.02602 9.49519 8.40042L11 3.92339L12.5048 8.40042L13.6897 8.00217L12.5048 8.40043C12.7151 9.02602 13.2984 9.44985 13.9584 9.45651L18.6813 9.50419L14.8884 12.3188C14.8884 12.3188 14.8884 12.3188 14.8884 12.3188C14.3584 12.7121 14.1356 13.3979 14.3332 14.0276Z" fill="#CE341F" stroke="#CE341F" stroke-width="2.5"/>
</svg>
