<svg width="1960" height="3609" viewBox="0 0 1960 3609" fill="none" xmlns="http://www.w3.org/2000/svg">
<rect opacity="0.3" x="1834.35" y="2479.8" width="50.5019" height="50.5019" transform="rotate(126.582 1834.35 2479.8)" stroke="#1A1A1A"/>
<circle opacity="0.3" cx="124.728" cy="2069.45" r="22.2546" transform="rotate(33.5758 124.728 2069.45)" stroke="black"/>
<circle opacity="0.3" cx="147.317" cy="2084.44" r="22.2546" transform="rotate(33.5758 147.317 2084.44)" stroke="black"/>
<circle opacity="0.3" cx="169.905" cy="2099.44" r="22.2546" transform="rotate(33.5758 169.905 2099.44)" stroke="black"/>
<path opacity="0.3" d="M201.624 1584.12L181.678 1577.98C161.864 1571.88 150.744 1550.88 156.841 1531.06V1531.06C166.94 1498.25 148.522 1463.46 115.705 1453.36L89.7966 1445.39M201.624 1584.12L198.312 1577.86M201.624 1584.12L195.367 1587.43M89.7966 1445.39L92.833 1451.12M89.7966 1445.39L95.5324 1442.35" stroke="#E4E4E4"/>
<path opacity="0.3" d="M1103.76 892L1109.76 909.525L1127.29 903.528" stroke="#E4E4E4"/>
<g opacity="0.3">
<rect x="88.8134" y="177.905" width="15.1082" height="15.1082" transform="rotate(155.878 88.8134 177.905)" stroke="#1A1A1A"/>
<rect x="142.692" y="189.078" width="103.083" height="68.389" transform="rotate(155.878 142.692 189.078)" stroke="#1A1A1A"/>
<rect x="142.692" y="189.078" width="103.083" height="13.8691" transform="rotate(155.878 142.692 189.078)" stroke="#1A1A1A"/>
<path d="M133.529 185.583L123.351 190.141" stroke="#1A1A1A"/>
</g>
<g opacity="0.3">
<circle cx="1834.9" cy="54.3801" r="14.7285" transform="rotate(150 1834.9 54.3801)" stroke="#1A1A1A"/>
<path d="M1821.72 61.9951L1774.61 89.1889" stroke="#1A1A1A"/>
<path d="M1895.19 19.5723L1848.09 46.766" stroke="#1A1A1A"/>
</g>
<path opacity="0.3" d="M1244 25L1244 50M1244 25L1219 25M1244 25L1244 1.62913e-06M1244 25L1269 25" stroke="#1A1A1A"/>
<path opacity="0.3" d="M62.5 1206.5L62.5 1226M62.5 1206.5L43 1206.5M62.5 1206.5L62.5 1187M62.5 1206.5L82 1206.5" stroke="#1A1A1A"/>
<path opacity="0.3" d="M1916.5 2814.5L1916.5 2845M1916.5 2814.5L1886 2814.5M1916.5 2814.5L1916.5 2784M1916.5 2814.5L1947 2814.5" stroke="#1A1A1A"/>
<g opacity="0.3">
<circle cx="691.445" cy="112.993" r="17.3052" transform="rotate(161.956 691.445 112.993)" stroke="#1A1A1A"/>
<path d="M699.059 110.512C696.097 101.419 700.98 91.6859 709.95 88.764C718.919 85.8422 728.598 90.8317 731.56 99.9245C734.522 109.017 729.639 118.751 720.67 121.672C711.701 124.594 702.022 119.605 699.059 110.512Z" stroke="#1A1A1A"/>
<circle cx="739.174" cy="97.4448" r="17.3052" transform="rotate(161.956 739.174 97.4448)" stroke="#1A1A1A"/>
</g>
<g opacity="0.3">
<circle cx="1862.44" cy="3585.99" r="17.3052" transform="rotate(161.956 1862.44 3585.99)" stroke="#1A1A1A"/>
<path d="M1870.06 3583.51C1867.1 3574.42 1871.98 3564.69 1880.95 3561.76C1889.92 3558.84 1899.6 3563.83 1902.56 3572.92C1905.52 3582.02 1900.64 3591.75 1891.67 3594.67C1882.7 3597.59 1873.02 3592.6 1870.06 3583.51Z" stroke="#1A1A1A"/>
<circle cx="1910.17" cy="3570.44" r="17.3052" transform="rotate(161.956 1910.17 3570.44)" stroke="#1A1A1A"/>
</g>
<g opacity="0.3">
<rect x="1908.46" y="521.324" width="58.956" height="62.8242" transform="rotate(-180 1908.46 521.324)" stroke="#1A1A1A"/>
<rect x="1936.5" y="560.006" width="87" height="92.8022" transform="rotate(-180 1936.5 560.006)" stroke="#1A1A1A"/>
</g>
<g opacity="0.3">
<path d="M1811.13 942.794L1748.18 897.192L1819.15 865.469L1811.13 942.794Z" stroke="#1A1A1A"/>
<circle cx="1790.65" cy="870.094" r="20.6965" transform="rotate(34.8753 1790.65 870.094)" stroke="#1A1A1A"/>
</g>
<g opacity="0.3">
<path d="M197.924 3419.78L120.202 3418.16L160.469 3351.66L197.924 3419.78Z" stroke="black"/>
<circle cx="139.679" cy="3371.69" r="20.6965" transform="rotate(0.156047 139.679 3371.69)" stroke="black"/>
</g>
<g opacity="0.3">
<path d="M650.768 515.43L688.799 479.135L701.216 530.218L650.768 515.43Z" stroke="#E4E4E4"/>
<circle cx="701.849" cy="510.724" r="13.9835" transform="rotate(135.297 701.849 510.724)" stroke="#E4E4E4"/>
</g>
<g opacity="0.3">
<rect x="162.896" y="943.31" width="44.2862" height="47.2079" transform="rotate(152.124 162.896 943.31)" stroke="#1A1A1A"/>
<rect x="195.28" y="959.233" width="65.4684" height="69.851" transform="rotate(152.124 195.28 959.233)" stroke="#1A1A1A"/>
</g>
<g opacity="0.3">
<circle cx="1885.88" cy="2172.88" r="13.4734" stroke="black"/>
<path d="M1899.85 2172.88H1949.76" stroke="black"/>
<path d="M1822 2172.88L1871.9 2172.88" stroke="black"/>
<circle cx="1885.88" cy="2172.88" r="13.4734" transform="rotate(90 1885.88 2172.88)" stroke="black"/>
<path d="M1885.88 2186.85L1885.88 2236.76" stroke="black"/>
<path d="M1885.88 2109L1885.88 2158.9" stroke="black"/>
</g>
<g opacity="0.3">
<circle cx="73.888" cy="3010.76" r="12.137" transform="rotate(-19.7423 73.888 3010.76)" stroke="black"/>
<path d="M85.7817 3006.49L128.261 2991.25" stroke="black"/>
<path d="M19.5137 3030.27L61.9931 3015.03" stroke="black"/>
<circle cx="73.8876" cy="3010.76" r="12.137" transform="rotate(70.2577 73.8876 3010.76)" stroke="black"/>
<path d="M78.1567 3022.66L93.402 3065.13" stroke="black"/>
<path d="M54.374 2956.39L69.6193 2998.87" stroke="black"/>
</g>
<g opacity="0.3">
<circle cx="1869.74" cy="1369.49" r="15.9516" transform="rotate(127.332 1869.74 1369.49)" fill="#1a1a1a" stroke="#1a1a1a"/>
<circle cx="1924.91" cy="1297.16" r="15.9516" transform="rotate(127.332 1924.91 1297.16)" stroke="#1A1A1A"/>
<path d="M1878.95 1355.83L1914.16 1309.66" stroke="#1A1A1A"/>
</g>
<g opacity="0.3">
<circle cx="75.405" cy="2528.3" r="10.7499" transform="rotate(117.258 75.405 2528.3)" fill="#1A1A1A" stroke="#1A1A1A"/>
<circle cx="103.896" cy="2473" r="10.7499" transform="rotate(117.258 103.896 2473)" stroke="#1A1A1A"/>
<path d="M79.9692 2518L98.1543 2482.7" stroke="#1A1A1A"/>
</g>
<path opacity="0.3" d="M1814 1783.18L1839.34 1740.84L1797 1715.5" stroke="#1A1A1A"/>
<path opacity="0.3" d="M100.141 615.928L98.2492 592.679L75 594.571" stroke="#1A1A1A"/>
<g opacity="0.3">
<circle cx="67.0549" cy="1808.22" r="8.54733" transform="rotate(136.048 67.0549 1808.22)" stroke="#1A1A1A"/>
<path d="M60.5415 1814.5L37.2796 1836.92" stroke="#1A1A1A"/>
<path d="M96.8301 1779.51L73.5682 1801.94" stroke="#1A1A1A"/>
</g>
<g opacity="0.3">
<rect x="1820.93" y="3140.62" width="72.1005" height="69.7769" transform="rotate(-167.873 1820.93 3140.62)" stroke="#1A1A1A"/>
<rect x="1825.28" y="3154.96" width="41.3472" height="40.0011" transform="rotate(-167.873 1825.28 3154.96)" stroke="#1A1A1A"/>
</g>
</svg>
