<svg width="200" height="47" viewBox="0 0 200 47" fill="none" xmlns="http://www.w3.org/2000/svg">
<path d="M200 35.3293C197.144 38.6868 193.535 39.0376 189.577 37.885C188.875 37.6846 188.224 37.2837 187.622 36.8828C186.57 36.1311 186.419 35.1288 187.121 34.0263C187.773 33.0241 188.624 33.2245 189.526 33.7758C190.729 34.5776 192.082 34.9785 193.535 34.8783C194.488 34.8281 195.49 34.6778 195.69 33.5753C195.891 32.4728 195.039 31.9216 194.137 31.6209C192.984 31.22 191.731 30.8692 190.579 30.4683C188.474 29.7668 187.171 28.3636 187.171 26.0584C187.171 23.653 188.324 21.7988 190.629 21.0973C193.686 20.1952 196.693 20.1952 199.349 22.4002C199.148 25.1063 198.597 25.5072 196.191 24.7555C195.54 24.555 194.889 24.3045 194.287 24.3045C193.135 24.2544 191.681 24.1541 191.431 25.6074C191.18 27.0607 192.633 27.211 193.636 27.4616C196.191 28.113 198.597 28.965 200 31.3704C200 32.6733 200 33.9762 200 35.3293Z" fill="#E6E6E6"/>
<path d="M173.49 22.8013C175.946 20.5964 178.351 19.7946 181.007 21.3481C183.863 23.0018 184.715 25.6578 184.665 28.8149C184.615 31.2203 184.665 33.6257 183.112 35.7304C180.957 38.637 177.8 39.2884 174.793 37.2839C173.941 36.7327 173.49 36.2817 172.688 37.4343C172.087 38.3363 170.934 38.2862 169.932 37.8853C168.83 37.4844 168.779 36.5823 168.779 35.6302C168.779 28.1133 168.83 20.6465 168.779 13.1296C168.779 11.3756 169.531 10.6741 171.185 10.7242C172.839 10.7743 173.59 11.526 173.54 13.2298C173.39 16.2867 173.49 19.3436 173.49 22.8013ZM173.49 29.4162C173.44 30.0677 173.39 30.7693 173.49 31.4207C173.741 33.0243 174.793 33.9264 176.246 34.2271C177.85 34.5277 179.053 33.6758 179.554 32.2225C180.205 30.4686 180.155 28.6144 179.604 26.8605C179.153 25.3571 177.95 24.6054 176.346 24.7557C174.743 24.9061 173.791 25.9083 173.54 27.4618C173.44 28.1133 173.49 28.7648 173.49 29.4162Z" fill="#E6E6E6"/>
<path d="M125.082 32.1722C126.284 28.5139 127.337 25.457 128.289 22.3501C128.74 20.7966 129.542 20.2453 131.045 20.8467C132.398 21.3979 133.5 22.1496 132.849 23.8534C130.494 29.9171 128.138 35.9807 125.633 41.9441C124.38 44.9008 121.774 46.2037 118.567 46.2538C117.364 46.2538 116.412 45.903 116.262 44.4999C116.111 43.1468 116.612 42.4453 118.066 42.0945C122.175 41.0922 123.328 38.4864 121.574 34.6277C119.97 31.22 118.467 27.8124 116.763 24.4548C115.911 22.7009 116.312 21.5984 118.016 20.8467C119.719 20.1451 120.621 20.8968 121.223 22.5004C122.325 25.5573 123.578 28.5139 125.082 32.1722Z" fill="#E6E6E6"/>
<path d="M70.9097 29.5664C70.9097 27.4617 70.9097 25.4071 70.9097 23.3024C70.9097 22.3502 70.9598 21.3981 72.0623 21.0473C73.1647 20.6464 74.3675 20.5462 75.0189 21.5985C75.6203 22.5507 75.8708 22.3001 76.6726 21.8491C80.832 19.2432 85.3421 21.1976 86.3444 26.1588C87.046 29.5163 86.595 32.9741 86.595 36.3818C86.595 37.9353 85.292 38.1858 84.0392 38.1357C82.7363 38.0856 81.7841 37.5344 81.8342 35.9809C81.8844 33.5755 81.8844 31.1199 81.8342 28.7145C81.7841 26.259 80.5313 24.6053 78.627 24.7556C76.2717 24.9561 75.6704 26.6098 75.7205 28.6644C75.7205 30.8193 75.6203 33.0242 75.7706 35.1791C75.8708 37.0332 75.2194 38.1357 73.3151 38.1357C71.3106 38.1357 70.8596 36.8328 70.9598 35.0788C70.9598 33.2247 70.9097 31.3705 70.9097 29.5664Z" fill="#E6E6E6"/>
<path d="M165.222 31.6213C165.222 32.9743 165.222 34.2773 165.222 35.6303C165.222 36.7328 165.022 37.6348 163.819 37.9856C162.716 38.2863 161.514 38.2863 160.962 37.1337C160.461 35.9811 160.06 36.3319 159.409 36.8831C158.206 37.8854 156.853 38.4366 155.3 38.4366C152.794 38.4366 151.09 37.1838 150.539 34.8786C149.988 32.4231 150.99 30.2683 153.095 29.2159C154.799 28.4141 156.603 28.3139 158.457 28.2637C159.058 28.2637 159.91 28.6145 160.261 27.8127C160.612 26.9608 160.211 26.159 159.659 25.5075C158.256 23.9541 156.502 24.2046 154.799 24.8561C153.496 25.3572 152.243 26.0588 151.591 24.1044C150.99 22.3003 152.343 21.7491 153.596 21.248C159.96 18.6922 165.122 22.0999 165.172 28.9152C165.222 29.7671 165.222 30.7193 165.222 31.6213ZM158.808 30.7193C157.354 30.9197 155.5 30.7193 155.25 32.9242C155.149 34.0768 155.801 34.7784 157.004 34.8786C158.457 34.9287 160.311 33.1748 160.361 31.7716C160.461 30.4687 159.559 30.8195 158.808 30.7193Z" fill="#E6E6E6"/>
<path d="M67.4519 31.5211C67.4519 32.9242 67.4519 34.3775 67.4519 35.7806C67.4519 36.7829 67.2515 37.5847 66.1991 37.9355C65.1968 38.2863 63.8939 38.3364 63.493 37.3842C62.6411 35.48 61.9395 36.7829 61.1377 37.284C58.9829 38.6371 56.7779 39.038 54.5729 37.5847C52.7689 36.382 52.4682 34.4777 52.819 32.4732C53.27 29.9676 55.1743 29.0154 57.4294 28.5644C58.3815 28.3639 59.4339 28.4141 60.386 28.2637C61.1377 28.1134 62.4406 28.8651 62.591 27.4619C62.7413 26.3093 62.14 25.3572 61.0375 24.8059C59.5842 24.0543 58.0808 24.3549 56.6777 25.0064C55.4249 25.5576 54.4727 25.7581 53.8714 24.2547C53.3201 22.8014 54.172 22.0999 55.2745 21.4985C61.2379 18.3915 67.3016 21.9495 67.4018 28.5644C67.4519 29.5165 67.4519 30.5188 67.4519 31.5211ZM62.6912 31.6213C62.3905 30.168 61.2379 30.7694 60.4862 30.8195C59.033 30.8696 57.5296 31.1201 57.4795 33.0745C57.4294 34.4276 58.3314 35.0791 59.6343 34.8786C61.4384 34.5278 62.3404 33.3251 62.6912 31.6213Z" fill="#E6E6E6"/>
<path d="M89.9522 23.8035C89.9522 21.0473 90.0023 18.2911 89.9522 15.5349C89.9021 13.7809 90.8041 13.0793 92.3576 13.0793C93.9612 13.0793 94.9133 13.7809 94.763 15.5349C94.7129 16.1362 94.763 16.6875 94.763 17.2888C94.763 20.5963 94.763 20.6464 98.1707 20.7466C99.4736 20.7967 100.275 21.1976 100.225 22.6008C100.175 23.8536 99.3734 24.3046 98.2208 24.2545C97.5693 24.2044 96.8677 24.3046 96.2163 24.2545C95.1639 24.1543 94.7129 24.6053 94.763 25.7078C94.8131 27.612 94.8632 29.5664 94.763 31.4707C94.6628 33.375 95.4145 34.3271 97.3689 34.1768C97.7197 34.1768 98.0203 34.1768 98.3711 34.2269C99.5738 34.3271 100.225 35.0287 100.225 36.1813C100.225 37.3339 99.5237 38.0856 98.3711 38.1357C93.7106 38.4364 89.8018 37.4842 90.0023 31.3705C90.0023 28.8147 89.9522 26.3091 89.9522 23.8035Z" fill="#E6E6E6"/>
<path d="M108.143 38.3865C106.289 38.3865 104.485 38.1359 102.882 37.0334C101.779 36.2817 101.328 35.2795 102.13 34.0266C102.882 32.8239 103.784 33.2248 104.686 33.8262C106.089 34.7282 107.642 34.9788 109.246 34.7282C109.948 34.628 110.549 34.2772 110.699 33.5756C110.9 32.7237 110.399 32.0723 109.647 31.8217C108.244 31.2704 106.79 30.8695 105.387 30.3684C103.333 29.5666 102.08 28.1635 102.18 25.8082C102.28 23.4529 103.433 21.8493 105.588 21.0474C107.943 20.1955 110.348 20.3459 112.704 21.2479C113.856 21.6989 114.859 22.3003 114.257 23.8538C113.706 25.2569 112.704 25.4073 111.401 24.8059C110.348 24.2547 109.196 24.1043 107.993 24.2547C107.191 24.3549 106.49 24.7558 106.339 25.5576C106.139 26.5097 106.941 26.8605 107.642 27.1111C108.594 27.4619 109.547 27.6623 110.499 27.963C113.806 29.0154 115.259 30.8695 114.909 33.726C114.608 36.4321 112.603 38.1359 109.296 38.3865C108.995 38.4366 108.594 38.3865 108.143 38.3865Z" fill="#E6E6E6"/>
<path d="M142.821 24.3047C142.821 20.6465 142.871 16.9381 142.821 13.2799C142.771 11.6262 143.322 10.7241 145.076 10.7241C146.88 10.674 147.582 11.4758 147.582 13.33C147.532 20.6966 147.532 28.013 147.582 35.3796C147.582 37.1335 146.93 38.1358 145.177 38.1358C143.372 38.1358 142.771 37.1335 142.821 35.3796C142.921 31.6713 142.821 27.9629 142.821 24.3047Z" fill="#E6E6E6"/>
<path d="M23.3024 46.6048C36.172 46.6048 46.6048 36.172 46.6048 23.3024C46.6048 10.4328 36.172 0 23.3024 0C10.4328 0 0 10.4328 0 23.3024C0 36.172 10.4328 46.6048 23.3024 46.6048Z" fill="#CE341F"/>
<path d="M23.152 38.0857C20.7967 38.0857 18.4915 38.0356 16.1362 38.0857C14.2319 38.1358 12.8288 37.334 11.9768 35.6803C11.1249 34.0767 11.3755 32.4731 12.4278 30.9697C14.4324 28.0632 16.3868 25.1065 18.3913 22.2C18.7922 21.5986 18.9926 20.9973 18.9926 20.2456C18.9425 18.4917 18.9425 16.6876 18.9926 14.9337C18.9926 14.3824 18.8924 14.0817 18.3913 13.7309C17.2387 13.0294 16.8378 11.7765 17.2387 10.624C17.6396 9.32103 18.6418 8.56934 19.9949 8.56934C22.1998 8.56934 24.4549 8.56934 26.6599 8.56934C28.0129 8.56934 29.0653 9.37114 29.4662 10.624C29.817 11.7765 29.4161 13.0294 28.3136 13.7811C27.8125 14.1318 27.7122 14.4325 27.7122 14.9838C27.7122 16.6876 27.7623 18.3914 27.7122 20.0953C27.6621 20.9472 27.9127 21.6488 28.4138 22.3503C30.4183 25.2068 32.3226 28.0632 34.277 30.9196C35.3294 32.423 35.5799 33.9765 34.728 35.6302C33.8761 37.2839 32.4729 37.9855 30.6689 38.0356C28.2134 38.0356 25.7077 38.0356 23.2522 38.0356C23.152 37.9855 23.152 38.0356 23.152 38.0857ZM21.9994 30.0677C21.1475 31.4709 20.947 32.3729 21.2477 33.4754C21.5484 34.4776 22.4003 35.2794 23.2522 35.2794C24.3046 35.2293 24.9059 34.5778 25.2567 33.6257C25.7077 32.423 25.4071 31.3205 24.7556 30.2682C25.3068 30.1178 25.6576 30.3684 25.9583 30.6189C26.3091 30.8695 26.1587 31.4709 26.6599 31.7214C26.9104 30.6189 26.2089 29.6668 24.956 29.4663C24.7055 29.4162 24.3547 29.5165 24.3547 29.2158C24.3547 28.9652 24.6554 28.7648 24.956 28.7147C25.4572 28.7147 25.9583 28.7147 26.4594 28.7147C26.6098 28.7147 26.8102 28.7147 26.8102 28.4641C26.8102 28.2135 26.6098 28.2135 26.4594 28.2135C26.0585 28.2135 25.6075 28.2135 25.2066 28.2135C24.8558 28.2135 24.5551 28.1634 24.505 27.7625C24.4549 27.3115 24.8558 27.4618 25.0563 27.3616C25.8581 27.111 26.5596 26.7603 26.8102 25.8582C26.8603 25.6077 26.9605 25.307 26.6599 25.2068C26.3091 25.0564 26.259 25.4072 26.2089 25.6578C26.0585 26.2591 25.6576 26.5097 25.1064 26.7101C24.6052 26.8605 24.3547 26.8605 24.4048 26.1589C24.4549 25.5074 24.5551 24.9061 24.8057 24.3047C24.9059 24.0041 25.0061 23.553 24.6052 23.4528C24.1041 23.3526 24.2545 23.8537 24.2043 24.1043C24.2043 24.1544 24.1542 24.2045 24.1041 24.3047C23.7032 24.2045 23.3524 23.8537 22.9014 24.1544C22.5005 24.405 22.3001 24.2546 22.4003 23.8036C22.4504 23.553 22.5506 23.2524 22.1998 23.2023C21.7989 23.1521 21.849 23.6032 21.7989 23.8537C21.6486 24.5052 22.3001 25.0564 22.0996 25.7079C21.9994 26.1088 22.5506 26.6099 21.9994 26.7603C21.398 26.9106 20.8468 26.5598 20.496 26.0086C20.3958 25.8582 20.3958 25.6578 20.3457 25.5074C20.2955 25.3571 20.1953 25.1567 19.9949 25.2068C19.7944 25.2569 19.7944 25.4573 19.7944 25.6578C19.8445 26.3092 20.1953 26.8104 20.7466 27.0609C21.1976 27.2614 21.7488 27.4117 22.2499 27.6122C22.1998 28.1133 21.9493 28.3138 21.398 28.2636C21.0974 28.2135 20.7466 28.2135 20.4459 28.2636C20.1953 28.3138 19.7944 28.1133 19.7944 28.5643C19.8445 28.9652 20.2454 28.8149 20.496 28.8149C20.8468 28.865 21.1976 28.8149 21.5484 28.8149C21.849 28.8149 22.1497 28.865 22.0996 29.2659C22.0996 29.6668 21.7989 29.5165 21.5484 29.5165C20.4459 29.5666 19.8946 30.218 19.594 31.1702C19.4937 31.4207 19.4937 31.6713 19.8445 31.7214C20.0951 31.7715 20.1953 31.5711 20.2454 31.3205C20.3958 30.3684 21.0974 30.0677 21.9994 30.0677Z" fill="#FCFDFD"/>
<path d="M21.9993 30.0678C21.0972 30.1179 20.3956 30.4186 20.1952 31.3707C20.1451 31.6213 20.095 31.7716 19.7943 31.7716C19.4435 31.7215 19.4936 31.4208 19.5437 31.2204C19.8444 30.2682 20.3957 29.6168 21.4981 29.5666C21.7487 29.5666 21.9993 29.717 22.0494 29.3161C22.0494 28.9152 21.7988 28.8651 21.4981 28.8651C21.1473 28.8651 20.7966 28.8651 20.4458 28.8651C20.1952 28.8651 19.7943 29.0154 19.7442 28.6145C19.6941 28.1635 20.1451 28.3639 20.3957 28.3138C20.6963 28.2637 21.0471 28.2637 21.3478 28.3138C21.8489 28.3639 22.1496 28.1134 22.1997 27.6624C21.6986 27.512 21.1975 27.3617 20.6963 27.1111C20.095 26.8606 19.7943 26.3594 19.7442 25.708C19.7442 25.5576 19.7442 25.3572 19.9446 25.257C20.1952 25.2068 20.2453 25.4073 20.2954 25.5576C20.3455 25.708 20.3956 25.9084 20.4458 26.0588C20.7966 26.61 21.3478 26.9608 21.9491 26.8104C22.5004 26.6601 21.899 26.1089 22.0494 25.7581C22.2498 25.1066 21.5984 24.5554 21.7487 23.9039C21.7988 23.6533 21.6986 23.2524 22.1496 23.2524C22.5004 23.2524 22.4002 23.6032 22.35 23.8538C22.2999 24.3048 22.4503 24.4551 22.8512 24.2046C23.3022 23.954 23.653 24.2547 24.0539 24.3549C24.104 24.3048 24.104 24.2547 24.1541 24.1545C24.2042 23.9039 24.0539 23.3527 24.555 23.503C24.9058 23.6032 24.8557 24.0542 24.7555 24.3549C24.5049 24.9563 24.4548 25.5576 24.3546 26.2091C24.3044 26.9107 24.555 26.9107 25.0561 26.7603C25.5573 26.5599 26.0083 26.3093 26.1586 25.708C26.2087 25.5075 26.2588 25.1567 26.6096 25.257C26.9103 25.3572 26.8101 25.708 26.76 25.9084C26.5094 26.8104 25.8078 27.1612 25.006 27.4118C24.8056 27.4619 24.3546 27.3116 24.4548 27.8127C24.5049 28.2136 24.8056 28.2637 25.1564 28.2637C25.5573 28.2637 26.0083 28.2637 26.4092 28.2637C26.5595 28.2637 26.76 28.2637 26.76 28.5143C26.76 28.7648 26.5595 28.7648 26.4092 28.7648C25.9081 28.7648 25.4069 28.7648 24.9058 28.7648C24.6051 28.7648 24.3044 29.0154 24.3044 29.266C24.3044 29.5666 24.6552 29.4664 24.9058 29.5165C26.1586 29.717 26.8602 30.619 26.6096 31.7716C26.1586 31.521 26.2588 30.9197 25.9081 30.6691C25.6074 30.4186 25.2566 30.1179 24.7053 30.3183C25.3568 31.3707 25.6575 32.4732 25.2065 33.6759C24.8557 34.5779 24.2543 35.2795 23.202 35.3296C22.35 35.3797 21.4981 34.5779 21.1975 33.5256C20.997 32.373 21.1473 31.4709 21.9993 30.0678Z" fill="#CE341F"/>
</svg>
