<svg width="125" height="108" viewBox="0 0 125 108" fill="none" xmlns="http://www.w3.org/2000/svg">
<rect x="49.1799" width="24.9452" height="79.5127" fill="#E6E6E6"/>
<rect x="21.1165" y="31.1814" width="24.9452" height="79.5127" transform="rotate(-60 21.1165 31.1814)" fill="#E6E6E6"/>
<rect x="33.5894" y="70.1582" width="24.9452" height="79.5127" transform="rotate(-120 33.5894 70.1582)" fill="#E6E6E6"/>
<path fill-rule="evenodd" clip-rule="evenodd" d="M60.3131 44.4336C59.7608 44.4336 59.3131 44.8813 59.3131 45.4336V46.7719H54.2983C53.1938 46.7719 52.2983 47.6673 52.2983 48.7719V68.158C52.2983 69.2626 53.1938 70.158 54.2983 70.158H62.7709C63.8755 70.158 64.7709 69.2626 64.7709 68.158V48.7719C64.7709 47.6673 63.8755 46.7719 62.7709 46.7719H61.6513V45.4336C61.6513 44.8813 61.2036 44.4336 60.6513 44.4336H60.3131Z" fill="#CE341F"/>
<rect x="53.8572" y="49.8896" width="9.35294" height="6.2353" fill="#FEFEFE"/>
<path fill-rule="evenodd" clip-rule="evenodd" d="M57.0255 65.4812H56.923C56.9401 65.4812 56.9572 65.4812 56.9743 65.4812C56.9913 65.4812 57.0084 65.4812 57.0255 65.4812ZM75.6831 46.7723H72.4952C71.7077 38.0311 64.3614 31.1811 55.4153 31.1811H55.4152V28.1275C55.9293 28.0851 56.4492 28.0635 56.9743 28.0635C67.3069 28.0635 75.6831 36.4397 75.6831 46.7723ZM38.2654 46.7723L38.2654 46.7429V46.8018L38.2654 46.7723Z" fill="#CE341F"/>
<path fill-rule="evenodd" clip-rule="evenodd" d="M65.4013 46.5927C64.6202 42.0741 60.8467 38.5805 56.1956 38.2266V35.1187C56.5117 35.0926 56.8314 35.0793 57.1543 35.0793C63.5128 35.0793 68.6674 40.234 68.6674 46.5925C68.6674 46.5926 68.6674 46.5926 68.6674 46.5927H65.4013Z" fill="#CE341F"/>
<path d="M12.3229 97.2488C13.4704 97.5481 14.3601 98.1219 14.992 98.97C15.6406 99.8015 15.9649 100.766 15.9649 101.864C15.9649 103.51 15.3995 104.874 14.2686 105.955C13.1378 107.036 11.4083 107.576 9.08004 107.576H0V88.4182H9.12993C11.1255 88.4182 12.6389 88.8506 13.6699 89.7154C14.701 90.5635 15.2165 91.7276 15.2165 93.2077C15.2165 94.1556 14.9588 94.9871 14.4432 95.7022C13.9277 96.4173 13.2209 96.9328 12.3229 97.2488ZM8.58114 91.4366H4.06606V96.2759H8.55619C9.40433 96.2759 10.0529 96.0681 10.5019 95.6523C10.9676 95.2199 11.2004 94.6046 11.2004 93.8064C11.2004 93.0746 10.9676 92.5009 10.5019 92.0851C10.0529 91.6528 9.41264 91.4366 8.58114 91.4366ZM4.06606 104.558H9.05509C9.91986 104.558 10.5934 104.325 11.0757 103.859C11.5579 103.394 11.7991 102.737 11.7991 101.889C11.7991 101.04 11.5413 100.392 11.0258 99.9429C10.5269 99.4772 9.82008 99.2444 8.90542 99.2444H4.06606V104.558Z" fill="#E6E6E6"/>
<path d="M25.0935 99.3941V104.184H35.1963V107.576H21.0524V88.4182H35.1464V91.8108H25.0935V96.1013H34.2733V99.3941H25.0935Z" fill="#E6E6E6"/>
<path d="M57.4191 107.576H53.0537L51.8563 103.884H43.799L42.6266 107.576H38.4358L45.0712 88.4182H50.5592L57.4191 107.576ZM47.3412 92.8584L44.8218 100.741H50.8336L48.2892 92.8584L47.8152 91.0125L47.3412 92.8584Z" fill="#E6E6E6"/>
<path d="M69.4025 108C66.6419 108 64.4052 107.094 62.6923 105.281C60.9794 103.502 60.1229 101.082 60.1229 98.0221C60.1229 94.9455 60.996 92.5092 62.7422 90.7132C64.4551 88.9171 66.7001 88.0191 69.4773 88.0191C71.7557 88.0191 73.6432 88.5512 75.1399 89.6156C76.6366 90.6799 77.6594 92.2182 78.2082 94.2304L74.2169 94.6794C73.4686 92.5175 71.9053 91.4366 69.5272 91.4366C67.8642 91.4366 66.5754 92.002 65.6607 93.1328C64.7627 94.2471 64.3137 95.8436 64.3137 97.9223C64.3137 100.001 64.771 101.623 65.6857 102.787C66.617 103.951 67.8892 104.533 69.5023 104.533C72.0966 104.533 73.718 103.319 74.3666 100.891L78.2331 101.34C77.7176 103.435 76.6782 105.073 75.115 106.254C73.5684 107.418 71.6642 108 69.4025 108Z" fill="#E6E6E6"/>
<path d="M99.0068 105.256C97.2606 107.069 94.9324 107.975 92.0221 107.975C89.1118 107.975 86.7836 107.061 85.0375 105.231C83.2747 103.419 82.3933 101.007 82.3933 97.9972C82.3933 94.9705 83.2747 92.5508 85.0375 90.7381C86.7836 88.9088 89.1118 87.9941 92.0221 87.9941C94.8991 87.9941 97.2273 88.9088 99.0068 90.7381C100.753 92.5508 101.626 94.9705 101.626 97.9972C101.626 101.024 100.753 103.444 99.0068 105.256ZM88.0309 102.911C88.9954 104.059 90.3258 104.633 92.0221 104.633C93.7184 104.633 95.0488 104.059 96.0133 102.911C96.9779 101.781 97.4602 100.142 97.4602 97.9972C97.4602 95.8519 96.9779 94.2138 96.0133 93.083C95.0488 91.9355 93.7184 91.3617 92.0221 91.3617C90.3258 91.3617 88.9954 91.9355 88.0309 93.083C87.0497 94.2471 86.5591 95.8851 86.5591 97.9972C86.5591 100.109 87.0497 101.747 88.0309 102.911Z" fill="#E6E6E6"/>
<path d="M120.939 103.959V88.4182H124.706V107.576H118.993L110.612 92.0353V107.576H106.845V88.4182H112.608L120.939 103.959Z" fill="#E6E6E6"/>
</svg>
