<svg width="85" height="108" viewBox="0 0 85 108" fill="none" xmlns="http://www.w3.org/2000/svg">
<path d="M42.3175 4.3187L81.2511 54L42.3175 103.681L3.38421 54L42.3175 4.3187ZM42.3175 0L40.2208 2.67561L1.28746 52.3569L0 54L1.28746 55.6431L40.2205 105.324L42.3172 108L44.414 105.324L83.3475 55.6431L84.6353 54L83.3475 52.3569L44.4142 2.67535L42.3175 0Z" fill="#F2F2F2"/>
<path d="M40.205 32.6072C40.2114 32.1155 40.249 31.6264 40.3121 31.1461C41.1563 31.0971 42.021 31.112 42.8953 31.197C43.5842 31.2641 44.248 31.3563 44.8884 31.4706C44.1079 32.5905 43.1292 33.5255 42.0023 34.3441C41.5223 34.6939 41.0151 35.0215 40.485 35.3343C40.3049 34.5556 40.2178 33.758 40.2042 32.9621C40.2031 32.8441 40.2034 32.7255 40.205 32.6072ZM41.1233 28.0163C42.1691 25.3782 43.9185 23.5687 45.3642 23.9416C46.4335 24.2176 46.6468 25.5218 46.2829 28.426C44.6183 28.1652 42.8939 28.0245 41.1233 28.0163ZM43.7035 36.2773C45.1636 34.973 46.4974 33.5713 47.584 32.1317C54.8828 34.456 58.2561 40.3568 58.0304 47.7786C57.8203 54.6683 54.3167 60.0714 46.5781 62.1037C44.5575 62.6277 42.3763 62.4703 40.1968 62.0203C44.4822 57.4374 47.4963 50.2608 49.9842 42.7351C45.561 42.0875 42.9715 40.292 41.5806 38.0389C42.3074 37.4774 43.0191 36.8884 43.7035 36.2773ZM49.4564 29.0874C50.0699 27.7776 50.4165 26.471 50.4125 25.2115C50.4008 22.1901 48.7116 19.4069 45.8738 19.2681C40.6326 19.2806 38.0758 23.9853 37.1993 28.2425C21.561 30.1589 15.36 43.7841 22.8956 49.1058C28.9799 51.316 33.6593 48.6801 33.9979 44.9818C30.1803 45.3758 28.9088 43.363 28.9229 40.7859C28.9471 36.439 32.2794 33.0718 36.8373 31.7399C36.8403 32.2061 36.8664 32.6389 36.9151 33.0268C36.9428 33.2476 36.9705 33.4658 36.9974 33.6821C37.1378 34.8095 37.2705 35.8798 37.3965 36.9132C35.8906 37.5994 34.2874 38.2472 32.6513 38.9422L32.7 43.1285C34.2621 42.5726 36.0326 41.7039 37.8349 40.6117C37.9173 41.324 37.9966 42.0302 38.0747 42.7364C38.5606 47.1374 38.498 51.1077 37.5419 57.0967C37.3475 58.3186 36.8791 59.6889 36.1191 60.9167C33.1215 59.9713 30.3332 58.9278 28.2167 58.8919C26.2129 58.8063 23.3506 59.626 22.9387 61.971C22.3314 65.4269 26.5528 67.2887 30.3606 67.0367C30.9853 66.9965 31.5919 66.9131 32.1814 66.7927C34.1777 66.3848 35.9785 65.5348 37.6154 64.3329C40.6768 65.6688 44.1873 66.9536 47.3656 66.8611C59.258 66.5159 67.5467 58.0197 67.1556 47.4936C66.7488 38.9276 59.5393 31.722 49.4564 29.0874ZM31.172 64.4138C30.83 64.4663 30.4738 64.4959 30.103 64.4959C29.4426 64.3544 27.8664 64.4434 27.7415 62.7287C28.0441 61.8024 29.1488 61.5358 30.3361 61.4963C31.1867 61.4694 32.6401 62.0797 34.4422 62.8983C33.5495 63.6594 32.4624 64.2148 31.172 64.4138Z" fill="#CE341F"/>
<path d="M59.2542 94.0804C54.31 94.0804 48.406 93.0939 43.4605 91.4418C41.2561 90.7833 37.7217 89.8978 32.7794 89.8978C27.0363 89.8978 20.823 91.112 14.3119 93.5058L13.2371 93.9011V74.4885L13.7856 74.3074C18.9793 72.5921 24.1169 71.7583 29.4916 71.7583C34.549 71.7583 38.872 72.5074 42.3454 73.1089L42.4541 73.1275C45.6835 73.687 51.4213 74.2847 57.8394 74.2845C62.9407 74.2845 67.2887 73.8881 70.4127 73.1379L71.3983 72.9011V91.3949L70.9729 91.62C67.8886 93.2524 63.9458 94.0804 59.2542 94.0804Z" fill="#1A1A1A"/>
<path d="M29.4914 72.5576C34.5326 72.5576 38.8262 73.3104 42.3175 73.9153C46.0385 74.5597 51.9515 75.084 57.8392 75.084C62.4677 75.084 67.0816 74.7598 70.599 73.9153V90.9142C67.3355 92.6414 63.317 93.2816 59.254 93.2816C53.4787 93.2816 47.6152 91.9874 43.7134 90.684C41.4337 90.0026 37.7985 89.099 32.7792 89.099C27.8654 89.099 21.6244 89.9661 14.0361 92.7562V75.0664C19.7714 73.1721 24.9367 72.5576 29.4914 72.5576ZM29.4914 70.9592C24.0302 70.9592 18.8108 71.8063 13.535 73.5488L12.4377 73.9111V75.0664V92.7557V95.0464L14.5878 94.256C21.0101 91.8945 27.1307 90.6971 32.7795 90.6971C37.5993 90.6971 41.0503 91.5572 43.2323 92.208C48.25 93.8809 54.2374 94.8796 59.2546 94.8796C64.0778 94.8796 68.1466 94.0205 71.3473 92.3266L72.1979 91.8766V90.9142V73.9153V71.8879L70.2266 72.3612C67.1623 73.0967 62.879 73.4857 57.8398 73.4857C52.593 73.4857 46.6072 73.036 42.5909 72.3405L42.4822 72.3218C38.9781 71.7147 34.6176 70.9592 29.4914 70.9592Z" fill="#F2F2F2"/>
<path d="M35.6133 87.66H29.3702V87.0801C29.5543 87.0649 29.7802 87.0404 30.0482 87.0057C30.3162 86.9711 30.4986 86.9341 30.5961 86.8941C30.7962 86.8198 30.9398 86.7183 31.0263 86.5891C31.1129 86.4604 31.1563 86.2966 31.1563 86.0984V78.2176L27.1943 87.4892H26.1714C26.1227 87.3257 26.0022 87.0009 25.8102 86.5153C25.6178 86.0294 25.4623 85.6405 25.3435 85.3477L22.4289 78.0985V84.515C22.4289 85.1298 22.4734 85.5971 22.5629 85.9167C22.6521 86.2364 22.7968 86.4706 22.9971 86.6195C23.1322 86.7234 23.3746 86.823 23.7238 86.9165C24.0731 87.0108 24.3176 87.0654 24.4585 87.0803V87.6603H19.5063V87.0803C19.6414 87.0651 19.862 87.0318 20.1678 86.9799C20.4736 86.9277 20.724 86.8376 20.9187 86.7084C21.1351 86.5697 21.2813 86.3355 21.3572 86.0057C21.4329 85.6762 21.471 85.2063 21.471 84.5965V79.3697C21.471 79.0527 21.4275 78.7884 21.341 78.578C21.2544 78.3675 21.1244 78.2 20.9512 78.0758C20.7347 77.9227 20.5128 77.8233 20.2855 77.7786C20.0583 77.7341 19.8281 77.7042 19.5956 77.6893V77.1094H24.9039L27.7436 84.0608L30.1371 78.4192C30.2181 78.2112 30.2967 77.9626 30.3724 77.6749C30.448 77.3875 30.4888 77.1986 30.4941 77.1094H35.5973V77.6893C35.4239 77.6994 35.2428 77.7191 35.0533 77.749C34.8639 77.7785 34.6825 77.8185 34.5094 77.8681C34.2984 77.9323 34.1588 78.034 34.0914 78.1728C34.0238 78.3116 33.9899 78.4653 33.9899 78.6337V86.1059C33.9899 86.2846 34.0238 86.4346 34.0914 86.5555C34.1588 86.6773 34.2984 86.7825 34.5094 86.8717C34.6175 86.9162 34.7947 86.9586 35.0411 86.9985C35.2872 87.038 35.4782 87.0651 35.6133 87.0803V87.66Z" fill="#F2F2F2"/>
<path d="M49.301 85.117C48.765 85.4692 48.1521 85.7321 47.4624 85.9053C46.7722 86.0787 46.0295 86.1655 45.2338 86.1655V86.3813C45.2338 86.555 45.265 86.6986 45.3278 86.8126C45.3902 86.9266 45.5196 87.0183 45.7154 87.0875C45.8132 87.1224 45.9831 87.1533 46.225 87.1808C46.4672 87.2082 46.6915 87.2242 46.8982 87.2292V87.8092H40.8498V87.2292C40.9796 87.2194 41.1676 87.2031 41.414 87.1808C41.6604 87.1581 41.832 87.1277 41.9298 87.0875C42.092 87.0233 42.2111 86.9344 42.287 86.8198C42.3626 86.7058 42.4007 86.5595 42.4007 86.3813V86.1655C41.5728 86.1655 40.8093 86.0763 40.1114 85.8981C39.4132 85.7193 38.8095 85.4594 38.301 85.117C37.7869 84.775 37.3878 84.3562 37.1036 83.8605C36.8196 83.365 36.6774 82.8 36.6774 82.1652C36.6774 81.6798 36.7789 81.2238 36.9819 80.7973C37.1848 80.3708 37.5218 79.9816 37.9925 79.63C38.4363 79.2978 39.0208 79.0301 39.7462 78.8268C40.4715 78.6235 41.3237 78.5218 42.3035 78.5218H42.401C42.401 78.294 42.3698 78.1254 42.3075 78.0164C42.2452 77.9075 42.1194 77.8156 41.93 77.7413C41.7729 77.6771 41.5904 77.6249 41.3821 77.5852C41.1735 77.5457 40.991 77.521 40.8341 77.5108V76.9309H46.8012V77.5108C46.6443 77.5162 46.4629 77.5292 46.2573 77.5519C46.0516 77.574 45.8705 77.6102 45.7136 77.6595C45.5239 77.7191 45.3968 77.8071 45.3318 77.9235C45.2668 78.0401 45.2343 78.2397 45.2343 78.5218H45.3238C46.3193 78.5218 47.1731 78.6222 47.8849 78.8231C48.5967 79.0239 49.1825 79.293 49.6428 79.6297C50.0922 79.9669 50.4236 80.3535 50.6372 80.7896C50.8509 81.2256 50.9577 81.6841 50.9577 82.1647C50.9577 82.7896 50.8088 83.3543 50.5112 83.86C50.2131 84.3661 49.8101 84.7851 49.301 85.117ZM40.2246 84.2545C40.4409 84.6511 40.7291 84.9561 41.0893 85.1693C41.4492 85.3826 41.8834 85.4889 42.3925 85.4889V79.1989H42.1407C41.6807 79.1989 41.3019 79.3007 41.0041 79.504C40.7062 79.7072 40.4684 79.9576 40.2896 80.2549C40.1218 80.5272 39.9947 80.8546 39.9079 81.2366C39.8213 81.618 39.7781 81.9896 39.7781 82.3517C39.7781 82.6095 39.7997 82.8943 39.8431 83.2068C39.8863 83.5184 40.0136 83.8679 40.2246 84.2545ZM47.4017 84.2545C47.5855 83.9228 47.7072 83.5808 47.7669 83.2283C47.8266 82.8767 47.8561 82.5842 47.8561 82.3511C47.8561 82.0341 47.8143 81.6772 47.7304 81.2805C47.6465 80.8841 47.5178 80.5421 47.3447 80.2544C47.1553 79.9371 46.9158 79.6822 46.6262 79.4885C46.3366 79.2948 45.9592 79.1984 45.4938 79.1984H45.242V85.4884C45.7455 85.4884 46.1824 85.3797 46.5532 85.1613C46.9238 84.9439 47.2067 84.6413 47.4017 84.2545Z" fill="#F2F2F2"/>
<path d="M64.8804 87.6598H60.4607C60.2713 87.1494 60.0822 86.6388 59.893 86.1284C59.7036 85.6177 59.5038 85.1443 59.2929 84.708C59.1416 84.3859 58.9916 84.1123 58.8429 83.8864C58.6943 83.6608 58.5118 83.469 58.2952 83.3102C58.0899 83.1515 57.8424 83.034 57.5528 82.9573C57.2635 82.8803 56.9215 82.8417 56.5264 82.8417V86.1057C56.5264 86.2746 56.5656 86.4256 56.6442 86.5594C56.7225 86.6934 56.8565 86.7973 57.0459 86.8716C57.1487 86.9113 57.3248 86.9534 57.5736 86.9984C57.8227 87.0429 58.0254 87.0703 58.1823 87.0802V87.6601H51.9554V87.0802C52.0908 87.0751 52.2898 87.0591 52.5522 87.0317C52.8146 87.0045 53.0053 86.9709 53.1244 86.9313C53.3191 86.8671 53.4544 86.769 53.5303 86.6374C53.606 86.5064 53.6438 86.3513 53.6438 86.1728V78.7081C53.6438 78.5349 53.61 78.3882 53.5423 78.2693C53.4747 78.1505 53.3356 78.0464 53.1244 77.9571C52.9675 77.8929 52.7618 77.8343 52.5074 77.7827C52.253 77.7307 52.0689 77.6995 51.9554 77.6894V77.1095H58.1823V77.6894C58.0145 77.6995 57.8141 77.7243 57.5816 77.7637C57.3488 77.8034 57.1703 77.8407 57.0456 77.8754C56.8346 77.9398 56.6953 78.0427 56.6276 78.1838C56.56 78.325 56.5262 78.4753 56.5262 78.6335V82.1429H57.0547C57.2715 82.1429 57.4982 82.1147 57.7342 82.0574C57.9702 82.0004 58.1831 81.8853 58.3728 81.7119C58.7633 81.3597 59.0555 81.0044 59.25 80.6447C59.4444 80.2851 59.6115 79.9172 59.7521 79.5406C59.9138 79.1242 60.0598 78.771 60.1898 78.4809C60.3195 78.191 60.5766 77.8751 60.961 77.5328C61.1501 77.3596 61.3827 77.2216 61.6587 77.1201C61.9344 77.0184 62.2373 76.9678 62.5673 76.9678C63.1081 76.9678 63.5356 77.094 63.8495 77.3471C64.1633 77.5999 64.3202 77.9222 64.3202 78.3136C64.3202 78.7449 64.1875 79.0808 63.9224 79.3211C63.6571 79.5613 63.3188 79.6817 62.9075 79.6817C62.6475 79.6817 62.3947 79.6122 62.1483 79.4734C61.9019 79.3346 61.6086 79.0669 61.2673 78.6703C61.1051 78.824 60.9629 79.0608 60.8411 79.3802C60.7194 79.7001 60.607 79.9788 60.5041 80.2169C60.2929 80.7079 60.0872 81.0803 59.8872 81.336C59.6869 81.591 59.457 81.803 59.197 81.9714V82.1053C59.9548 82.2886 60.5825 82.5912 61.0803 83.0124C61.5782 83.4338 61.9815 83.9466 62.29 84.5513C62.4253 84.8143 62.5647 85.0932 62.708 85.3881C62.8513 85.683 62.9773 85.9347 63.0857 86.1425C63.2533 86.4648 63.4171 86.6779 63.5769 86.7818C63.7365 86.8862 63.8678 86.9454 63.9707 86.9606C64.0953 86.9853 64.248 87.0088 64.4294 87.0311C64.6108 87.0535 64.761 87.0698 64.8798 87.0796V87.6598H64.8804Z" fill="#F2F2F2"/>
</svg>
