<svg width="200" height="58" viewBox="0 0 200 58" fill="none" xmlns="http://www.w3.org/2000/svg">
<path d="M64.2652 56.8782C63.7888 57.0509 62.8549 57.3387 61.7495 57.3387C60.5107 57.3387 59.5006 57.0317 58.7002 56.2449C57.995 55.5541 57.5566 54.4795 57.5566 53.1938C57.5566 50.7375 59.2338 48.9529 61.9592 48.9529C62.893 48.9529 63.6554 49.164 63.9984 49.3367L63.7316 50.2002C63.2932 50.0083 62.7596 49.8548 61.921 49.8548C59.939 49.8548 58.643 51.1021 58.643 53.1554C58.643 55.2279 59.8818 56.4752 61.7876 56.4752C62.4737 56.4752 62.9502 56.3793 63.1789 56.2449V53.7887H61.5208V52.9443H64.2081V56.8782H64.2652Z" fill="#CE341F"/>
<path d="M75.5478 53.0592C75.5478 55.88 73.8516 57.3768 71.7552 57.3768C69.5825 57.3768 68.0959 55.6881 68.0959 53.2127C68.0959 50.6029 69.6969 48.895 71.8695 48.895C74.0994 48.895 75.5478 50.6221 75.5478 53.0592ZM69.2013 53.1743C69.2013 54.9398 70.1543 56.5133 71.8123 56.5133C73.4895 56.5133 74.4234 54.9589 74.4234 53.0976C74.4234 51.4664 73.5848 49.7586 71.8314 49.7586C70.078 49.7586 69.2013 51.3897 69.2013 53.1743Z" fill="#CE341F"/>
<path d="M90.1467 49.0295H91.214V56.3408H94.7017V57.2427H90.1467V49.0295Z" fill="#CE341F"/>
<path d="M105.088 53.0592C105.088 55.88 103.392 57.3768 101.296 57.3768C99.123 57.3768 97.6365 55.6881 97.6365 53.2127C97.6365 50.6029 99.2374 48.895 101.41 48.895C103.64 48.895 105.088 50.6221 105.088 53.0592ZM98.7419 53.1743C98.7419 54.9398 99.6948 56.5133 101.353 56.5133C103.03 56.5133 103.964 54.9589 103.964 53.0976C103.964 51.4664 103.125 49.7586 101.372 49.7586C99.6186 49.7586 98.7419 51.3897 98.7419 53.1743Z" fill="#CE341F"/>
<path d="M114.847 56.974C114.465 57.1659 113.684 57.3578 112.693 57.3578C110.387 57.3578 108.672 55.8994 108.672 53.1936C108.672 50.6222 110.406 48.876 112.922 48.876C113.932 48.876 114.58 49.0871 114.866 49.2406L114.599 50.1041C114.199 49.9122 113.627 49.7587 112.96 49.7587C111.035 49.7587 109.777 50.9868 109.777 53.1553C109.777 55.1702 110.921 56.4559 112.903 56.4559C113.551 56.4559 114.199 56.3215 114.637 56.1105L114.847 56.974Z" fill="#CE341F"/>
<path d="M120.221 54.6521L119.382 57.2427H118.296L121.079 49.0295H122.337L125.119 57.2427H123.995L123.118 54.6521H120.221ZM122.908 53.8269L122.108 51.4666C121.936 50.9293 121.803 50.4304 121.689 49.9698H121.65C121.536 50.4496 121.403 50.9485 121.25 51.4474L120.45 53.8269H122.908Z" fill="#CE341F"/>
<path d="M129.026 49.0295H130.093V56.3408H133.581V57.2427H129.026V49.0295Z" fill="#CE341F"/>
<path d="M57.1947 31.2984C57.7283 32.5457 58.4526 33.6395 59.3864 34.5798C60.3203 35.5201 61.3876 36.2493 62.6454 36.8058C63.8842 37.3431 65.2374 37.6117 66.6667 37.6117C67.8674 37.6117 68.9728 37.439 69.9829 37.0744C70.993 36.7098 71.8888 36.2109 72.6892 35.5393C73.4897 34.8676 74.1377 34.1 74.6713 33.1789C75.2049 32.2578 75.5861 31.2408 75.8148 30.147H69.3731C69.1253 30.147 68.9157 30.051 68.7441 29.8783C68.5726 29.7056 68.4964 29.4945 68.4964 29.2451C68.4964 29.0148 68.5726 28.8037 68.7441 28.631C68.9157 28.4583 69.1253 28.3624 69.3731 28.3624H76.7868C77.0536 28.3816 77.2633 28.4583 77.4538 28.6118C77.6444 28.7653 77.7207 28.9764 77.7207 29.2451C77.5682 30.6843 77.168 32.0276 76.5581 33.2557C75.9482 34.4838 75.1478 35.5585 74.1758 36.4604C73.2038 37.3623 72.0794 38.0723 70.8024 38.5904C69.5255 39.1085 68.1343 39.358 66.6477 39.358C65.5423 39.358 64.475 39.2237 63.4459 38.9358C62.4167 38.648 61.4638 38.245 60.568 37.7077C59.6723 37.1704 58.8718 36.5371 58.1476 35.8079C57.4234 35.0787 56.7945 34.2536 56.2799 33.3517C55.7653 32.4497 55.3651 31.4903 55.0792 30.454C54.7933 29.4178 54.6599 28.3432 54.6599 27.2302C54.6599 26.1364 54.7933 25.0809 55.0792 24.0447C55.3651 23.0085 55.7462 22.049 56.2799 21.1471C56.7945 20.2452 57.4234 19.42 58.1476 18.6716C58.8718 17.9232 59.6723 17.29 60.568 16.7527C61.4638 16.2153 62.4167 15.8124 63.4459 15.5053C64.475 15.2175 65.5614 15.064 66.6858 15.064C68.2867 15.064 69.8305 15.371 71.2789 15.9659C72.7464 16.5608 74.0614 17.4627 75.2621 18.6716C75.4527 18.8443 75.548 19.0554 75.548 19.2857C75.548 19.5351 75.4527 19.727 75.2812 19.9189C75.1097 20.0916 74.9 20.1876 74.6523 20.1876C74.4045 20.1876 74.1948 20.0916 74.0233 19.9189C73.0132 18.9019 71.8697 18.1343 70.5928 17.6162C69.3159 17.0981 68.0199 16.8486 66.6858 16.8486C65.3136 16.8486 63.9986 17.1173 62.7598 17.6354C61.521 18.1727 60.4346 18.8827 59.5008 19.823C58.5669 20.7441 57.8236 21.8379 57.29 23.1044C56.7373 24.3709 56.4705 25.7334 56.4705 27.1918C56.4133 28.6886 56.6801 30.0319 57.1947 31.2984Z" fill="#E6E6E6"/>
<path d="M82.2565 31.3172C82.3327 32.2191 82.5614 33.0443 82.9426 33.8119C83.3238 34.5794 83.8383 35.2511 84.4482 35.8268C85.0581 36.4025 85.7632 36.8438 86.5637 37.17C87.3642 37.4963 88.2218 37.669 89.1175 37.669C90.1848 37.669 91.1759 37.4579 92.0907 37.0165C93.0055 36.5752 93.7487 35.9995 94.3205 35.2511C94.6254 35.0016 94.9113 34.9249 95.2163 35.0208C95.3687 35.0784 95.5021 35.1743 95.5974 35.347C95.7308 35.5005 95.8071 35.7116 95.8071 35.9419C95.8071 36.1722 95.7118 36.3833 95.4831 36.5944C94.7588 37.4003 93.8822 38.072 92.8149 38.5901C91.7476 39.1082 90.5279 39.3768 89.1175 39.3768C87.8978 39.3768 86.7543 39.1466 85.687 38.686C84.6197 38.2255 83.6859 37.5922 82.8854 36.7863C82.085 35.9803 81.456 35.04 80.9796 33.9654C80.5031 32.8908 80.2935 31.7394 80.2935 30.4921C80.2935 29.2447 80.5222 28.1125 80.9796 27.0379C81.437 25.9633 82.0659 25.023 82.8854 24.2171C83.6859 23.4111 84.6197 22.7778 85.687 22.3173C86.7543 21.8567 87.8978 21.6265 89.1175 21.6265C90.3182 21.6265 91.4617 21.8567 92.5481 22.3173C93.6153 22.7778 94.5492 23.4111 95.3497 24.1979C96.1501 25.0038 96.779 25.9441 97.2555 27.0187C97.732 28.0934 97.9607 29.2447 97.9607 30.4537C97.9607 30.7031 97.8844 30.9142 97.7129 31.0677C97.5604 31.2213 97.3508 31.3172 97.103 31.3172H82.2565ZM96.1501 29.8012C96.0929 28.8993 95.8642 28.055 95.4831 27.2682C95.1019 26.4814 94.5873 25.7906 93.9584 25.2149C93.3295 24.6392 92.6052 24.1787 91.7857 23.8333C90.9662 23.507 90.0895 23.3343 89.1747 23.3343C88.2599 23.3343 87.3832 23.507 86.5637 23.8333C85.7442 24.1595 85.02 24.6392 84.4101 25.2149C83.8002 25.8098 83.2856 26.5006 82.9045 27.2874C82.5233 28.0742 82.2946 28.9185 82.2374 29.8204H96.1501V29.8012Z" fill="#E6E6E6"/>
<path d="M104.784 21.6266H107.604C107.852 21.6266 108.062 21.7034 108.233 21.8761C108.405 22.0488 108.5 22.2599 108.5 22.5093C108.5 22.778 108.405 22.9891 108.233 23.1426C108.062 23.3153 107.852 23.3921 107.604 23.3921H104.784V38.264C104.784 38.5135 104.689 38.7246 104.517 38.8781C104.345 39.0508 104.136 39.1275 103.888 39.1275C103.64 39.1275 103.431 39.0508 103.259 38.8781C103.088 38.7054 103.011 38.4943 103.011 38.264V23.3921H100.705C100.458 23.3921 100.248 23.2961 100.076 23.1234C99.9049 22.9507 99.8096 22.7396 99.8096 22.4901C99.8096 22.2407 99.9049 22.0296 100.076 21.8569C100.248 21.6842 100.458 21.6074 100.705 21.6074H103.011V16.196C103.011 15.9465 103.088 15.7354 103.259 15.5627C103.431 15.39 103.64 15.3132 103.888 15.3132C104.136 15.3132 104.345 15.39 104.517 15.5627C104.689 15.7354 104.784 15.9465 104.784 16.196V21.6266Z" fill="#E6E6E6"/>
<path d="M112.921 31.2984C113.455 32.5457 114.179 33.6395 115.113 34.5798C116.047 35.5201 117.114 36.2493 118.372 36.8058C119.611 37.3431 120.964 37.6117 122.394 37.6117C123.594 37.6117 124.7 37.439 125.71 37.0744C126.72 36.7098 127.616 36.2109 128.416 35.5393C129.216 34.8676 129.864 34.1 130.398 33.1789C130.932 32.2578 131.313 31.2408 131.542 30.147H125.119C124.871 30.147 124.662 30.051 124.49 29.8783C124.318 29.7056 124.242 29.4945 124.242 29.2451C124.242 29.0148 124.318 28.8037 124.49 28.631C124.662 28.4583 124.871 28.3624 125.119 28.3624H132.533C132.799 28.3816 133.009 28.4583 133.2 28.6118C133.39 28.7653 133.467 28.9764 133.467 29.2451C133.314 30.6843 132.914 32.0276 132.304 33.2557C131.694 34.4838 130.894 35.5585 129.922 36.4604C128.95 37.3623 127.825 38.0723 126.548 38.5904C125.271 39.1085 123.88 39.358 122.394 39.358C121.288 39.358 120.221 39.2237 119.192 38.9358C118.163 38.648 117.21 38.245 116.314 37.7077C115.418 37.1704 114.618 36.5371 113.893 35.8079C113.169 35.0787 112.54 34.2536 112.026 33.3517C111.511 32.4497 111.111 31.4903 110.825 30.454C110.539 29.4178 110.406 28.3432 110.406 27.2302C110.406 26.1364 110.539 25.0809 110.825 24.0447C111.111 23.0085 111.492 22.049 112.026 21.1471C112.54 20.2452 113.169 19.42 113.893 18.6716C114.618 17.9232 115.418 17.29 116.314 16.7527C117.21 16.2153 118.163 15.8124 119.192 15.5053C120.221 15.2175 121.307 15.064 122.432 15.064C124.033 15.064 125.576 15.371 127.025 15.9659C128.492 16.5608 129.807 17.4627 131.008 18.6716C131.199 18.8443 131.294 19.0554 131.294 19.2857C131.294 19.5351 131.199 19.727 131.027 19.9189C130.856 20.0916 130.646 20.1876 130.398 20.1876C130.15 20.1876 129.941 20.0916 129.769 19.9189C128.759 18.9019 127.616 18.1343 126.339 17.6162C125.062 17.0981 123.766 16.8486 122.432 16.8486C121.059 16.8486 119.744 17.1173 118.506 17.6354C117.267 18.1727 116.18 18.8827 115.247 19.823C114.313 20.7441 113.569 21.8379 113.036 23.1044C112.483 24.3709 112.216 25.7334 112.216 27.1918C112.121 28.6886 112.388 30.0319 112.921 31.2984Z" fill="#E6E6E6"/>
<path d="M137.164 21.857C137.336 21.6843 137.545 21.6076 137.812 21.6076C138.041 21.6076 138.251 21.6843 138.422 21.857C138.594 22.0297 138.67 22.2408 138.67 22.5095V30.6075C138.67 32.8335 139.146 34.5222 140.08 35.6735C141.033 36.8249 142.329 37.4006 143.987 37.4006C144.807 37.4006 145.588 37.2279 146.331 36.8825C147.075 36.5371 147.704 36.0765 148.256 35.4625C148.79 34.8676 149.228 34.1576 149.552 33.3324C149.876 32.5265 150.029 31.6437 150.029 30.6843V22.5095C150.029 22.26 150.105 22.0489 150.276 21.857C150.448 21.6843 150.658 21.5884 150.905 21.5884C151.153 21.5884 151.363 21.6843 151.534 21.857C151.706 22.0297 151.801 22.26 151.801 22.4903V38.2258C151.801 38.4752 151.706 38.6863 151.534 38.859C151.363 39.0317 151.153 39.1277 150.905 39.1277C150.658 39.1277 150.448 39.0317 150.276 38.859C150.105 38.6863 150.029 38.456 150.029 38.2258V35.3857C149.667 35.9422 149.266 36.4411 148.79 36.9017C148.333 37.3622 147.837 37.746 147.303 38.0723C146.77 38.3985 146.217 38.6479 145.626 38.8398C145.035 39.0125 144.426 39.1085 143.797 39.1085C142.729 39.1085 141.776 38.9166 140.938 38.5136C140.08 38.1298 139.356 37.5541 138.765 36.8249C138.174 36.0957 137.717 35.1938 137.393 34.1384C137.069 33.083 136.917 31.874 136.917 30.5499V22.4519C136.917 22.2408 136.993 22.0297 137.164 21.857Z" fill="#E6E6E6"/>
<path d="M156.26 16.7718C156.47 16.5415 156.737 16.4456 157.061 16.4456C157.385 16.4456 157.671 16.5607 157.899 16.7718C158.128 17.0021 158.223 17.2707 158.223 17.6161C158.223 17.9232 158.109 18.1918 157.899 18.4221C157.671 18.6524 157.404 18.7483 157.061 18.7483C156.737 18.7483 156.47 18.6332 156.26 18.4221C156.051 18.1918 155.936 17.9232 155.936 17.6161C155.936 17.2707 156.051 16.9829 156.26 16.7718ZM157.956 38.245C157.956 38.4944 157.88 38.7055 157.709 38.8974C157.537 39.0701 157.328 39.1661 157.08 39.1661C156.832 39.1661 156.622 39.0701 156.451 38.8974C156.279 38.7247 156.184 38.4944 156.184 38.245V22.5095C156.184 22.26 156.279 22.0489 156.451 21.8762C156.622 21.7035 156.832 21.6076 157.08 21.6076C157.328 21.6076 157.537 21.7035 157.709 21.8762C157.88 22.0489 157.956 22.26 157.956 22.5095V38.245Z" fill="#E6E6E6"/>
<path d="M178.959 38.2832C178.959 38.5327 178.864 38.7437 178.692 38.8973C178.521 39.07 178.311 39.1467 178.063 39.1467C177.816 39.1467 177.606 39.07 177.434 38.8973C177.263 38.7246 177.187 38.5135 177.187 38.2832V35.8077C176.367 36.9015 175.357 37.7651 174.137 38.3983C172.918 39.0316 171.584 39.3578 170.135 39.3578C168.934 39.3578 167.791 39.1275 166.705 38.667C165.637 38.2064 164.703 37.5732 163.903 36.7672C163.103 35.9613 162.474 35.021 161.997 33.9463C161.54 32.8717 161.311 31.7203 161.311 30.4922C161.311 29.2641 161.54 28.1127 161.997 27.0189C162.455 25.9443 163.083 25.004 163.903 24.198C164.703 23.3921 165.637 22.7588 166.705 22.2982C167.772 21.8377 168.915 21.6074 170.135 21.6074C171.584 21.6074 172.918 21.9145 174.137 22.5477C175.357 23.181 176.367 24.0445 177.187 25.1383V16.196C177.187 15.9465 177.263 15.7354 177.434 15.5627C177.606 15.39 177.816 15.3132 178.063 15.3132C178.311 15.3132 178.521 15.39 178.692 15.5627C178.864 15.7354 178.959 15.9465 178.959 16.196V38.2832ZM163.655 33.2171C164.017 34.0807 164.513 34.8291 165.161 35.4623C165.79 36.0956 166.533 36.6137 167.391 36.9975C168.248 37.3813 169.163 37.5732 170.154 37.5732C171.145 37.5732 172.079 37.3813 172.937 36.9975C173.794 36.6137 174.538 36.1148 175.167 35.4623C175.795 34.8291 176.291 34.0807 176.653 33.2171C177.015 32.3536 177.206 31.4325 177.206 30.473C177.206 29.4944 177.015 28.5732 176.653 27.7097C176.291 26.8462 175.795 26.0978 175.147 25.4645C174.519 24.8313 173.775 24.3132 172.918 23.9486C172.06 23.584 171.145 23.3921 170.154 23.3921C169.163 23.3921 168.248 23.584 167.391 23.9486C166.533 24.3132 165.79 24.8121 165.161 25.4645C164.532 26.0978 164.017 26.8462 163.655 27.7097C163.293 28.5732 163.103 29.4944 163.103 30.473C163.103 31.4325 163.274 32.3536 163.655 33.2171Z" fill="#E6E6E6"/>
<path d="M184.296 31.3172C184.372 32.2191 184.601 33.0443 184.982 33.8119C185.363 34.5794 185.878 35.2511 186.488 35.8268C187.097 36.4025 187.803 36.8438 188.603 37.17C189.403 37.4963 190.261 37.669 191.157 37.669C192.224 37.669 193.215 37.4579 194.13 37.0165C195.045 36.5752 195.788 35.9995 196.36 35.2511C196.665 35.0016 196.951 34.9249 197.256 35.0208C197.408 35.0784 197.541 35.1743 197.637 35.347C197.77 35.5005 197.846 35.7116 197.846 35.9419C197.846 36.1722 197.751 36.3833 197.522 36.5944C196.798 37.4003 195.921 38.072 194.854 38.5901C193.787 39.1082 192.567 39.3768 191.157 39.3768C189.937 39.3768 188.794 39.1466 187.726 38.686C186.659 38.2255 185.725 37.5922 184.925 36.7863C184.124 35.9803 183.495 35.04 183.019 33.9654C182.542 32.8908 182.333 31.7394 182.333 30.4921C182.333 29.2447 182.561 28.1125 183.019 27.0379C183.476 25.9633 184.105 25.023 184.925 24.2171C185.725 23.4111 186.659 22.7778 187.726 22.3173C188.794 21.8567 189.937 21.6265 191.157 21.6265C192.358 21.6265 193.501 21.8567 194.587 22.3173C195.674 22.7778 196.588 23.4111 197.389 24.1979C198.189 25.0038 198.818 25.9441 199.295 27.0187C199.771 28.0934 200 29.2447 200 30.4537C200 30.7031 199.924 30.9142 199.752 31.0677C199.6 31.2213 199.39 31.3172 199.142 31.3172H184.296ZM198.189 29.8012C198.132 28.8993 197.904 28.055 197.522 27.2682C197.141 26.4814 196.627 25.7906 195.998 25.2149C195.369 24.6392 194.645 24.1787 193.825 23.8333C193.006 23.507 192.129 23.3343 191.214 23.3343C190.28 23.3343 189.423 23.507 188.603 23.8333C187.783 24.1595 187.059 24.6392 186.449 25.2149C185.84 25.8098 185.325 26.5006 184.944 27.2874C184.563 28.0742 184.334 28.9185 184.277 29.8204H198.189V29.8012Z" fill="#E6E6E6"/>
<path d="M22.165 45.4408C21.4026 45.4408 20.6784 45.0762 20.2401 44.4621C19.3634 43.4067 9.05273 31.3365 9.05273 22.989C9.05273 15.6969 14.9227 9.76733 22.184 9.76733C29.4453 9.76733 35.3153 15.6777 35.3153 22.989C35.3153 31.3365 25.0237 43.4067 24.1089 44.443C23.6515 45.057 22.9273 45.4408 22.165 45.4408Z" fill="#E6E6E6"/>
<path d="M17.8959 56.9739L17.8006 56.8588C13.2838 51.4857 10.0819 46.7843 8.19514 43.7907C2.76348 35.1937 0 27.9784 0 22.2983C0 10.017 9.94852 0 22.165 0C34.1147 0 43.8726 9.55642 44.3109 21.4732L44.33 22.164L44.3491 22.7397C44.2919 28.1703 39.2033 40.4709 37.1259 40.4709C37.0497 40.4709 36.9734 40.4709 36.8972 40.4517C35.5822 40.279 33.257 39.1852 34.5149 36.94C35.2201 35.6735 36.9734 33.9272 37.7929 31.5285C39.108 27.7098 38.0026 24.5627 41.2044 24.5627V21.454C40.7661 11.2835 32.3994 3.12791 22.1841 3.12791C11.6828 3.12791 3.14465 11.7248 3.14465 22.2983C3.14465 27.2876 5.81283 34.1383 10.8443 42.0828C12.6929 44.9996 15.8185 49.5667 20.202 54.8055L20.3354 54.959C20.3544 54.9974 20.3926 55.0742 20.4307 55.1317C20.8309 56.4558 19.5349 57.6456 18.2771 57.1083L17.8959 56.9739Z" fill="#E6E6E6"/>
</svg>
