<svg width="182" height="33" viewBox="0 0 182 33" fill="none" xmlns="http://www.w3.org/2000/svg">
<path d="M20.7275 32.2998C20.2881 32.2998 19.8649 32.2184 19.458 32.0557C19.0674 31.8929 18.7256 31.665 18.4326 31.3721C17.7979 30.7699 17.4805 30.0212 17.4805 29.126V20.2881C17.4805 19.5719 17.3665 18.8965 17.1387 18.2617C16.9271 17.627 16.6178 17.0736 16.2109 16.6016C15.804 16.1296 15.3076 15.7633 14.7217 15.5029C14.1357 15.2425 13.4928 15.1123 12.793 15.1123C12.0768 15.1123 11.3525 15.2344 10.6201 15.4785C9.8877 15.7227 9.21224 16.0645 8.59375 16.5039C7.95898 16.9596 7.44629 17.4967 7.05566 18.1152C6.68131 18.7174 6.49414 19.3522 6.49414 20.0195V29.0283C6.49414 29.4678 6.41276 29.8828 6.25 30.2734C6.08724 30.6641 5.85938 31.0059 5.56641 31.2988C4.93164 31.9336 4.16667 32.251 3.27148 32.251C2.83203 32.251 2.40885 32.1696 2.00195 32.0068C1.59505 31.8278 1.24512 31.5918 0.952148 31.2988C0.65918 31.0059 0.423177 30.6641 0.244141 30.2734C0.0813802 29.8665 0 29.4515 0 29.0283V3.27149C0 2.83203 0.0813802 2.40885 0.244141 2.00195C0.423177 1.59505 0.667318 1.24512 0.976562 0.952148C1.26953 0.65918 1.61133 0.431315 2.00195 0.268555C2.40885 0.0895182 2.83203 0 3.27148 0C3.69466 0 4.10156 0.0895182 4.49219 0.268555C4.89909 0.431315 5.24902 0.65918 5.54199 0.952148C5.83496 1.24512 6.06283 1.59505 6.22559 2.00195C6.40462 2.40885 6.49414 2.83203 6.49414 3.27149V11.2793C7.42188 10.4655 8.41471 9.83073 9.47266 9.375C10.5469 8.91927 11.6536 8.69141 12.793 8.69141C14.3392 8.69141 15.7959 8.99251 17.1631 9.59473C18.5465 10.1807 19.751 11.0107 20.7764 12.085C21.7855 13.1429 22.5667 14.3799 23.1201 15.7959C23.6898 17.2119 23.9746 18.7093 23.9746 20.2881V29.126C23.9746 30.0212 23.6572 30.7699 23.0225 31.3721C22.3714 31.9906 21.6064 32.2998 20.7275 32.2998Z" fill="#E5E5E5"/>
<path d="M48.4043 32.5195C46.793 32.5195 45.263 32.2184 43.8145 31.6162C42.3822 30.9977 41.1126 30.1351 40.0059 29.0283C38.8991 27.9378 38.0365 26.6683 37.418 25.2197C36.7995 23.7712 36.4902 22.2412 36.4902 20.6299C36.4902 19.0186 36.7995 17.4886 37.418 16.04C38.0365 14.5752 38.8991 13.2894 40.0059 12.1826C41.1126 11.0758 42.3822 10.2214 43.8145 9.61914C45.263 9.00065 46.793 8.69141 48.4043 8.69141C50.0156 8.69141 51.5456 9.00065 52.9941 9.61914C54.459 10.2376 55.7367 11.0921 56.8271 12.1826C57.9176 13.2894 58.7721 14.5752 59.3906 16.04C60.0091 17.4886 60.3184 19.0186 60.3184 20.6299C60.3184 22.2412 60.0091 23.7712 59.3906 25.2197C58.7884 26.652 57.9339 27.9216 56.8271 29.0283C55.7367 30.1188 54.459 30.9733 52.9941 31.5918C51.5456 32.2103 50.0156 32.5195 48.4043 32.5195ZM48.4043 26.001C49.1367 26.001 49.8366 25.8626 50.5039 25.5859C51.1712 25.3092 51.749 24.9268 52.2373 24.4385C52.7419 23.9339 53.1325 23.3561 53.4092 22.7051C53.6859 22.054 53.8242 21.3623 53.8242 20.6299C53.8242 19.8975 53.6859 19.2057 53.4092 18.5547C53.1325 17.9036 52.7419 17.3258 52.2373 16.8213C51.749 16.333 51.1712 15.9505 50.5039 15.6738C49.8366 15.3971 49.1367 15.2588 48.4043 15.2588C47.6882 15.2588 46.9964 15.3971 46.3291 15.6738C45.6781 15.9505 45.1084 16.333 44.6201 16.8213C44.1156 17.3258 43.7168 17.9036 43.4238 18.5547C43.1471 19.2057 43.0088 19.8975 43.0088 20.6299C43.0088 21.3623 43.1471 22.054 43.4238 22.7051C43.7168 23.3561 44.1156 23.9339 44.6201 24.4385C45.1084 24.9268 45.6781 25.3092 46.3291 25.5859C46.9964 25.8626 47.6882 26.001 48.4043 26.001Z" fill="#E5E5E5"/>
<path d="M78.7926 4.25098C78.7926 2.50098 77.3426 1.05098 75.5926 1.05098C73.8426 1.05098 72.3926 2.50098 72.3926 4.25098V29.051C72.3926 30.801 73.8426 32.251 75.5926 32.251C77.3426 32.251 78.7926 30.801 78.7926 29.051V4.25098Z" fill="#E5E5E5"/>
<path d="M102.879 32.5195C101.268 32.5195 99.7295 32.2103 98.2646 31.5918C96.7998 30.9733 95.514 30.1188 94.4072 29.0283C93.3005 27.9216 92.4297 26.652 91.7949 25.2197C91.1764 23.7712 90.8672 22.2412 90.8672 20.6299C90.8672 19.0023 91.1764 17.4642 91.7949 16.0156C92.4297 14.5508 93.3005 13.265 94.4072 12.1582C95.514 11.0677 96.7917 10.2214 98.2402 9.61914C99.7051 9.00065 101.251 8.69141 102.879 8.69141C104.474 8.69141 105.996 8.99251 107.444 9.59473C108.893 10.1969 110.171 11.0352 111.277 12.1094C112.368 13.1999 113.23 14.4694 113.865 15.918C114.5 17.3503 114.834 18.8639 114.866 20.459C114.866 21.3867 114.565 22.1354 113.963 22.7051C113.377 23.2585 112.612 23.5352 111.668 23.5352H98.1182C98.6553 24.3815 99.3389 25.0488 100.169 25.5371C100.999 26.0254 101.902 26.2695 102.879 26.2695C103.481 26.2695 103.978 26.2207 104.368 26.123C104.759 26.0254 105.117 25.8789 105.442 25.6836C106.061 25.293 106.688 25.0977 107.322 25.0977C108.201 25.0977 108.958 25.4313 109.593 26.0986C109.869 26.4079 110.089 26.766 110.252 27.1729C110.415 27.5798 110.496 28.0029 110.496 28.4424C110.496 29.012 110.333 29.541 110.008 30.0293C109.699 30.5176 109.235 30.9408 108.616 31.2988C107.2 32.1126 105.288 32.5195 102.879 32.5195ZM108.201 18.1152C107.745 17.1224 107.054 16.3411 106.126 15.7715C105.215 15.1855 104.173 14.8926 103.001 14.8926C101.829 14.8926 100.804 15.1855 99.9248 15.7715C99.0459 16.3574 98.3786 17.1387 97.9229 18.1152H108.201Z" fill="#E5E5E5"/>
<path d="M129.726 32.251C129.286 32.251 128.863 32.1696 128.456 32.0068C128.049 31.8441 127.691 31.6162 127.382 31.3232C126.715 30.7048 126.381 29.9561 126.381 29.0772V20.2881C126.381 18.7256 126.682 17.2363 127.284 15.8203C127.886 14.4043 128.725 13.1592 129.799 12.085C130.873 11.0107 132.11 10.1807 133.51 9.59473C134.91 8.99251 136.391 8.69141 137.953 8.69141C139.532 8.69141 141.037 8.99251 142.47 9.59473C143.918 10.1807 145.196 11.0107 146.303 12.085C147.41 13.1592 148.272 14.4043 148.891 15.8203C149.525 17.2363 149.843 18.7256 149.843 20.2881V29.0772C149.843 29.9723 149.542 30.721 148.939 31.3232C148.646 31.6162 148.305 31.8441 147.914 32.0068C147.523 32.1696 147.108 32.251 146.669 32.251C146.213 32.251 145.782 32.1696 145.375 32.0068C144.984 31.8441 144.643 31.6162 144.35 31.3232C143.699 30.721 143.373 29.9723 143.373 29.0772V20.3125C143.357 19.6289 143.202 18.9779 142.909 18.3594C142.616 17.7246 142.209 17.1712 141.688 16.6992C141.184 16.2272 140.606 15.861 139.955 15.6006C139.304 15.3402 138.637 15.21 137.953 15.21C137.27 15.21 136.618 15.3402 136 15.6006C135.382 15.8447 134.853 16.1865 134.413 16.626C133.957 17.0817 133.591 17.6188 133.314 18.2373C133.054 18.8395 132.916 19.4824 132.899 20.166V29.0772C132.899 29.9886 132.59 30.7373 131.972 31.3232C131.353 31.9417 130.604 32.251 129.726 32.251Z" fill="#E5E5E5"/>
<path d="M165.239 32.251C164.393 32.251 163.685 31.9417 163.115 31.3232C162.546 30.7048 162.261 29.9072 162.261 28.9307C162.261 27.9704 162.529 27.2054 163.066 26.6357C163.62 26.0498 164.344 25.7568 165.239 25.7568H173.979C174.354 25.7568 174.655 25.6836 174.883 25.5371C175.192 25.3418 175.347 25.0407 175.347 24.6338C175.347 24.2106 175.192 23.9176 174.883 23.7549C174.704 23.6572 174.395 23.6084 173.955 23.6084H169.976C168.934 23.6084 167.965 23.4049 167.07 22.998C166.175 22.5749 165.402 21.9971 164.751 21.2647C164.1 20.5322 163.587 19.7022 163.213 18.7744C162.855 17.8467 162.676 16.8864 162.676 15.8936C162.676 14.9333 162.863 14.0137 163.237 13.1348C163.628 12.2396 164.157 11.4665 164.824 10.8154C165.508 10.1481 166.289 9.62728 167.168 9.25293C168.047 8.87858 168.983 8.69141 169.976 8.69141H177.544C178.472 8.69141 179.229 8.95996 179.814 9.49707C180.449 10.083 180.767 10.8643 180.767 11.8408C180.767 12.7848 180.474 13.5742 179.888 14.209C179.627 14.5182 179.302 14.7624 178.911 14.9414C178.537 15.1042 178.146 15.1855 177.739 15.1855H170.098C169.854 15.1855 169.634 15.2751 169.438 15.4541C169.259 15.6331 169.17 15.861 169.17 16.1377C169.17 16.4795 169.259 16.7236 169.438 16.8701C169.618 17.0166 169.821 17.0898 170.049 17.0898H174.492C175.534 17.0898 176.51 17.2933 177.422 17.7002C178.333 18.1071 179.123 18.6768 179.79 19.4092C180.441 20.1253 180.946 20.9473 181.304 21.875C181.662 22.8027 181.841 23.7712 181.841 24.7803C181.841 25.7731 181.67 26.7171 181.328 27.6123C180.986 28.4912 180.498 29.2725 179.863 29.9561C179.212 30.6559 178.447 31.2093 177.568 31.6162C176.689 32.0068 175.737 32.2184 174.712 32.251H165.239Z" fill="#E5E5E5"/>
</svg>
