<svg width="200" height="98" viewBox="0 0 200 98" fill="none" xmlns="http://www.w3.org/2000/svg">
<path d="M93.5221 28.2374C93.5221 20.0641 93.5221 11.8689 93.5221 3.69555C93.5221 3.14774 93.5221 2.59993 93.544 2.05212C93.5878 0.583989 94.048 0.101917 95.538 0.0361794C96.6337 -0.00764541 97.7293 0.0142673 98.8249 0.0142673C103.142 0.0142673 107.436 0.0142673 111.753 0.0142673C113.419 0.0142673 113.682 0.189567 114.12 1.81109C115.391 6.45651 116.048 11.2334 116.968 15.9446C118.393 23.351 119.773 30.7574 121.154 38.1857C121.219 38.602 121.307 39.0183 121.833 39.0183C122.468 38.9964 122.556 38.4924 122.644 38.0323C123.389 34.088 124.068 30.1438 124.879 26.2215C126.522 18.1139 127.705 9.91867 129.678 1.87682C130.094 0.211477 130.379 0.0361794 132.11 0.0361794C137.259 0.0361794 142.409 0.0361794 147.558 0.0361794C149.903 0.0361794 150.297 0.40869 150.297 2.77523C150.297 19.9107 150.297 37.0243 150.275 54.1598C150.275 55.7375 149.903 56.11 148.347 56.11C145.498 56.11 142.65 56.11 139.801 56.0881C138.158 56.0881 137.982 55.9128 137.982 54.2694C137.982 42.5462 137.982 30.8231 137.982 19.1C137.982 18.9466 137.982 18.8151 137.982 18.6617C138.004 17.9605 137.939 17.2593 137.062 17.1936C136.251 17.1279 135.945 17.7414 135.791 18.4426C135.506 19.845 135.243 21.2255 134.958 22.6279C132.877 32.9048 131.124 43.2693 128.582 53.4586C127.793 56.5921 127.968 56.11 125.207 56.11C122.644 56.1319 120.102 56.0443 117.538 56.1319C116.311 56.1758 115.763 55.6937 115.478 54.5761C113.879 48.5502 112.739 42.4148 111.512 36.3012C110.351 30.5602 109.277 24.7753 108.138 19.0342C107.984 18.2016 107.94 17.084 106.691 17.2374C105.464 17.3908 105.837 18.5083 105.837 19.2753C105.815 30.845 105.837 42.4367 105.815 54.0064C105.815 55.9785 105.683 56.11 103.711 56.11C101.016 56.11 98.299 56.11 95.6038 56.1319C93.8727 56.1319 93.544 55.8251 93.544 54.116C93.544 45.4825 93.544 36.849 93.5221 28.2374C93.544 28.2374 93.5221 28.2374 93.5221 28.2374Z" fill="#E6E6E6"/>
<path d="M0.0219129 27.9749C0.0219129 19.5386 0.0219129 11.1023 0.0219129 2.66605C0.0219129 2.16206 0.0219127 1.63617 0.0876499 1.13218C0.1753 0.409071 0.613547 0.0146484 1.35857 0.0146484C5.74105 0.0146484 10.1235 0.0146484 14.506 0.0146484C15.6016 0.0146484 15.7769 0.737758 15.7769 1.65808C15.755 7.42104 15.7769 13.2059 15.755 18.9689C15.755 21.686 15.755 21.686 18.4502 21.686C21.2989 21.686 24.1475 21.686 26.9961 21.686C29.2311 21.686 29.2969 21.6203 29.2969 19.3195C29.2969 13.5127 29.2969 7.7059 29.2969 1.89911C29.2969 0.21186 29.516 0.0146484 31.1813 0.0146484C34.9722 0.0146484 38.785 0.0146484 42.5758 0.0146484C44.8109 0.0146484 45.03 0.211858 45.03 2.42501C45.0519 6.74175 45.0519 11.0366 45.0519 15.3533C45.0519 27.6681 45.03 39.961 45.03 52.2757C45.03 53.0427 44.9643 53.8096 44.9423 54.5765C44.9204 55.5626 44.4164 56.0885 43.4523 56.0885C39.2451 56.1104 35.0598 56.1104 30.8527 56.0885C29.9981 56.0885 29.4941 55.6064 29.4064 54.7518C29.3407 54.204 29.3407 53.6562 29.3407 53.1084C29.3407 47.0387 29.3188 40.9908 29.3188 34.9211C29.3188 33.1681 29.0558 32.9052 27.3029 32.9052C24.0598 32.9052 20.7949 32.9052 17.5518 32.9052C16.0618 32.9052 15.755 33.2119 15.7331 34.702C15.7331 40.7717 15.7331 46.8195 15.7112 52.8893C15.7112 56.0008 15.6016 56.1104 12.5339 56.1104C9.07174 56.1104 5.58766 56.1104 2.1255 56.1104C0.438248 56.1104 0 55.6722 0 53.963C0.0219124 45.2857 0.0438253 36.6303 0.0219129 27.9749Z" fill="#E6E6E6"/>
<path d="M50.793 28.106C50.793 22.7813 50.793 17.4347 50.793 12.11C50.793 9.78724 51.1875 7.53027 52.2393 5.42667C54.0142 1.87687 56.9504 0.10196 60.8508 0.0362224C65.8469 -0.0295148 70.8648 0.0143103 75.8608 0.0143103C81.2294 0.0143103 84.9326 3.01631 86.072 8.25337C86.3569 9.5462 86.5322 10.839 86.5322 12.1538C86.5322 22.7813 86.5541 33.4088 86.5103 44.0363C86.4883 47.0602 85.8967 49.9965 83.9684 52.4726C82.1497 54.8172 79.6955 56.0224 76.7811 56.0881C71.3469 56.1758 65.8907 56.1539 60.4564 56.1101C55.9863 56.0662 52.305 52.7575 51.2532 48.0025C50.9026 46.4248 50.7711 44.8252 50.7711 43.2256C50.8149 38.1857 50.793 33.1459 50.793 28.106ZM72.9684 28.1279C72.9684 23.1319 72.9684 18.114 72.9684 13.1179C72.9684 11.4964 72.2234 10.7733 70.6457 10.7295C69.4405 10.7076 68.2353 10.7076 67.0301 10.7295C64.9923 10.7514 64.3787 11.3868 64.3787 13.4466C64.3787 15.9008 64.3787 18.3331 64.3787 20.7873C64.3787 28.1279 64.3787 35.4686 64.3787 42.8092C64.3787 44.7375 65.0361 45.3949 66.9206 45.4168C68.0819 45.4387 69.2652 45.4387 70.4265 45.4168C72.2891 45.3949 72.9684 44.7156 72.9684 42.8092C72.9684 37.9228 72.9684 33.0363 72.9684 28.1279Z" fill="#E6E6E6"/>
<path d="M178.082 0.0144043C181.04 0.0144043 183.998 0.0144043 186.957 0.0144043C188.644 0.0144043 189.192 0.365002 189.564 2.05226C190.55 6.56621 191.471 11.1021 192.347 15.6599C194.012 24.14 195.656 32.6201 197.299 41.1002C198.176 45.6141 199.052 50.1062 199.929 54.6201C200.148 55.6938 199.885 56.0882 198.811 56.0882C195.196 56.1321 191.58 56.1321 187.965 56.1102C186.803 56.1102 186.19 55.4309 185.992 54.2914C185.379 50.9169 184.875 47.5424 184.152 44.1898C183.911 43.0942 183.407 42.7655 182.355 42.7874C179.66 42.8312 176.943 42.8312 174.247 42.7874C173.152 42.7655 172.692 43.2257 172.451 44.2336C171.706 47.6081 171.267 51.0484 170.72 54.4667C170.522 55.6938 170.128 56.0882 168.857 56.1102C165.285 56.1321 161.692 56.1321 158.12 56.1102C156.893 56.1102 156.586 55.6938 156.827 54.4667C159.544 40.2675 162.239 26.0463 164.957 11.8471C165.57 8.62598 166.162 5.40486 166.775 2.18373C167.104 0.452653 167.564 0.0582284 169.361 0.0582284C172.231 0.036316 175.168 0.0363167 178.082 0.0144043C178.082 0.0363167 178.082 0.0363167 178.082 0.0144043ZM177.206 32.5105C178.016 32.5105 178.805 32.5324 179.616 32.5105C180.69 32.4886 181.018 32.0503 180.843 30.9766C180.733 30.3631 180.646 29.7495 180.536 29.136C179.638 23.8989 178.739 18.6619 177.819 13.4248C177.753 13.0085 177.841 12.2853 177.184 12.3511C176.614 12.3949 176.702 13.0742 176.636 13.5124C176.351 15.0244 176.11 16.5144 175.847 18.0264C175.102 22.3651 174.335 26.7037 173.59 31.0424C173.415 32.0503 173.787 32.4667 174.817 32.4886C175.606 32.5324 176.417 32.5105 177.206 32.5105Z" fill="#E6E6E6"/>
<path d="M100.337 79.4028C99.7233 83.2813 98.7154 86.9626 97.9046 90.7096C97.5321 92.4188 97.1158 94.128 96.7652 95.8372C96.6337 96.4726 96.3707 96.7575 95.6695 96.6917C94.8369 96.626 93.9823 96.626 93.1496 96.6917C92.295 96.7575 92.0978 96.4945 92.295 95.6399C93.1715 92.112 94.0042 88.5622 94.8369 85.0124C96.1516 79.4467 97.4663 73.8809 98.7811 68.3152C98.8468 68.0084 98.9564 67.7016 99.1317 67.11C102.594 74.4068 106.253 81.3311 109.431 88.6061C112.827 81.4845 116.18 74.4287 119.686 67.0662C120.168 69.0602 120.584 70.7036 120.978 72.369C122.863 80.126 124.725 87.8829 126.632 95.618C126.829 96.4288 126.785 96.7356 125.843 96.6698C124.725 96.5822 123.345 96.9985 122.534 96.4726C121.701 95.9248 121.855 94.4128 121.592 93.3391C120.759 89.9427 119.97 86.5463 119.203 83.128C118.919 81.9009 118.809 80.6299 118.612 79.4028C116.092 85.5383 112.498 91.1698 109.474 97.4148C106.407 91.2794 103.185 85.5383 100.337 79.4028Z" fill="#E6E6E6"/>
<path d="M54.0141 81.5503C55.7014 81.5503 57.3667 81.5503 59.054 81.5503C59.4046 81.5503 59.799 81.4407 59.8209 82.0324C59.9962 85.0125 59.9524 87.9487 58.6157 90.7097C56.8408 94.4129 53.7293 96.3412 49.8289 97.0204C46.5201 97.6121 43.1894 97.5244 39.9902 96.3412C34.2053 94.1938 31.1595 89.8332 30.4583 83.8292C29.9324 79.3591 30.8746 75.1738 33.9643 71.6897C37.7989 67.373 42.7073 65.9706 48.295 66.5184C51.7133 66.8471 54.5181 68.4248 56.8408 70.9447C57.301 71.4487 57.4105 71.7554 56.7532 72.1937C55.9862 72.6758 55.2412 73.2455 54.5619 73.8371C54.036 74.2973 53.7731 74.1439 53.3348 73.7057C49.9603 70.3969 45.9723 70.0244 41.787 71.6678C37.777 73.2455 35.7611 76.4666 35.4762 80.7395C35.1914 84.8152 36.2432 88.4089 39.7053 90.8412C43.54 93.5364 47.7033 93.5583 51.8667 91.6738C53.9484 90.7316 55.0002 88.9129 55.2193 86.634C55.285 85.9766 55.1536 85.6479 54.3647 85.6698C52.6117 85.7356 50.8587 85.6479 49.1057 85.7137C48.3169 85.7356 47.9444 85.5822 48.032 84.7057C48.1416 83.6977 47.6157 82.4049 48.2292 81.7475C48.8647 81.0901 50.1575 81.5941 51.1655 81.5503C52.1077 81.5284 53.05 81.5503 54.0141 81.5503Z" fill="#E6E6E6"/>
<path d="M129.765 81.8571C129.765 77.2555 129.787 72.6539 129.743 68.0523C129.743 67.3072 129.941 67.0443 130.708 67.0662C135.594 67.11 140.502 67.11 145.389 67.0662C146.156 67.0662 146.441 67.2634 146.353 68.0303C146.243 69.0602 146.813 70.4188 146.112 71.0762C145.498 71.6678 144.162 71.2296 143.154 71.2515C140.634 71.2734 138.114 71.2734 135.594 71.2515C134.893 71.2515 134.63 71.4049 134.652 72.1499C134.696 74.0124 134.696 75.875 134.652 77.7375C134.63 78.5045 134.871 78.7236 135.638 78.7236C138.881 78.6798 142.146 78.7236 145.389 78.6798C146.156 78.6798 146.441 78.877 146.353 79.6439C146.243 80.6738 146.791 82.0324 146.112 82.6897C145.498 83.2814 144.162 82.8431 143.154 82.865C140.634 82.887 138.114 82.9089 135.594 82.8431C134.783 82.8212 134.63 83.1499 134.652 83.873C134.696 86.3491 134.696 88.8471 134.652 91.3232C134.63 92.0902 134.871 92.3093 135.638 92.3093C138.881 92.2655 142.146 92.3093 145.389 92.2655C146.156 92.2655 146.441 92.4408 146.375 93.2296C146.265 94.3471 146.835 95.7934 146.134 96.4946C145.477 97.13 144.052 96.6699 142.957 96.6699C138.903 96.6918 134.849 96.6479 130.795 96.6918C129.984 96.6918 129.743 96.4946 129.743 95.6619C129.787 91.0603 129.765 86.4587 129.765 81.8571Z" fill="#E6E6E6"/>
<path d="M159.654 97.3274C156.915 97.3055 154.373 96.7138 152.357 94.676C151.415 93.7118 150.845 92.5505 150.407 91.3015C150.232 90.7756 150.363 90.4907 150.867 90.2935C151.765 89.8991 152.664 89.4827 153.54 89.0445C153.957 88.8254 154.11 88.913 154.307 89.3732C155.578 92.2875 158.164 93.5146 161.275 92.7696C162.875 92.3752 163.883 91.411 164.321 89.8114C164.781 88.1461 164.256 86.7875 163.007 85.6919C161.955 84.7497 160.728 84.1361 159.457 83.5445C157.726 82.7556 156.082 81.8134 154.505 80.7616C151.59 78.8114 150.582 76.0285 151.24 72.6759C151.875 69.4986 153.979 67.5923 157.046 66.8034C159.807 66.1022 162.546 66.2775 165.154 67.5265C166.534 68.2058 167.564 69.2576 168.266 70.6381C168.528 71.1421 168.463 71.4488 167.915 71.646C167.674 71.7337 167.433 71.8433 167.236 71.9747C165.811 72.9389 164.628 73.3333 163.226 71.6241C162.02 70.156 159.238 70.2217 157.638 71.2955C155.973 72.413 155.666 74.7138 156.981 76.2915C157.989 77.4967 159.325 78.2636 160.706 78.8991C162.415 79.7098 164.124 80.5425 165.724 81.5505C168.879 83.5445 169.843 86.4588 169.295 89.9429C168.77 93.2517 166.863 95.4867 163.708 96.6262C162.415 97.174 161.056 97.3712 159.654 97.3274Z" fill="#E6E6E6"/>
<path d="M75.269 67.0662C80.0897 77.0144 84.8009 86.7435 89.6216 96.6698C87.9343 96.6698 86.3785 96.6698 84.8447 96.6698C84.3626 96.6698 84.3188 96.2097 84.1654 95.9029C83.267 93.865 82.3686 91.8491 81.4921 89.7893C81.273 89.2634 81.0319 89.0005 80.3965 89.0005C77 89.0443 73.6036 89.0443 70.2072 89.0005C69.506 89.0005 69.265 89.3073 69.0239 89.8551C68.1255 91.8929 67.2052 93.9089 66.3287 95.9467C66.0877 96.4945 65.8028 96.7136 65.1893 96.6917C64.1375 96.6479 63.0637 96.626 62.012 96.6917C61.0697 96.7575 60.9602 96.4945 61.3765 95.6838C63.5896 91.1698 65.7809 86.6339 67.9721 82.12C70.3825 77.1459 72.7929 72.1937 75.269 67.0662ZM75.3128 75.7216C74.3705 78.8989 72.8586 81.5064 71.6096 84.2455C71.4343 84.6399 71.1056 85.0782 71.9602 85.0782C74.2172 85.0562 76.4741 85.0562 78.753 85.0782C79.3008 85.0782 79.3885 84.9029 79.1474 84.4208C77.8546 81.616 76.3427 78.9208 75.3128 75.7216Z" fill="#E6E6E6"/>
</svg>
