<svg width="200" height="51" viewBox="0 0 200 51" fill="none" xmlns="http://www.w3.org/2000/svg">
<path fillRule="evenodd" clip-rule="evenodd" d="M18.0773 10.9861C14.4942 10.9954 10.9942 12.0666 8.01959 14.0643C5.045 16.062 2.72928 18.8966 1.36505 22.2099C0.000820747 25.5232 -0.350705 29.1665 0.354891 32.6795C1.06049 36.1925 2.79154 39.4175 5.32933 41.9471C7.86711 44.4767 11.0977 46.1973 14.613 46.8915C18.1283 47.5857 21.7705 47.2223 25.0793 45.8473C28.3882 44.4724 31.2152 42.1475 33.2033 39.1664C35.1913 36.1854 36.2511 32.6819 36.2488 29.0987C36.2395 24.2876 34.3201 19.6771 30.9126 16.2807C27.5051 12.8843 22.8884 10.9799 18.0773 10.9861ZM18.0773 45.3401C14.8687 45.3323 11.7343 44.3739 9.07001 42.5857C6.40576 40.7976 4.33117 38.2601 3.10828 35.2936C1.88539 32.3271 1.56904 29.0647 2.1992 25.9185C2.82937 22.7723 4.37776 19.8834 6.64883 17.6167C8.9199 15.35 11.8118 13.8072 14.9592 13.1831C18.1066 12.5591 21.3683 12.8817 24.3325 14.1103C27.2966 15.3389 29.8301 17.4184 31.6131 20.0861C33.3961 22.7538 34.3485 25.8901 34.3501 29.0987C34.3438 33.409 32.6261 37.5404 29.5746 40.5845C26.5231 43.6287 22.3876 45.3364 18.0773 45.3322V45.3401Z" fill="#E6E6E6"/>
<path d="M40.6428 42.4883H42.9613V28.5066C42.9613 23.4852 46.6098 19.876 51.3488 19.876C56.229 19.876 59.0262 23.1439 59.0262 28.1143V42.4726H61.3486V27.7024C61.3486 21.9199 57.7943 17.7497 51.6822 17.7497C47.2767 17.7497 44.5737 19.978 42.9613 22.8222V18.3185H40.6428V42.4883ZM70.0185 7.89111H72.3409V42.4883H70.0185V7.89111ZM84.4239 50.2167C87.884 50.2167 90.3476 48.4121 92.4778 43.3436L102.952 18.3185H100.391L91.6736 39.9305L81.6267 18.3185H78.9277L90.5281 42.3471C88.7274 46.5644 87.068 48.0355 84.5572 48.0355C83.1298 48.0896 81.7122 47.779 80.4381 47.1332L79.6299 49.1732C81.1277 49.8811 82.7673 50.238 84.4239 50.2167Z" fill="#E6E6E6"/>
<path d="M128.475 16.7727C129.153 15.7396 129.838 14.6608 130.531 13.5362C131.225 12.4103 131.853 11.3314 132.426 10.2997C132.999 9.26792 133.462 8.33817 133.826 7.51433C134.134 6.91149 134.32 6.25454 134.376 5.58028C134.406 4.63521 134.095 3.71085 133.501 2.97538C132.873 2.23442 132.088 1.64329 131.202 1.24532C130.169 0.773615 129.074 0.451312 127.95 0.288105C126.697 0.0962258 125.431 0.000485928 124.164 0.00172361C119.901 -0.0318415 115.648 0.424922 111.489 1.36302C107.854 2.18829 104.307 3.3601 100.897 4.86236C97.9506 6.15517 95.1376 7.73183 92.4973 9.57C90.3341 11.0764 88.2871 12.7432 86.3735 14.5562C84.9729 15.8544 83.7179 17.3014 82.6309 18.8715C81.7887 20.1635 81.3677 21.0933 81.3677 21.6608C81.3503 22.3424 81.5663 23.0095 81.9797 23.5517C82.3383 24.041 82.7953 24.4499 83.3213 24.7521C83.7219 25.004 84.1905 25.126 84.663 25.1013C85.0553 25.0581 85.275 24.8502 85.275 24.4697C85.275 23.7361 85.734 22.6729 86.6559 21.2724C87.8002 19.6136 89.1151 18.0792 90.5789 16.6942C92.498 14.8556 94.5515 13.1627 96.7224 11.6296C102.03 7.86277 107.981 5.09739 114.282 3.46968C117.775 2.57453 121.37 2.13413 124.976 2.15939C125.887 2.12465 126.796 2.24945 127.663 2.52816C128.214 2.70629 128.711 3.02072 129.107 3.44222C129.406 3.78079 129.603 4.19692 129.676 4.64267C129.743 5.04597 129.777 5.45397 129.778 5.86273C129.729 6.60555 129.535 7.3317 129.209 8.00078C128.772 8.99284 128.277 9.95828 127.726 10.8921C127.114 11.9382 126.435 13.0157 125.69 14.1246C124.945 15.2335 124.208 16.2797 123.481 17.2631C120.57 17.6116 117.686 18.1622 114.851 18.9107C112.627 19.4872 110.466 20.2849 108.401 21.292C106.892 22.0017 105.521 22.9741 104.353 24.1637C103.416 25.1811 102.948 26.218 102.948 27.2746C102.934 27.8623 103.069 28.444 103.341 28.9655C103.54 29.3722 103.831 29.7269 104.192 30.0012C104.31 30.0987 104.447 30.171 104.594 30.2135C104.741 30.256 104.895 30.2679 105.047 30.2483C105.309 30.1934 105.439 29.9619 105.439 29.5539C105.439 29.1616 105.785 28.5732 106.475 27.8239C107.384 26.8997 108.395 26.0811 109.488 25.3837C111.036 24.3758 112.664 23.4967 114.356 22.7553C116.526 21.7978 118.772 21.0274 121.073 20.4525C119.443 22.5709 117.809 24.6541 116.169 26.7019C114.529 28.7497 113.05 30.7374 111.732 32.6649C110.521 34.4131 109.453 36.2564 108.539 38.1767C107.784 39.6905 107.367 41.3505 107.319 43.0413C107.313 43.7162 107.41 44.388 107.605 45.0342C107.771 45.6122 108.025 46.1613 108.358 46.6623C108.641 47.0965 109.008 47.47 109.437 47.7607C109.807 48.0169 110.246 48.1538 110.696 48.153C110.816 48.1582 110.935 48.1394 111.047 48.0976C111.158 48.0558 111.261 47.9919 111.347 47.9098C111.512 47.741 111.625 47.5287 111.673 47.2978C111.73 47.0304 111.764 46.7588 111.775 46.4857V45.6305C111.775 44.1659 112.243 42.4293 113.18 40.4207C114.24 38.1854 115.436 36.0172 116.761 33.9281C118.21 31.6109 119.817 29.2035 121.583 26.7058C123.348 24.2081 125.07 21.7392 126.749 19.2991C129.578 18.8765 132.434 18.6719 135.294 18.6871C135.891 18.6728 136.488 18.7482 137.063 18.9107C137.463 19.0307 137.856 19.1734 138.24 19.3383C138.441 19.439 138.651 19.5217 138.868 19.5855C138.993 19.609 139.052 19.5031 139.052 19.2599C139.04 18.5521 138.748 17.8779 138.24 17.3847C137.696 16.8171 136.868 16.5321 135.757 16.5295C133.18 16.5295 130.752 16.6118 128.472 16.7766L128.475 16.7727Z" fill="#CE341F"/>
<path d="M156.49 25.1366C155.771 26.099 154.964 27.1635 154.07 28.3299C153.175 29.4964 152.226 30.6837 151.222 31.892C150.217 33.1003 149.248 34.1988 148.315 35.1874C147.51 36.0529 146.654 36.8678 145.749 37.6275C144.964 38.2683 144.347 38.5873 143.897 38.5847C143.273 38.5847 142.991 38.2866 143.042 37.6903C143.162 36.9086 143.428 36.1566 143.827 35.4737C144.282 34.5793 144.854 33.609 145.545 32.5629C146.239 31.5036 146.914 30.5229 147.581 29.6127C148.248 28.7026 148.813 27.9298 149.287 27.2903C149.57 26.9625 149.81 26.5999 150.001 26.2115C150.001 26.1055 149.919 25.9879 149.758 25.8662C149.565 25.7275 149.36 25.6055 149.146 25.5014C148.903 25.3798 148.644 25.266 148.362 25.1562C148.108 25.0517 147.845 24.9703 147.577 24.9129C147.856 24.1981 148.007 23.44 148.024 22.6729C148.031 22.0124 147.955 21.3536 147.801 20.7114C147.671 20.1535 147.429 19.6277 147.091 19.1657C146.755 18.7237 146.314 18.373 145.808 18.1457C145.187 17.8854 144.519 17.7609 143.846 17.7809C142.322 17.7766 140.813 18.0808 139.409 18.6753C137.984 19.2832 136.65 20.0845 135.443 21.0566C134.196 22.0615 133.063 23.2008 132.065 24.454C131.089 25.674 130.217 26.9746 129.46 28.3417C128.777 29.5814 128.22 30.8864 127.797 32.2372C127.433 33.3409 127.235 34.4924 127.209 35.6542C127.178 36.6841 127.358 37.7094 127.738 38.6671C128.045 39.4116 128.509 40.0808 129.1 40.6286C129.622 41.1106 130.239 41.4781 130.912 41.7074C131.5 41.9148 132.117 42.0248 132.74 42.0331C133.537 42.0322 134.318 41.8138 135 41.4015C135.685 41.0155 136.322 40.5507 136.899 40.0166C137.547 39.393 138.121 38.6967 138.609 37.9413C138.522 38.6347 138.563 39.3382 138.731 40.0166C138.877 40.5519 139.165 41.0373 139.566 41.4211C139.986 41.8448 140.657 42.0527 141.579 42.0527C142.285 42.0527 143.139 41.6865 144.14 40.9542C145.279 40.1048 146.349 39.1655 147.338 38.1453C148.465 37.0077 149.624 35.7261 150.814 34.3008C152.004 32.8754 153.129 31.4775 154.191 30.107C155.25 28.7392 156.214 27.4577 157.083 26.2625C157.951 25.0673 158.628 24.131 159.115 23.4536C159.165 23.3878 159.202 23.3127 159.223 23.2325C159.244 23.1523 159.248 23.0687 159.236 22.9867C159.228 22.921 159.203 22.8585 159.164 22.8049C159.125 22.7514 159.073 22.7087 159.013 22.6807C158.871 22.6244 158.715 22.6107 158.565 22.6415C158.469 22.6602 158.378 22.6988 158.298 22.7549C158.217 22.811 158.149 22.8833 158.099 22.9671C157.746 23.4483 157.209 24.1715 156.49 25.1366ZM131.449 38.5651C131.238 37.3674 131.293 36.1378 131.61 34.9638C131.997 33.3511 132.549 31.7826 133.258 30.2836C134.017 28.6305 134.948 27.0619 136.035 25.6034C137.038 24.2332 138.238 23.0195 139.598 22.0021C140.732 21.0964 142.132 20.5879 143.583 20.5545C143.824 20.5361 144.066 20.5811 144.284 20.6851C144.502 20.789 144.689 20.9482 144.827 21.1468C145.104 21.6063 145.24 22.1368 145.219 22.6729C145.223 23.5523 145.029 24.4212 144.65 25.215C144.301 25.963 143.887 26.6785 143.411 27.3531C143.036 27.8876 142.627 28.3973 142.187 28.8791C141.972 29.0751 141.787 29.301 141.638 29.55C141.698 29.7141 141.789 29.8656 141.904 29.9972C142.087 30.2519 142.284 30.4968 142.493 30.7308C141.763 31.7769 140.997 32.8558 140.194 33.9673C139.442 35.0073 138.634 36.0052 137.773 36.9567C137.051 37.7712 136.247 38.5087 135.372 39.1575C134.736 39.6707 133.953 39.9687 133.136 40.0088C132.222 40.0166 131.665 39.5302 131.449 38.5651Z" fill="#CE341F"/>
<path d="M167.985 40.9463C169.142 40.1052 170.225 39.1653 171.221 38.1374C172.348 36.9997 173.494 35.7182 174.658 34.2929C175.821 32.8675 176.92 31.4696 177.953 30.0991C178.983 28.7313 179.92 27.4498 180.762 26.2546C181.604 25.0593 182.268 24.123 182.755 23.4457C182.805 23.3799 182.842 23.3048 182.863 23.2246C182.884 23.1444 182.888 23.0608 182.876 22.9788C182.868 22.9131 182.843 22.8505 182.804 22.797C182.765 22.7435 182.713 22.7008 182.653 22.6728C182.511 22.6165 182.355 22.6028 182.206 22.6336C182.109 22.6523 182.018 22.6909 181.938 22.747C181.857 22.8031 181.789 22.8754 181.739 22.9592C181.386 23.4457 180.849 24.1714 180.13 25.1365C179.411 26.1016 178.604 27.166 177.71 28.3298C176.815 29.4963 175.866 30.6837 174.862 31.892C173.857 33.1003 172.887 34.1987 171.951 35.1873C171.146 36.0539 170.288 36.8689 169.381 37.6274C168.597 38.2682 167.979 38.5873 167.529 38.5847C166.988 38.5847 166.69 38.4081 166.635 38.055C166.615 37.5512 166.735 37.0518 166.98 36.6114C167.348 35.8643 167.777 35.1491 168.263 34.4733C168.833 33.6599 169.45 32.7929 170.115 31.8723C170.778 30.9465 171.456 29.9932 172.147 29.0007C172.837 28.0082 173.469 27.0392 174.042 26.0898C174.574 25.2091 175.042 24.2914 175.442 23.3437C175.778 22.6152 175.965 21.8269 175.991 21.0252C176.043 20.1811 175.831 19.3419 175.383 18.6243C174.975 18.0541 174.311 17.769 173.39 17.769C172.41 17.7966 171.452 18.0662 170.601 18.5536C169.552 19.1236 168.563 19.7993 167.651 20.5701C166.67 21.3877 165.734 22.2573 164.846 23.175C163.949 24.0982 163.149 24.9665 162.445 25.7799C161.742 26.5932 161.165 27.2641 160.715 27.7924C160.5 28.0864 160.247 28.3502 159.962 28.577C159.88 28.577 159.997 28.2788 160.307 27.6786C160.617 27.0784 160.986 26.3723 161.406 25.5445C161.825 24.7167 162.214 23.8497 162.583 22.9396C162.901 22.1937 163.08 21.3961 163.112 20.5858C163.133 20.0081 162.927 19.4451 162.539 19.0166C162.192 18.6308 161.77 18.3187 161.3 18.0986C160.918 17.913 160.503 17.8024 160.08 17.773C159.715 17.773 159.53 17.8083 159.53 17.9181C159.461 19.1184 159.178 20.2968 158.695 21.3978C158.074 22.9647 157.375 24.4992 156.6 25.9956C155.76 27.6355 154.852 29.2975 153.873 30.9818C152.895 32.6661 151.984 34.2039 151.139 35.5953C150.3 36.9657 149.601 38.0917 149.044 38.973C148.72 39.4256 148.436 39.9061 148.197 40.4089C148.221 40.5532 148.284 40.6886 148.377 40.8012C148.533 41.01 148.718 41.195 148.926 41.3504C149.189 41.5495 149.476 41.713 149.782 41.8368C150.117 41.9754 150.478 42.0448 150.841 42.0408C151.057 42.0408 151.445 41.7348 152.018 41.1268C152.591 40.5187 153.254 39.7066 154.054 38.7023C154.854 37.698 155.749 36.5525 156.737 35.2658C157.726 33.979 158.746 32.6609 159.789 31.3153C160.833 29.9697 161.892 28.6594 162.963 27.3687C164.034 26.078 165.062 24.9364 166.035 23.9321C166.867 23.0566 167.766 22.2461 168.722 21.5077C169.533 20.9009 170.212 20.5962 170.758 20.5936C171.433 20.5936 171.684 20.8722 171.507 21.4292C171.203 22.2177 170.785 22.9577 170.268 23.6261C169.617 24.5363 168.816 25.5942 167.867 26.7999C166.917 28.0055 166.009 29.2531 165.14 30.5424C164.302 31.7826 163.555 33.0819 162.904 34.4302C162.321 35.5659 162.001 36.8181 161.967 38.0943C161.927 38.7745 162.038 39.4551 162.292 40.0872C162.504 40.6073 162.839 41.0678 163.269 41.4288C163.835 41.8712 164.545 42.0891 165.262 42.0408C166.047 42.0448 166.953 41.6799 167.985 40.9463Z" fill="#CE341F"/>
<path d="M197.748 24.505C197.275 25.1563 196.732 25.8951 196.12 26.7215C195.508 27.548 194.854 28.4228 194.159 29.3461C193.452 30.2719 192.733 31.1677 192.001 32.0333C191.271 32.9003 190.557 33.7163 189.867 34.4735C189.259 35.1575 188.604 35.7973 187.905 36.3879C188.044 35.9286 188.147 35.459 188.211 34.9835C188.277 34.505 188.311 34.0227 188.313 33.5398C188.312 32.3723 188.203 31.2074 187.988 30.0601C187.768 28.9067 187.533 27.7415 187.274 26.5607C187.015 25.3799 186.779 24.2069 186.564 22.9986C186.345 21.804 186.236 20.592 186.238 19.3776C186.222 18.6295 186.389 17.8888 186.724 17.22C187.027 16.6324 187.382 16.0732 187.784 15.5488C188.176 15.0623 188.513 14.6229 188.839 14.2267C189.122 13.9343 189.295 13.5532 189.329 13.1479C189.321 13.0274 189.284 12.9108 189.22 12.8082C189.157 12.7056 189.069 12.6201 188.965 12.5594C188.688 12.3746 188.359 12.2825 188.027 12.2966C187.203 12.303 186.388 12.4681 185.626 12.783C183.994 13.4376 182.646 14.6479 181.821 16.2C181.404 16.9767 181.188 17.8451 181.193 18.7264C181.222 19.7984 181.337 20.8664 181.538 21.9198C181.766 23.2614 182.013 24.713 182.268 26.2743C182.523 27.8357 182.731 29.4128 182.88 30.982C183.023 32.4169 183.023 33.8624 182.88 35.2973C182.798 36.4098 182.449 37.4863 181.864 38.4357C181.319 39.2517 180.467 39.6558 179.298 39.6558C178.129 39.6558 177.337 39.3537 176.878 38.7417C176.418 38.1703 176.167 37.4588 176.168 36.7253C176.187 36.4147 176.101 36.1066 175.924 35.8504C175.867 35.7629 175.788 35.6911 175.696 35.6418C175.603 35.5925 175.5 35.5671 175.395 35.568C175.282 35.5866 175.175 35.6319 175.083 35.7002C174.99 35.7684 174.916 35.8576 174.865 35.9603C174.677 36.3099 174.593 36.706 174.622 37.1019C174.627 37.6976 174.729 38.2886 174.924 38.8516C175.125 39.4337 175.444 39.9679 175.862 40.4208C176.314 40.9069 176.862 41.2954 177.47 41.5624C178.202 41.8766 178.993 42.0291 179.789 42.0096H180.397C181.777 41.9857 183.128 41.6074 184.32 40.9112C185.73 40.1265 187.046 39.1842 188.243 38.1023C189.567 36.9109 190.805 35.6261 191.946 34.2577C193.118 32.8663 194.211 31.4802 195.226 30.0993C196.24 28.7184 197.149 27.4368 197.952 26.2547C198.752 25.0621 199.397 24.1258 199.886 23.4458C199.936 23.3802 199.971 23.3043 199.988 23.2235C200.005 23.1427 200.004 23.0592 199.984 22.979C199.97 22.9125 199.941 22.8503 199.899 22.7972C199.857 22.744 199.803 22.7015 199.741 22.673C199.606 22.6173 199.457 22.6036 199.313 22.6337C199.221 22.6555 199.134 22.6956 199.057 22.7515C198.98 22.8074 198.915 22.8781 198.866 22.9594C198.597 23.3464 198.224 23.8617 197.748 24.505Z" fill="#CE341F"/>
<path d="M25.6138 27.9299V26.4509C25.613 25.5729 25.4363 24.7039 25.094 23.8953C24.7517 23.0868 24.2508 22.355 23.6209 21.7433C22.3478 20.4846 20.6291 19.7796 18.8388 19.7817H17.6226C15.8337 19.7807 14.1166 20.4856 12.8444 21.7433C12.2143 22.3547 11.7136 23.0864 11.3719 23.8951C11.0302 24.7038 10.8546 25.573 10.8554 26.4509V27.9299L10.0159 29.4442V31.6254C10.0174 32.6005 10.2139 33.5655 10.5939 34.4636C10.9738 35.3617 11.5296 36.1747 12.2285 36.8548C13.6517 38.2505 15.5665 39.031 17.5599 39.0281H18.9133C20.9016 39.0286 22.8106 38.2481 24.229 36.8548C24.9291 36.1754 25.486 35.3626 25.8667 34.4645C26.2474 33.5663 26.4442 32.6009 26.4455 31.6254V29.4442L25.6138 27.9299ZM19.0232 34.6226V36.3683C19.0241 36.4963 18.9926 36.6225 18.9315 36.735C18.8704 36.8475 18.7818 36.9427 18.674 37.0117H18.3445C18.3055 37.0176 18.2658 37.0176 18.2268 37.0117H18.1483C18.1157 37.0152 18.0828 37.0152 18.0502 37.0117H17.9012C17.7912 36.9412 17.7006 36.8443 17.6376 36.7299C17.5746 36.6155 17.5411 36.4872 17.5402 36.3566V34.6226C17.0855 34.446 16.7074 34.1152 16.4719 33.6881C16.2365 33.2609 16.1587 32.7645 16.2522 32.2858C16.3457 31.8071 16.6045 31.3764 16.9834 31.0693C17.3623 30.7621 17.8371 30.5979 18.3249 30.6054H18.368C18.8557 30.5979 19.3306 30.7621 19.7094 31.0693C20.0883 31.3764 20.3472 31.8071 20.4407 32.2858C20.5342 32.7645 20.4564 33.2609 20.2209 33.6881C19.9855 34.1152 19.6073 34.446 19.1526 34.6226H19.0232ZM22.5892 27.977H13.8761V26.4509C13.8771 25.9657 13.9751 25.4857 14.1644 25.039C14.3538 24.5923 14.6306 24.188 14.9785 23.8499C15.682 23.1521 16.6317 22.759 17.6226 22.7554H18.8388C19.8297 22.7586 20.7796 23.1518 21.4829 23.8499C21.8301 24.1886 22.1065 24.593 22.2957 25.0395C22.485 25.4861 22.5834 25.9659 22.5853 26.4509L22.5892 27.977Z" fill="#CE341F"/>
</svg>
