<svg width="200" height="105" viewBox="0 0 200 105" fill="none" xmlns="http://www.w3.org/2000/svg">
<path d="M109.02 4.80472C114.932 0.2187 121.56 -0.82032 128.546 1.29355C133.777 2.86999 136.966 6.77527 138.435 11.9704C140.262 18.4553 139.761 24.5103 134.852 29.5979C130.517 34.0764 126.182 34.6138 120.843 31.5326C119.589 31.1027 118.729 30.1711 118.084 29.0963C115.433 24.8327 116.257 17.4163 122.491 15.1233C122.778 15.0516 123.065 15.0158 123.387 15.0158C124.534 15.0158 125.752 15.0516 126.289 16.3414C126.791 17.5596 125.716 18.1687 125.071 18.8852C124.426 19.6018 123.781 20.2825 123.28 21.1066C122.205 22.8622 122.205 24.0803 123.28 25.191C124.498 26.4808 126.827 26.9108 128.224 26.0151C130.804 24.4028 131.377 21.7157 131.413 18.9927C131.448 16.7355 130.338 14.8725 128.188 13.8334C125.823 12.8661 123.745 13.6543 121.739 14.8725C119.159 16.4131 117.404 18.5628 116.687 21.5365C116.544 22.0381 116.544 22.7189 115.863 22.7905C115.147 22.898 114.824 22.2889 114.537 21.7873C113.928 20.6766 113.606 19.4943 113.498 17.8462C112.459 19.0285 112.101 20.1392 111.492 21.1424C110.811 22.2889 110.417 22.2889 109.737 21.1782C109.056 19.9959 108.411 18.7777 107.802 17.6312C108.124 19.1002 108.053 20.6766 107.909 22.2173C107.873 22.7189 107.658 23.1846 107.193 23.3638C106.655 23.5787 106.333 23.0771 106.01 22.7547C105.222 21.9665 104.685 20.9274 103.717 20.175C103.108 20.7125 103.216 21.5007 103.001 22.1098C102.678 23.1846 102.356 24.2953 101.89 25.3343C101.603 25.9792 101.496 26.9466 100.672 26.9466C99.7763 26.9466 99.9196 25.9076 99.6688 25.2627C99.5613 25.0477 99.5613 24.6178 99.3821 24.6536C96.8383 24.7969 97.125 22.4322 96.3367 21.1424C95.7993 20.2825 95.4769 20.175 94.7961 20.8916C94.187 21.5365 93.7571 22.3247 93.148 23.0055C92.5031 23.6862 92.0015 23.5787 91.7866 22.683C91.4641 21.5007 91.2133 20.39 91.4641 19.2435C91.6074 18.5628 91.7507 17.8462 91.6074 16.9147C90.5684 18.1687 89.816 19.2793 89.3861 20.6766C89.2427 21.1424 89.1353 21.6798 88.5262 21.6798C87.9529 21.6798 87.738 21.2141 87.523 20.7841C87.093 19.8884 86.8422 18.8852 85.9465 18.097C85.5166 19.2793 85.4808 20.4975 84.9075 21.5365C84.6926 21.9665 84.4418 22.4322 83.9043 22.4322C83.2953 22.4322 83.2236 21.859 83.0803 21.3932C82.1846 18.5269 80.429 16.3772 77.8852 14.8008C77.6702 14.6575 77.4911 14.5142 77.2761 14.4067C76.7387 14.0842 76.0579 14.0126 75.5563 13.6901C75.1981 13.511 74.8398 13.4035 74.4457 13.3318C73.7291 13.0452 73.0125 13.1885 72.3318 13.4035C70.2538 13.6901 69.1073 15.0874 68.4265 16.9147C67.3517 19.6734 68.6057 23.7937 70.9703 25.6568C72.2601 26.66 74.5173 26.5525 75.9505 25.3701C77.1328 24.4386 77.3119 23.0055 76.4162 21.3216C75.9146 20.3542 75.2339 19.5301 74.4815 18.7419C73.7291 17.9895 72.7976 17.2013 73.3708 15.9831C73.9082 14.8725 75.0189 14.7291 76.1296 14.765C82.4354 16.1981 84.6926 24.4386 81.2172 28.738C81.0739 28.9171 80.8948 29.0963 80.6798 29.1679C75.6997 34.6138 70.003 34.7572 64.7004 29.5621C59.5053 24.4386 58.5021 15.7323 62.2641 8.42337C65.4528 2.26091 72.4035 -0.963633 79.6408 0.254528C83.5819 0.935265 87.4872 1.616 90.6759 4.37478C93.0764 5.19883 94.402 7.27687 95.9785 8.99663C97.2324 10.3581 98.1998 11.9704 99.1313 13.5468C99.7404 14.5858 100.135 14.6575 100.887 13.6185C102.786 11.003 104.936 8.63834 107.085 6.20202C107.587 5.6646 108.088 4.87637 109.02 4.80472Z" fill="#E6E6E6"/>
<path d="M118.622 35.0794C118.12 37.1574 116.974 38.8414 115.576 40.4178C112.065 44.3231 109.88 48.8733 109.342 54.1759C109.271 54.9999 108.984 55.7881 108.769 56.6122C106.799 63.8495 101.138 64.8527 95.4768 63.0613C92.5389 62.1297 91.4282 59.4784 90.7475 56.7555C90.3534 55.1432 90.1026 53.4951 89.9234 51.8112C89.4935 47.1894 87.093 43.5349 84.1193 40.2028C82.1845 38.0173 81.2172 35.581 80.8589 32.6789C80.6798 30.9591 81.3537 30.0956 81.6762 28.8416C82.0345 25.5095 84.1193 22.8261 85.6599 19.924C86.269 18.7775 86.878 19.6016 87.2005 20.2107C87.7379 21.2497 88.132 22.3604 88.7053 23.6502C89.2785 22.2529 89.1711 20.9631 89.7085 19.8524C89.9593 19.315 90.2101 18.5984 90.9266 18.7417C91.6074 18.8492 91.4282 19.6016 91.4282 20.1032C91.4282 21.608 91.6074 23.0769 92.0373 24.5817C92.8614 23.6144 93.3988 22.4679 94.2228 21.608C95.2977 20.4615 95.9068 20.5331 96.5875 21.9304C96.9458 22.6828 97.3041 23.4352 97.6624 24.1876C97.8415 24.5459 97.949 25.1908 98.3073 25.1908C99.9554 25.2983 99.8479 26.7672 100.421 27.9496C101.783 26.3731 102.141 24.5101 102.822 22.7545C103.072 22.1096 103.072 21.2139 103.932 21.0705C104.756 20.9631 105.115 21.7155 105.58 22.2529C106.154 22.9336 106.584 23.686 107.229 24.4026C107.873 23.3277 107.766 22.1454 108.088 21.0705C108.196 20.6764 108.303 20.139 108.769 20.139C109.199 20.139 109.414 20.6048 109.593 20.9989C109.987 21.8946 110.131 22.8261 110.31 23.901C110.99 22.6828 111.205 21.393 111.815 20.2823C112.065 19.8166 112.244 19.2075 112.925 19.2791C113.498 19.3508 113.534 19.924 113.821 20.3182C116.042 23.5785 116.616 27.6271 118.909 30.8517C119.912 32.2131 119.088 33.7179 118.622 35.0794Z" fill="#E6E6E6"/>
<path d="M91.715 4.01645C97.0893 1.93841 102.499 2.01006 107.909 3.94479C108.841 4.26724 108.447 4.8405 108.053 5.23461C105.509 7.74259 103.252 10.5014 101.03 13.2601C100.493 13.9409 99.7764 14.1558 99.2748 13.3318C97.1609 9.92811 94.438 7.06185 91.7508 4.15976C91.6792 4.15976 91.715 4.05227 91.715 4.01645Z" fill="#E6E6E6"/>
<path d="M118.622 35.0095C119.303 32.609 118.156 30.8175 117.26 28.6678C115.97 25.5508 114.322 22.577 113.068 19.2808C111.635 20.9648 111.456 23.1861 110.31 25.2283C109.808 23.4011 109.701 21.6813 108.697 19.9974C108.339 21.9321 108.447 23.7235 107.479 25.3716C106.225 23.9743 105.401 22.3262 103.861 20.9648C102.929 23.8669 102.32 26.7689 100.242 29.2769C99.8836 27.8796 99.5611 26.7689 99.2387 25.4791C98.5938 26.1599 98.0922 26.4107 97.6622 25.3C97.089 23.7952 96.3724 22.3621 95.6559 20.7856C93.9719 22.0038 93.2554 23.9027 91.8939 25.3716C90.8549 23.2219 91.034 21.0364 90.9982 18.5643C89.3143 20.4632 89.7084 22.6845 89.1351 24.8342C87.5945 23.2219 87.4512 21.0723 86.3047 19.1017C85.4806 22.0754 83.4026 24.261 83.2235 27.2705C83.1876 27.8796 79.8845 32.3544 81.3177 35.0416C79.6048 33.9988 80.6796 29.062 80.6796 29.062C83.2951 24.5118 82.8293 20.1407 79.4257 16.8803C78.4583 15.9488 77.276 15.4472 76.022 15.0531C76.2369 13.8708 77.3834 14.8381 77.8492 14.2291C80.8946 16.0205 83.0085 18.5284 83.7967 22.3262C85.2298 20.6423 85.2298 18.7076 85.6239 16.737C87.1646 18.0985 87.5945 19.9257 88.5619 21.8246C89.1351 19.3167 90.2816 17.4894 92.1805 15.6264C92.1805 18.3135 91.6073 20.6781 92.2522 23.1503C93.2554 21.968 94.1511 20.8573 95.1543 19.7824C95.7275 19.1734 96.1933 18.8867 96.5157 20.1407C96.9099 21.6097 97.6981 22.9712 98.2713 24.3685C98.9879 24.4043 99.0237 23.5802 99.6686 23.5086C99.9553 24.5476 100.206 25.5508 100.564 26.9481C101.89 24.3326 102.642 21.8246 103.108 18.9942C104.792 20.1407 105.724 21.8246 107.157 23.3653C107.766 20.9289 107.515 18.7076 107.121 16.1638C108.769 17.9552 109.665 19.8541 110.56 21.8963C111.456 20.0691 112.137 18.2418 113.785 16.6295C114 18.9226 114.143 21.0006 115.684 22.577C116.221 22.2546 116.078 21.7172 116.185 21.2514C117.224 16.4504 123.602 11.3628 128.331 13.3333C127.794 14.444 126.719 13.9424 125.895 14.1216C125.322 14.2291 124.641 13.7633 124.354 14.8023C124.175 15.5189 123.172 14.9456 122.635 15.3756C116.544 17.8477 114.717 26.3748 120.843 31.4625C119.484 32.0325 119.348 35.978 118.622 35.0095Z" fill="#1A1A1A"/>
<path d="M91.7147 4.0166C94.9035 6.34544 97.1965 9.4625 99.2745 12.7587C99.7761 13.5469 100.027 14.0127 100.815 12.9378C102.857 10.1432 106.039 6.34544 108.547 4.0166L109.443 4.41071C106.821 6.73581 102.714 11.6839 99.9552 15.7324C97.4114 11.3256 94.6527 7.34863 90.6399 4.41071C90.9982 4.2674 91.3565 4.12409 91.7147 4.0166Z" fill="#1A1A1A"/>
<path d="M77.8493 14.2635C77.7059 15.5892 76.3445 14.1919 76.022 15.0876C75.5562 15.1234 75.0546 15.1234 74.6247 15.2667C73.2991 15.6608 73.0124 16.6999 74.0156 17.6672C74.9472 18.5988 75.9145 19.4586 76.6311 20.6051C77.8492 22.5399 77.8134 24.2954 76.5236 25.5136C74.983 26.9467 72.1884 27.1975 70.5761 26.051C67.7815 24.0088 66.1334 17.5239 69.3221 14.371C70.2178 13.5111 71.3353 13.0491 72.475 12.9737C73.6147 12.8983 74.781 12.8983 75.6996 13.1887C76.5051 13.4433 77.1214 13.8996 77.8493 14.2635Z" fill="#1A1A1A"/>
<path d="M122.599 15.3757C123.1 14.8025 124.498 15.2682 124.318 13.8351C124.283 13.5126 124.892 13.6918 125.214 13.6559C126.253 13.6201 127.292 13.7634 128.295 13.3335C129.979 13.8709 130.839 15.2324 131.448 16.7372C132.523 19.3168 131.341 23.9387 129.263 25.8017C127.579 27.3065 124.677 27.2707 122.885 25.6942C121.488 24.4403 121.488 22.613 122.921 20.535C123.494 19.7109 124.247 18.9944 124.928 18.2778C125.429 17.7404 126.253 17.3463 125.895 16.3789C125.537 15.4115 124.677 15.3757 123.817 15.3757C123.423 15.3399 123.029 15.3757 122.599 15.3757Z" fill="#1A1A1A"/>
<path d="M110.158 36.1149C106.361 35.7566 106.289 35.7925 105.716 39.5544C105.178 43.1014 104.713 46.6484 104.211 50.1954C104.032 51.5569 104.641 52.5959 105.286 53.7066C106.361 55.498 106.253 57.0028 105.035 58.2926C104.283 59.0809 103.387 59.4392 102.491 58.8301C101.631 58.221 101.237 58.5076 100.807 59.2242C100.485 59.7258 99.8758 60.1199 99.4816 59.6899C98.5501 58.6151 97.6544 58.2926 96.4004 59.1167C96.0421 59.3317 95.5047 59.0092 95.1106 58.7226C93.1042 57.2178 93.2117 54.5665 95.3972 53.0617C95.648 53.9932 94.824 54.6023 94.7523 55.3905C94.6448 56.3221 94.9315 57.0386 95.5405 57.6477C96.2213 58.2926 96.687 57.7552 97.2245 57.3611C98.0127 56.8236 98.5859 57.2536 99.0159 57.8985C99.625 58.7942 100.127 58.8659 100.736 57.8985C101.166 57.2536 101.739 56.8236 102.527 57.3611C102.993 57.6835 103.459 58.2568 104.068 57.6836C104.713 57.1103 105.214 56.4295 104.999 55.498C104.892 55.0322 104.784 54.5306 104.498 54.1724C103.351 52.6317 103.172 50.9478 103.459 49.0848C104.032 45.3228 104.211 41.4533 105.143 37.763C105.323 36.3657 105.86 36.1866 106.218 34.7535C108.368 34.5744 110.158 36.1149 110.158 36.1149Z" fill="#1A1A1A"/>
<path d="M85.6957 29.7771C87.5588 31.6401 90.3534 31.6401 92.4673 33.5032C92.1448 31.6401 91.4641 30.2787 89.9593 29.5621C88.2754 28.7739 87.6304 27.484 87.6304 25.2627C88.8128 27.1258 90.3176 28.129 91.6432 29.3471C92.1806 29.8487 92.6106 30.4578 92.7539 31.1385C93.1122 32.8583 93.3271 34.6497 94.7244 36.047C92.6464 35.7604 90.7117 35.9395 88.7769 35.9395C86.8712 35.8283 86.054 34.6497 85.6241 33.0016C85.38 32.0663 85.3733 30.8877 85.6957 29.7771Z" fill="#1A1A1A"/>
<path d="M92.1807 34.8644C90.0668 35.0794 88.777 34.5778 88.1321 32.7505C89.9235 32.4281 90.7834 33.6462 92.1807 34.8644Z" fill="#F2F2F2"/>
<path d="M87.9524 34.7175C87.0504 34.9325 85.7965 32.6036 86.1968 32.2454C86.6984 32.9619 87.2 33.6785 87.9524 34.7175Z" fill="#F2F2F2"/>
<path d="M114.172 29.9526C112.309 31.8157 109.515 31.8157 107.401 33.6787C107.723 31.8157 108.404 30.4542 109.909 29.7376C111.593 28.9494 112.238 27.6596 112.238 25.4382C111.055 27.3013 109.551 28.3045 108.225 29.5227C107.687 30.0243 107.258 30.6333 107.114 31.3141C106.756 33.0338 106.039 35.6493 105.502 36.545C107.472 36.0076 109.156 36.1151 111.091 36.1151C112.997 36.0038 113.814 34.8252 114.244 33.1771C114.488 32.2418 114.495 31.0633 114.172 29.9526Z" fill="#1A1A1A"/>
<path d="M107.688 35.0402C109.802 35.2552 111.091 34.7536 111.736 32.9263C109.945 32.6039 109.085 33.822 107.688 35.0402Z" fill="#F2F2F2"/>
<path d="M111.916 34.893C112.818 35.108 114.072 32.7792 113.672 32.4209C113.17 33.1375 112.668 33.854 111.916 34.893Z" fill="#F2F2F2"/>
<path d="M5.04421 93.9153C3.7293 86.458 2.96272 82.7487 2.74449 82.7872L0.856928 83.1941C0.628048 83.2344 0.459917 83.2147 0.352536 83.1348C0.245155 83.055 0.169408 82.89 0.125296 82.6398C0.0811846 82.3896 0.100933 82.2215 0.184542 82.1354C0.268151 82.0493 0.429718 81.9851 0.669243 81.9429L4.48097 81.3367L9.18979 80.3088C13.118 79.6161 15.6765 80.4932 16.8653 82.9399C17.1154 83.4556 17.2878 83.9822 17.3826 84.5198C17.4765 85.0521 17.4979 85.5313 17.4468 85.9574C17.4001 86.3773 17.3117 86.7633 17.1817 87.1155C17.0508 87.4624 16.8759 87.8089 16.657 88.1548C16.4425 88.4945 16.2241 88.7964 16.0017 89.0607C15.7784 89.3196 15.5298 89.5747 15.2558 89.8261C14.8409 90.2121 14.4821 90.5113 14.1793 90.7239C13.8765 90.9364 13.7238 91.0512 13.7213 91.0681C13.7188 91.085 13.8501 91.114 14.1153 91.155C14.3849 91.1898 14.6769 91.2426 14.9912 91.3134C15.3109 91.3833 15.6789 91.494 16.0953 91.6456C16.517 91.7963 16.9026 91.9752 17.252 92.1826C17.6004 92.3846 17.9642 92.6579 18.3433 93.0027C18.7268 93.3412 19.0663 93.7259 19.3618 94.1568C20.0329 95.1306 20.5228 96.3367 20.8313 97.7751C21.0907 98.9972 21.2579 99.6345 21.3331 99.6871C21.4126 99.7335 21.4843 99.751 21.5482 99.7398L23.0492 99.4751C23.2355 99.4422 23.3731 99.4756 23.462 99.5752C23.5553 99.6685 23.631 99.8802 23.6892 100.21C23.7314 100.45 23.5769 100.6 23.2256 100.662L18.7282 101.348C18.4887 101.391 18.3478 101.292 18.3055 101.052L17.9719 99.1602C17.5824 96.9512 17.1217 95.397 16.5899 94.4974C16.0164 93.5173 15.3402 92.8572 14.5613 92.517C13.5851 92.0855 12.4023 91.9757 11.0127 92.1878L7.99704 92.6866C7.82139 92.7176 7.74905 92.8209 7.78002 92.9965C7.9865 94.1676 8.33943 95.9357 8.8388 98.3009C9.3435 100.665 9.63311 101.841 9.70763 101.828L11.6079 101.493C11.7942 101.46 11.9232 101.475 11.9948 101.54C12.0665 101.604 12.1226 101.75 12.1629 101.979C12.2033 102.208 12.2022 102.373 12.1596 102.474C12.117 102.574 12.0025 102.641 11.8162 102.674L8.26093 103.194L5.07757 103.862C4.84869 103.903 4.68902 103.884 4.59854 103.807C4.51433 103.734 4.45017 103.572 4.40606 103.322C4.36194 103.072 4.37778 102.913 4.45356 102.845C4.53372 102.77 4.71485 102.708 4.99696 102.658L6.41016 102.409C6.49533 102.394 6.29576 101.013 5.81147 98.2666L5.04421 93.9153ZM6.01615 82.0127C5.90437 82.0324 5.94656 82.5985 6.14272 83.711L7.54351 91.6552C7.56322 91.767 7.71412 91.798 7.99623 91.7483L12.1992 91.073C12.3748 91.0421 12.4927 91.0103 12.5528 90.9777C14.2725 89.7744 14.9268 88.0071 14.5158 85.6757C14.1957 83.8606 13.1026 82.61 11.2363 81.9237C10.128 81.5209 9.06017 81.4101 8.03287 81.5912C7.00557 81.7724 6.33333 81.9129 6.01615 82.0127Z" fill="#E6E6E6"/>
<path d="M185.176 101.352C185.394 101.391 185.966 98.783 186.892 93.5294C186.903 93.4708 186.907 93.4167 186.905 93.3669C186.909 93.3127 186.911 93.2692 186.911 93.2363C186.912 93.1981 186.906 93.1559 186.892 93.1095C186.879 93.0579 186.87 93.0205 186.863 92.9973C186.848 92.9234 186.693 92.4488 186.398 91.5734C186.103 90.6927 185.371 88.618 184.202 85.3495C183.034 82.0756 182.386 80.4274 182.258 80.4048L181.308 80.2373C181.085 80.1979 180.936 80.1387 180.862 80.0598C180.794 79.9766 180.784 79.8045 180.83 79.5437C180.876 79.2829 180.942 79.1271 181.027 79.0764C181.119 79.0213 181.282 79.0144 181.517 79.0557L184.971 79.7719L188.846 80.348C189.027 80.3799 189.138 80.449 189.18 80.5551C189.228 80.6569 189.23 80.8328 189.186 81.083C189.142 81.3332 189.083 81.4792 189.01 81.5212C188.943 81.5588 188.776 81.5541 188.51 81.5072L186.578 81.1665C186.376 81.1308 186.258 81.1293 186.225 81.1618C186.197 81.1953 186.223 81.3893 186.303 81.7437C186.383 82.0981 186.624 82.9117 187.025 84.1844C187.428 85.4517 187.883 86.852 188.392 88.3851C188.901 89.9183 189.185 90.7834 189.244 90.9803C189.307 91.1782 189.353 91.3234 189.381 91.4161C189.415 91.5044 189.439 91.569 189.454 91.6101C189.468 91.6511 189.494 91.6775 189.53 91.6894C189.589 91.6997 190.021 91.1778 190.827 90.1234C191.633 89.0691 192.261 88.2495 192.71 87.6646C193.158 87.0797 193.559 86.5494 193.912 86.0737C194.266 85.5928 194.606 85.1259 194.933 84.6731C195.62 83.7021 195.975 83.1527 195.997 83.025C196.02 82.8972 196.007 82.8291 195.959 82.8207L194.259 82.5208C193.977 82.4711 193.795 82.4116 193.714 82.3424C193.638 82.2742 193.622 82.115 193.666 81.8648C193.71 81.6146 193.775 81.4504 193.86 81.3721C193.951 81.2948 194.11 81.2763 194.339 81.3166L196.876 81.8709L199.377 82.205C199.606 82.2453 199.759 82.3107 199.837 82.4012C199.92 82.4873 199.94 82.6581 199.894 82.9136C199.85 83.1638 199.774 83.315 199.666 83.3673C199.564 83.4205 199.398 83.427 199.169 83.3866L198.059 83.1909C198.001 83.1806 196.797 84.5928 194.447 87.4276C192.099 90.2571 190.793 91.8132 190.529 92.096C190.271 92.3744 190.132 92.5695 190.113 92.6812C189.025 98.8503 188.579 101.952 188.776 101.987L191.028 102.384C191.22 102.418 191.338 102.477 191.383 102.562C191.429 102.647 191.431 102.804 191.391 103.033C191.351 103.261 191.293 103.416 191.219 103.496C191.144 103.576 191.011 103.599 190.82 103.566L186.918 102.771L183.171 102.217C182.952 102.178 182.822 102.111 182.778 102.016C182.739 101.927 182.742 101.754 182.787 101.499C182.833 101.238 182.895 101.087 182.974 101.046C183.058 101.006 183.235 101.01 183.507 101.058L185.176 101.352Z" fill="#E6E6E6"/>
<path d="M158.421 88.5164C159.213 80.9856 159.498 77.2086 159.278 77.1855L157.351 77.0563C157.12 77.032 156.964 76.9667 156.883 76.8603C156.802 76.754 156.774 76.5745 156.801 76.3218C156.827 76.0692 156.893 75.913 156.997 75.8533C157.101 75.7936 157.274 75.7765 157.516 75.8019L161.347 76.2698L166.157 76.5797C170.124 76.9966 172.341 78.5449 172.81 81.2245C172.908 81.7891 172.928 82.3429 172.871 82.8858C172.815 83.4234 172.703 83.8899 172.537 84.2854C172.376 84.6761 172.185 85.0229 171.963 85.3256C171.741 85.623 171.478 85.9078 171.172 86.18C170.872 86.4474 170.579 86.6774 170.292 86.8701C170.006 87.0574 169.697 87.2342 169.364 87.4003C168.859 87.657 168.432 87.8457 168.082 87.9666C167.732 88.0874 167.554 88.1556 167.547 88.1712C167.54 88.1868 167.658 88.2508 167.902 88.3634C168.151 88.4711 168.417 88.6024 168.7 88.7571C168.988 88.9123 169.311 89.1202 169.67 89.3807C170.034 89.6418 170.355 89.9201 170.634 90.2157C170.913 90.5059 171.187 90.869 171.457 91.3049C171.732 91.736 171.952 92.1994 172.118 92.695C172.494 93.8161 172.633 95.1105 172.533 96.5782C172.445 97.8244 172.43 98.4832 172.488 98.5545C172.552 98.6209 172.616 98.6576 172.68 98.6643L174.196 98.8237C174.384 98.8434 174.507 98.9134 174.565 99.0337C174.629 99.1491 174.644 99.3734 174.609 99.7067C174.583 99.9486 174.393 100.051 174.039 100.014L169.526 99.4333C169.284 99.4079 169.176 99.2743 169.202 99.0324L169.402 97.1215C169.637 94.8907 169.622 93.2697 169.359 92.2583C169.078 91.1582 168.61 90.3372 167.955 89.7956C167.136 89.1116 166.029 88.6801 164.635 88.501L161.598 88.1492C161.421 88.1306 161.323 88.2099 161.304 88.3873C161.18 89.5699 161.032 91.3668 160.86 93.778C160.693 96.1898 160.648 97.3997 160.723 97.4076L162.642 97.6093C162.83 97.629 162.95 97.6797 163.001 97.7611C163.052 97.8426 163.066 97.9989 163.041 98.23C163.017 98.4612 162.971 98.6193 162.902 98.7045C162.833 98.7897 162.705 98.8224 162.517 98.8026L158.956 98.3223L155.711 98.0873C155.48 98.063 155.332 98.0012 155.266 97.902C155.205 97.8086 155.188 97.6356 155.215 97.383C155.241 97.1303 155.301 96.9817 155.392 96.9369C155.49 96.8874 155.681 96.8776 155.966 96.9076L157.393 97.0576C157.479 97.0666 157.668 95.6843 157.959 92.9107L158.421 88.5164ZM162.636 77.3428C162.523 77.3309 162.408 77.8867 162.29 79.0101L161.447 87.0328C161.435 87.1456 161.571 87.2171 161.856 87.247L166.082 87.7564C166.26 87.7751 166.382 87.777 166.449 87.7623C168.433 87.0796 169.55 85.5611 169.797 83.2067C169.99 81.3737 169.284 79.8702 167.679 78.6961C166.724 78.0034 165.728 77.6026 164.691 77.4935C163.654 77.3845 162.969 77.3342 162.636 77.3428Z" fill="#E6E6E6"/>
<path d="M132.425 77.9687C132.468 76.7263 132.446 76.1036 132.36 76.1006L131.096 76.0564C130.869 76.0485 130.714 76.0106 130.629 75.9428C130.551 75.8751 130.516 75.709 130.525 75.4443C130.534 75.1796 130.578 75.0162 130.656 74.954C130.739 74.8866 130.9 74.8571 131.138 74.8654L134.286 75.0727L138.146 75.1101C138.368 75.1179 138.504 75.1659 138.555 75.2542C138.606 75.3371 138.627 75.5109 138.618 75.7756C138.609 76.0349 138.565 76.1902 138.488 76.2416C138.416 76.2877 138.242 76.306 137.967 76.2964L135.812 76.2211C135.698 76.2171 135.534 78.061 135.318 81.7527C135.103 85.439 134.969 88.0491 134.915 89.5832C134.841 91.7168 135.304 93.3257 136.304 94.4098C137.31 95.4887 138.896 96.066 141.062 96.1417C143.228 96.2173 145.196 95.6992 146.966 94.5874C147.225 94.4289 147.409 94.2838 147.516 94.1524C147.629 94.0157 147.711 93.6779 147.762 93.1388C147.814 92.5944 147.874 91.3499 147.941 89.4053L148.295 79.2854C148.356 77.5353 148.322 76.658 148.192 76.6534L146.531 76.5954C146.18 76.5832 145.982 76.5114 145.938 76.38C145.9 76.2489 145.884 76.0861 145.89 75.8916C145.897 75.6918 145.951 75.5584 146.05 75.4916C146.15 75.4248 146.324 75.3957 146.573 75.4044L149.989 75.621L152.577 75.614C152.809 75.6222 152.958 75.6734 153.026 75.7676C153.098 75.8567 153.13 76.0282 153.121 76.282C153.112 76.5359 153.061 76.6883 152.967 76.7391C152.879 76.7901 152.692 76.8106 152.405 76.8006L151.644 76.774C151.514 76.7694 151.376 78.2573 151.228 81.2375C151.081 84.2176 150.974 86.2717 150.908 87.3997C150.841 88.5277 150.759 89.8742 150.661 91.4391C150.569 93.0043 150.493 94.2536 150.433 95.1871C150.379 96.1155 150.348 96.6769 150.342 96.8713C150.315 97.6437 150.036 98.0207 149.507 98.0022C149.172 97.9905 148.822 97.5754 148.455 96.7568C148.095 95.9329 147.801 95.5171 147.574 95.5092C147.347 95.5012 146.804 95.7202 145.945 96.1661C145.091 96.6122 144.028 97.0024 142.757 97.3365C141.49 97.6655 140.325 97.8114 139.261 97.7742C138.197 97.7371 137.292 97.6244 136.547 97.4361C135.807 97.2534 135.185 97.0235 134.681 96.7463C134.182 96.4693 133.757 96.1164 133.404 95.6876C133.051 95.2589 132.777 94.8302 132.581 94.4015C132.39 93.973 132.248 93.4651 132.155 92.8778C131.999 91.9259 131.944 90.8044 131.989 89.5135L132.425 77.9687Z" fill="#E6E6E6"/>
<path d="M111.521 96.0231L107.97 96.1285C107.743 96.1285 107.597 96.0853 107.532 95.9988C107.472 95.9123 107.443 95.7421 107.443 95.488C107.443 95.2286 107.486 95.0719 107.572 95.0178C107.664 94.9584 107.853 94.9286 108.14 94.9286H109.867C109.932 94.9286 109.964 94.4962 109.964 93.6315V82.9054C109.964 81.0029 109.934 79.2058 109.875 77.5141C109.821 75.8169 109.761 74.9683 109.697 74.9683L107.67 75.0413C107.454 75.0413 107.299 74.9981 107.208 74.9116C107.121 74.8251 107.078 74.6495 107.078 74.3846C107.078 74.1144 107.116 73.9468 107.191 73.882C107.272 73.8117 107.432 73.7766 107.67 73.7766L111.594 73.8414L115.672 73.7441C118.677 73.7441 120.817 74.4792 122.093 75.9493C122.795 76.7547 123.147 77.8356 123.147 79.1923C123.147 81.4623 121.498 83.2108 118.201 84.4377C118.023 84.508 117.934 84.5512 117.934 84.5674C117.934 84.5837 118.05 84.6107 118.282 84.6485C118.515 84.6809 118.761 84.7242 119.02 84.7782C119.279 84.8269 119.623 84.9188 120.05 85.0539C120.477 85.1836 120.86 85.3349 121.201 85.5079C121.541 85.6754 121.901 85.9079 122.279 86.2051C122.657 86.5024 122.974 86.8348 123.228 87.2023C123.817 88.0455 124.111 89.0832 124.111 90.3156C124.111 94.1638 120.979 96.088 114.715 96.088L111.521 96.0231ZM113.15 85.1998C112.972 85.1998 112.883 85.289 112.883 85.4674C112.883 91.7749 112.961 94.9286 113.118 94.9286H115.112C119.031 94.9286 120.99 93.3126 120.99 90.0804C120.99 88.8806 120.768 87.9077 120.325 87.1618C119.887 86.4159 119.252 85.9025 118.42 85.6214C117.588 85.3403 116.207 85.1998 114.277 85.1998H113.15ZM115.21 84.2675L116.304 84.2999C117.088 84.2999 117.89 83.9351 118.712 83.2054C119.674 82.3514 120.155 81.1894 120.155 79.7193C120.155 78.6707 119.906 77.76 119.409 76.9871C118.404 75.4197 116.728 74.6359 114.383 74.6359C113.658 74.6359 113.204 74.6819 113.021 74.7738C112.929 74.8332 112.883 77.3897 112.883 82.4433V84.0405C112.883 84.1432 112.902 84.208 112.939 84.235C112.983 84.2567 113.11 84.2675 113.321 84.2675H115.21Z" fill="#E6E6E6"/>
<path d="M99.5445 79.4048L99.6499 77.2807C99.6499 76.9456 99.385 76.551 98.8554 76.097C98.3311 75.643 97.8636 75.2863 97.4528 75.0268C96.5015 74.4269 95.4827 74.1269 94.3963 74.1269C93.3153 74.1269 92.3641 74.5242 91.5425 75.3187C90.7264 76.1132 90.3183 77.1185 90.3183 78.3346C90.3183 79.5453 90.8372 80.5398 91.8749 81.3181C92.5451 81.8208 93.6883 82.3721 95.3043 82.972C96.9258 83.572 98.0581 84.0395 98.7013 84.3746C100.074 85.1043 101.023 85.9988 101.547 87.0581C101.92 87.8148 102.106 88.6418 102.106 89.539C102.106 90.4362 101.963 91.2388 101.677 91.9469C101.396 92.6549 101.012 93.2657 100.525 93.7791C100.039 94.2872 99.4742 94.725 98.831 95.0925C97.5501 95.8168 96.1286 96.1789 94.5666 96.1789C92.61 96.1789 90.8264 95.8978 89.2157 95.3357C88.3455 95.0331 87.9023 94.7655 87.8861 94.5331C87.8753 94.2953 87.8375 93.7683 87.7726 92.9522C87.6321 91.0713 87.5618 90.0362 87.5618 89.8471C87.5618 89.6579 87.5645 89.5417 87.5699 89.4984C87.5753 89.4552 87.5942 89.4066 87.6267 89.3525C87.6753 89.2552 87.8185 89.2066 88.0564 89.2066H88.2185C88.4455 89.2066 88.605 89.2471 88.6968 89.3282C88.7887 89.4039 88.8401 89.5471 88.8509 89.7579L89.0536 92.8792C89.0752 93.1549 89.4319 93.4521 90.1237 93.771C90.821 94.0899 91.6236 94.3547 92.5316 94.5655C93.445 94.7763 94.2531 94.8817 94.9557 94.8817C95.6583 94.8817 96.3394 94.7142 96.9988 94.3791C97.6582 94.0386 98.1851 93.5656 98.5797 92.9603C98.9797 92.3549 99.1796 91.7415 99.1796 91.1199C99.1796 90.4984 99.077 89.9714 98.8716 89.539C98.6716 89.1066 98.4257 88.7418 98.1338 88.4445C97.8419 88.1472 97.442 87.8554 96.9339 87.5689C96.2313 87.1635 95.4367 86.7879 94.5503 86.442C93.6693 86.0907 93.1072 85.8664 92.864 85.7691C92.6208 85.6664 92.2776 85.515 91.8344 85.3151C91.3966 85.1151 91.0561 84.9421 90.8129 84.7962C90.5696 84.6503 90.2643 84.4584 89.8967 84.2206C89.5346 83.9773 89.2508 83.7476 89.0455 83.5314C88.8401 83.3098 88.6131 83.045 88.3644 82.7369C88.1212 82.4234 87.9375 82.1045 87.8131 81.7803C87.5105 80.9911 87.3591 80.2399 87.3591 79.5264C87.3591 78.8076 87.4537 78.1617 87.6429 77.5888C87.8321 77.0158 88.0915 76.4997 88.4212 76.0403C88.7509 75.5754 89.1427 75.1511 89.5968 74.7674C90.0562 74.3837 90.5507 74.0621 91.0804 73.8026C92.1992 73.2675 93.2478 73 94.2261 73C95.2097 73 96.0583 73.0919 96.7718 73.2756C97.4852 73.4594 98.1041 73.7378 98.6284 74.1107C99.158 74.4782 99.485 74.662 99.6093 74.662C99.6688 74.662 99.7093 74.4972 99.7309 74.1675C99.758 73.8378 99.8012 73.6432 99.8607 73.5837C99.9255 73.5243 100.104 73.4945 100.396 73.4945C100.688 73.4945 100.874 73.5243 100.955 73.5837C101.036 73.6432 101.077 73.8026 101.077 74.0621L100.874 79.3399C100.874 79.5724 100.842 79.7264 100.777 79.8021C100.712 79.8723 100.539 79.9075 100.258 79.9075C99.9769 79.9075 99.7877 79.8696 99.6904 79.794C99.5931 79.7183 99.5445 79.5886 99.5445 79.4048Z" fill="#E6E6E6"/>
<path d="M57.9467 96.6291L55.1955 96.8306C54.9687 96.8386 54.8212 96.7977 54.7532 96.7082C54.6854 96.624 54.647 96.455 54.6381 96.2011C54.6293 95.9472 54.6671 95.7918 54.7516 95.7347C54.8414 95.6721 55.0294 95.6358 55.3157 95.6258L56.6769 95.5783C56.7363 95.5762 56.7684 95.1019 56.7732 94.1553C56.7834 93.2085 56.7938 92.2671 56.8044 91.3311C56.8204 90.3949 56.8333 87.8229 56.8432 83.615C56.8583 79.4015 56.8558 77.0057 56.8356 76.4277C56.8152 75.8444 56.7747 75.5348 56.7139 75.4991C56.6532 75.4633 56.4743 75.4507 56.1772 75.461L54.5162 75.519C54.3596 75.5245 54.2639 75.4954 54.2292 75.4317C54.1944 75.3626 54.1726 75.2038 54.1639 74.9554C54.1552 74.7069 54.1657 74.5416 54.1953 74.4594C54.2247 74.3719 54.3177 74.3254 54.4743 74.3199L58.1565 74.2968L60.2513 74.1181C60.4242 74.1121 60.5523 74.1401 60.6356 74.2021C60.7187 74.2587 60.8044 74.3909 60.8928 74.5987L68.468 91.7431C68.5676 91.9614 68.6425 92.094 68.6928 92.1409C68.743 92.1824 68.7834 92.1783 68.8141 92.1286C68.8657 92.0564 68.9282 91.9109 69.0017 91.6921L74.9168 74.5389C75.0444 74.1667 75.1499 73.9332 75.2331 73.8383C75.3217 73.7433 75.493 73.6914 75.7468 73.6825L77.343 73.6268L80.7261 73.4031C80.9476 73.3954 81.0868 73.4338 81.1439 73.5184C81.2009 73.6029 81.2341 73.7775 81.2433 74.0422C81.2523 74.3015 81.22 74.4594 81.1463 74.5161C81.0777 74.5672 80.9057 74.5975 80.6303 74.6071L79.0746 74.6614C78.9678 74.8545 78.9408 75.7072 78.9936 77.2196L79.098 80.2094C79.2059 83.2991 79.369 86.4978 79.5872 89.8054C79.8109 93.1128 79.9848 94.7643 80.1091 94.76L81.8349 94.6997C82.0347 94.6928 82.1738 94.7258 82.2521 94.7987C82.3301 94.8663 82.3733 95.019 82.3816 95.2566C82.3897 95.4889 82.3657 95.652 82.3095 95.7459C82.2533 95.8398 82.1306 95.89 81.9416 95.8966L78.389 95.9152L74.8358 96.1448C74.6089 96.1527 74.4615 96.1146 74.3937 96.0304C74.3313 95.9461 74.2956 95.777 74.2867 95.5231C74.2777 95.2638 74.3154 95.1056 74.4 95.0486C74.4897 94.986 74.6777 94.9497 74.964 94.9397L76.4549 94.8876C76.6115 94.8821 76.6266 93.0672 76.5 89.4427C76.3732 85.8128 76.1669 81.5313 75.8811 76.5982C75.8492 76.1505 75.8089 75.9247 75.7601 75.921C75.7223 75.9223 75.6638 76.0298 75.5848 76.2435C75.5109 76.4516 75.4666 76.5748 75.4517 76.6132L69.8584 92.5302C69.631 93.1438 69.3327 93.7383 68.9634 94.3137C68.5941 94.889 68.3342 95.3443 68.1837 95.6794C67.9328 96.2398 67.7183 96.5231 67.54 96.5293C67.3942 96.5344 67.2398 96.3722 67.0768 96.0426C67.0478 95.9841 67.0217 95.9336 66.9985 95.8912C66.9232 95.7478 66.8707 95.636 66.8408 95.556L58.4448 76.7447C58.2565 76.3078 58.138 76.0902 58.0894 76.0919C58.0406 76.0882 58.0055 76.322 57.9841 76.7933C57.9743 81.6231 58.0362 85.9529 58.17 89.7826C58.3035 93.607 58.4243 95.5173 58.5324 95.5135L60.8253 95.4334C61.0144 95.4268 61.14 95.4603 61.202 95.5338C61.2641 95.6074 61.2992 95.7603 61.3073 95.9926C61.3154 96.2248 61.2913 96.3879 61.2351 96.4818C61.1789 96.5757 61.0563 96.626 60.8672 96.6326L57.9467 96.6291Z" fill="#E6E6E6"/>
<path d="M31.2929 99.5944L28.7963 99.9628C28.5759 99.986 28.44 99.9595 28.3885 99.8834C28.3376 99.8126 28.298 99.6429 28.2698 99.3741C28.2415 99.1054 28.2544 98.9437 28.3085 98.8891C28.3673 98.8286 28.5311 98.7842 28.7999 98.7559L29.7916 98.6517C29.9905 98.6308 31.1011 95.1582 33.1232 88.2338C33.2962 87.6559 33.3908 87.3416 33.4073 87.2909L36.0523 78.7957C36.1146 78.5609 36.2722 78.2509 36.5252 77.8656C36.783 77.4744 36.976 77.0872 37.1042 76.7042C37.2987 76.124 37.4894 75.8186 37.6764 75.7881C37.9022 75.7644 38.0443 75.85 38.1028 76.0449L43.2312 86.7557C46.4519 93.4061 48.1375 96.7235 48.288 96.7076L49.441 96.5865C49.5969 96.5701 49.7003 96.5972 49.7512 96.668C49.8015 96.7333 49.8391 96.8843 49.864 97.1208C49.8889 97.3573 49.8843 97.5208 49.8503 97.6113C49.817 97.7072 49.7223 97.7634 49.5664 97.7798L46.4834 97.9978L42.6968 98.5018C42.5033 98.5221 42.3778 98.4918 42.3204 98.4109C42.2689 98.3348 42.2294 98.1651 42.2017 97.9017C42.174 97.6383 42.1845 97.4796 42.2332 97.4255C42.2866 97.3656 42.4451 97.3218 42.7085 97.2941L44.5226 97.1034C44.5441 97.1011 44.5467 97.0221 44.5303 96.8662C44.5139 96.7103 44.1391 95.8068 43.4057 94.1556C42.6778 92.5039 42.1429 91.3183 41.801 90.5988C41.4644 89.8788 41.2721 89.4968 41.224 89.453C41.1754 89.4037 41.0704 89.3876 40.9091 89.4046L34.2411 90.1054C34.01 90.1297 33.8599 90.1754 33.7908 90.2424C33.7272 90.3089 33.6645 90.4622 33.6028 90.7024C32.308 95.3438 31.6762 97.9156 31.7072 98.4177L31.7429 98.4466L34.2827 98.1797C34.4655 98.1604 34.5793 98.1838 34.6243 98.2497C34.6741 98.3097 34.708 98.4257 34.7261 98.5977C34.7442 98.7697 34.7533 98.8829 34.7536 98.9372C34.7587 98.9856 34.7595 99.0453 34.7561 99.1163C34.7522 99.1819 34.7352 99.2272 34.7052 99.2521C34.6469 99.318 34.5479 99.3583 34.4081 99.373L31.2929 99.5944ZM40.4421 88.4509C40.641 88.43 40.737 88.3873 40.7302 88.3228C40.7229 88.253 40.6752 88.1357 40.5873 87.971L37.0099 80.2276C36.907 79.9721 36.8313 79.847 36.7829 79.852C36.7345 79.8571 36.6758 79.9964 36.6067 80.27L34.2066 88.5357C34.1225 88.8217 34.0833 88.9916 34.0889 89.0453C34.094 89.0937 34.2417 89.1026 34.532 89.0721L40.4421 88.4509Z" fill="#E6E6E6"/>
</svg>
