<svg width="200" height="82" viewBox="0 0 200 82" fill="none" xmlns="http://www.w3.org/2000/svg">
<path d="M28.1882 0V28.1882H0V52.6996H28.1882V80.8878H52.6996V52.6996H80.8878V28.1882H52.6996V0H28.1882Z" fill="#CE341F"/>
<path d="M106.021 20.6124H101.11V31.566H94.9445V1.64406H106.062C109.597 1.64406 112.324 2.43184 114.242 4.0074C116.16 5.58296 117.119 7.80929 117.119 10.6864C117.119 12.7278 116.674 14.4335 115.783 15.8035C114.906 17.1599 113.57 18.2422 111.776 19.0506L118.249 31.2783V31.566H111.632L106.021 20.6124ZM101.11 15.6186H106.083C107.631 15.6186 108.83 15.2281 109.679 14.4472C110.529 13.6526 110.954 12.5634 110.954 11.1796C110.954 9.76846 110.549 8.65872 109.741 7.85039C108.946 7.04206 107.72 6.6379 106.062 6.6379H101.11V15.6186Z" fill="#E6E6E6"/>
<path d="M131.669 31.977C128.408 31.977 125.75 30.9768 123.695 28.9766C121.654 26.9763 120.633 24.3116 120.633 20.9823V20.4069C120.633 18.1737 121.065 16.1803 121.928 14.4266C122.791 12.6593 124.01 11.3029 125.586 10.3576C127.175 9.39855 128.983 8.91903 131.011 8.91903C134.053 8.91903 136.443 9.87807 138.183 11.7961C139.937 13.7142 140.814 16.4338 140.814 19.9548V22.3798H126.654C126.846 23.832 127.422 24.9966 128.381 25.8734C129.353 26.7502 130.58 27.1887 132.059 27.1887C134.347 27.1887 136.135 26.3598 137.423 24.702L140.341 27.9696C139.451 29.23 138.245 30.2165 136.724 30.9289C135.203 31.6276 133.518 31.977 131.669 31.977ZM130.991 13.7279C129.812 13.7279 128.853 14.1252 128.113 14.9199C127.387 15.7145 126.921 16.8516 126.716 18.3313H134.977V17.8586C134.95 16.5434 134.594 15.5295 133.909 14.8171C133.224 14.091 132.251 13.7279 130.991 13.7279Z" fill="#E6E6E6"/>
<path d="M143.28 20.2836C143.28 16.8174 144.054 14.0567 145.602 12.0016C147.164 9.94657 149.294 8.91903 151.993 8.91903C154.158 8.91903 155.946 9.72736 157.357 11.344V0H163.317V31.566H157.953L157.665 29.2026C156.186 31.0522 154.281 31.977 151.952 31.977C149.336 31.977 147.232 30.9494 145.643 28.8944C144.068 26.8256 143.28 23.9553 143.28 20.2836ZM149.219 20.7152C149.219 22.7976 149.582 24.3938 150.308 25.5035C151.034 26.6132 152.089 27.1681 153.473 27.1681C155.309 27.1681 156.604 26.394 157.357 24.8459V16.0707C156.617 14.5225 155.336 13.7485 153.514 13.7485C150.651 13.7485 149.219 16.0707 149.219 20.7152Z" fill="#E6E6E6"/>
<path d="M118.434 70.9207C118.201 74.1403 117.009 76.6749 114.858 78.5245C112.721 80.374 109.899 81.2988 106.391 81.2988C102.555 81.2988 99.5342 80.011 97.3284 77.4353C95.1363 74.8459 94.0403 71.2974 94.0403 66.79V64.961C94.0403 62.0839 94.5472 59.5493 95.561 57.3572C96.5749 55.1651 98.0203 53.4868 99.8972 52.3222C101.788 51.144 103.98 50.5549 106.473 50.5549C109.926 50.5549 112.707 51.4797 114.817 53.3292C116.927 55.1788 118.146 57.775 118.475 61.118H112.31C112.159 59.1862 111.618 57.7887 110.686 56.9256C109.768 56.0488 108.364 55.6104 106.473 55.6104C104.418 55.6104 102.877 56.3502 101.85 57.8298C100.836 59.2958 100.315 61.5769 100.288 64.6732V66.9338C100.288 70.1672 100.774 72.5305 101.747 74.0238C102.733 75.5172 104.281 76.2639 106.391 76.2639C108.296 76.2639 109.714 75.8323 110.645 74.9692C111.591 74.0923 112.132 72.7428 112.269 70.9207H118.434Z" fill="#E6E6E6"/>
<path d="M134.587 64.2211C133.779 64.1115 133.066 64.0567 132.45 64.0567C130.203 64.0567 128.73 64.8171 128.031 66.3379V80.8878H122.092V58.6519H127.702L127.867 61.3029C129.059 59.2615 130.71 58.2409 132.82 58.2409C133.477 58.2409 134.094 58.3299 134.669 58.508L134.587 64.2211Z" fill="#E6E6E6"/>
<path d="M135.799 69.5643C135.799 67.3585 136.224 65.3925 137.074 63.6663C137.923 61.94 139.142 60.6042 140.732 59.6589C142.335 58.7135 144.191 58.2409 146.301 58.2409C149.301 58.2409 151.747 59.1588 153.637 60.9947C155.542 62.8305 156.604 65.324 156.823 68.4751L156.864 69.9959C156.864 73.4073 155.912 76.1474 154.007 78.2162C152.103 80.2713 149.548 81.2988 146.342 81.2988C143.136 81.2988 140.574 80.2713 138.656 78.2162C136.752 76.1611 135.799 73.3662 135.799 69.8315V69.5643ZM141.739 69.9959C141.739 72.1058 142.136 73.7224 142.931 74.8459C143.725 75.9556 144.862 76.5105 146.342 76.5105C147.781 76.5105 148.904 75.9625 149.712 74.8664C150.521 73.7567 150.925 71.9893 150.925 69.5643C150.925 67.4956 150.521 65.8926 149.712 64.7554C148.904 63.6183 147.767 63.0497 146.301 63.0497C144.849 63.0497 143.725 63.6183 142.931 64.7554C142.136 65.8789 141.739 67.6257 141.739 69.9959Z" fill="#E6E6E6"/>
<path d="M172.565 74.7431C172.565 74.017 172.202 73.4484 171.476 73.0374C170.763 72.6127 169.612 72.2359 168.023 71.9071C162.735 70.7974 160.09 68.5505 160.09 65.1665C160.09 63.1936 160.906 61.5495 162.536 60.2343C164.18 58.9053 166.324 58.2409 168.968 58.2409C171.791 58.2409 174.044 58.9053 175.73 60.2343C177.428 61.5632 178.278 63.2895 178.278 65.4131H172.339C172.339 64.5636 172.065 63.8649 171.517 63.3169C170.969 62.7552 170.112 62.4743 168.948 62.4743C167.948 62.4743 167.174 62.7004 166.626 63.1525C166.078 63.6046 165.804 64.18 165.804 64.8788C165.804 65.5364 166.112 66.0707 166.728 66.4817C167.359 66.879 168.413 67.2284 169.893 67.5298C171.373 67.8175 172.62 68.1463 173.633 68.5162C176.771 69.6671 178.34 71.6605 178.34 74.4965C178.34 76.5242 177.47 78.1682 175.73 79.4287C173.99 80.6754 171.743 81.2988 168.989 81.2988C167.126 81.2988 165.468 80.97 164.016 80.3124C162.577 79.6411 161.447 78.73 160.625 77.5791C159.803 76.4146 159.392 75.161 159.392 73.8183H165.023C165.077 74.8733 165.468 75.6816 166.194 76.2433C166.92 76.805 167.893 77.0859 169.112 77.0859C170.249 77.0859 171.106 76.8736 171.681 76.4488C172.27 76.0104 172.565 75.4418 172.565 74.7431Z" fill="#E6E6E6"/>
<path d="M194.225 74.7431C194.225 74.017 193.862 73.4484 193.136 73.0374C192.424 72.6127 191.273 72.2359 189.684 71.9071C184.395 70.7974 181.751 68.5505 181.751 65.1665C181.751 63.1936 182.566 61.5495 184.196 60.2343C185.841 58.9053 187.985 58.2409 190.629 58.2409C193.451 58.2409 195.705 58.9053 197.39 60.2343C199.089 61.5632 199.938 63.2895 199.938 65.4131H193.999C193.999 64.5636 193.725 63.8649 193.177 63.3169C192.629 62.7552 191.773 62.4743 190.608 62.4743C189.608 62.4743 188.834 62.7004 188.286 63.1525C187.738 63.6046 187.464 64.18 187.464 64.8788C187.464 65.5364 187.772 66.0707 188.389 66.4817C189.019 66.879 190.074 67.2284 191.554 67.5298C193.033 67.8175 194.28 68.1463 195.294 68.5162C198.431 69.6671 200 71.6605 200 74.4965C200 76.5242 199.13 78.1682 197.39 79.4287C195.65 80.6754 193.403 81.2988 190.649 81.2988C188.786 81.2988 187.128 80.97 185.676 80.3124C184.238 79.6411 183.107 78.73 182.285 77.5791C181.463 76.4146 181.052 75.161 181.052 73.8183H186.683C186.738 74.8733 187.128 75.6816 187.854 76.2433C188.581 76.805 189.553 77.0859 190.773 77.0859C191.91 77.0859 192.766 76.8736 193.342 76.4488C193.931 76.0104 194.225 75.4418 194.225 74.7431Z" fill="#E6E6E6"/>
</svg>
