<svg width="200" height="40" viewBox="0 0 200 40" fill="none" xmlns="http://www.w3.org/2000/svg">
<path d="M188.864 30.9092L193.636 3.63647H196.818L195.454 11.591H198.636L197.727 15.4547H194.773L192.727 27.2728H200L199.318 30.9092H188.864Z" fill="#E6E6E6"/>
<path d="M187.273 18.8635H184.091L184.545 15.2272H175L172.273 30.909H169.091L172.5 11.5908H188.409L187.273 18.8635Z" fill="#E6E6E6"/>
<path fill-rule="evenodd" clip-rule="evenodd" d="M148.182 11.5908L144.773 31.1363H164.318L165 27.2726H148.636L149.318 23.1817H165.682L167.727 11.5908H148.182ZM150.682 15.4545L150 19.3182H162.954L163.863 15.4545H150.682Z" fill="#E6E6E6"/>
<path d="M2.72729 16.8182L3.63639 11.3636H19.0909L30 0H36.1364L22.7273 14.3182L30.9091 31.1364H24.5455L17.5 16.8182H2.72729Z" fill="#E6E6E6"/>
<path d="M4.54545 5.22727L5.45455 0H27.5L22.2727 5.22727H4.54545Z" fill="#CE341F"/>
<path d="M5.45455 25.6818H1.13636L0 30.9091H4.54545L5.45455 25.6818Z" fill="#CE341F"/>
<path d="M38.6365 7.50009L39.3183 3.40918H42.5001L41.8183 7.50009H38.6365Z" fill="#E6E6E6"/>
<path d="M34.5454 30.909L37.9545 11.3635H41.1363L37.7272 30.909H34.5454Z" fill="#E6E6E6"/>
<path fill-rule="evenodd" clip-rule="evenodd" d="M45.6819 11.5908H65.4546L60.6819 39.0908H40.9092L41.591 35.2272H57.9546L58.6365 31.1363H42.0455L45.6819 11.5908ZM48.1818 15.4545L46.1364 27.2727H59.3182L61.3636 15.4545H48.1818Z" fill="#E6E6E6"/>
<path d="M68.6365 14.3182L82.5001 0H88.8637L77.7274 11.5909H99.5456L98.4092 17.0455H76.591L83.6365 31.1364H77.0456L68.6365 14.3182Z" fill="#E6E6E6"/>
<path d="M86.3637 5.22727L91.591 0H97.2728L96.3637 5.22727H86.3637Z" fill="#CE341F"/>
<path d="M92.2728 25.9091H83.6365L85.9092 31.1364H91.1365L92.2728 25.9091Z" fill="#CE341F"/>
<path d="M107.727 21.3635L101.818 11.5908H106.591L110.682 18.1817L117.046 11.5908H121.364L112.273 21.3635L117.955 30.909H113.409L109.546 24.0908L102.955 30.909H98.6365L107.727 21.3635Z" fill="#E6E6E6"/>
<path fill-rule="evenodd" clip-rule="evenodd" d="M123.864 11.3635L119.091 39.0908H122.273L123.636 30.909H140.227L143.636 11.5908L123.864 11.3635ZM126.591 15.2273L124.318 27.2727H137.727L139.773 15.2273H126.591Z" fill="#E6E6E6"/>
</svg>
