<svg width="200" height="37" viewBox="0 0 200 37" fill="none" xmlns="http://www.w3.org/2000/svg">
<path fill-rule="evenodd" clip-rule="evenodd" d="M162.264 11C162.264 4.92486 167.189 0 173.264 0H189C195.075 0 200 4.92487 200 11V17.6793C200 23.7544 195.075 28.6792 189 28.6792H182.704L170.943 36.9811L172.075 28.6792L172.491 28.6525C166.776 28.2555 162.264 23.4943 162.264 17.6792V11ZM181.45 23.2572C184.747 20.8173 190.943 16.2321 190.943 11.3208C190.943 6.79245 186.796 6.41509 186.038 6.41509C181.887 6.41514 180.755 10.566 180.755 10.566C180.755 10.566 180.23 6.41509 175.849 6.41509C175.094 6.41509 170.943 6.79245 170.943 11.3208C170.943 15.6622 176.559 20.2991 179.681 22.8776C180.087 23.2128 180.451 23.5132 180.755 23.7736C180.967 23.6143 181.2 23.4419 181.45 23.2572Z" fill="#CE341F"/>
<path d="M16.0273 21.8242C16.0273 22.6709 15.8476 23.4921 15.4884 24.2875C15.1291 25.083 14.6159 25.7887 13.9488 26.4045C13.2816 27.0204 12.4733 27.5079 11.5239 27.8672C10.6001 28.2264 9.54802 28.406 8.36764 28.406C7.52085 28.406 6.69971 28.3419 5.90424 28.2136C5.13443 28.1109 4.41594 27.9826 3.74877 27.8287C3.10726 27.6491 2.5299 27.4566 2.0167 27.2513C1.52915 27.046 0.282264 26.0445 0 25.8649L2.70953 22.5555C2.86349 22.6838 3.13292 22.8506 3.51783 23.0558C3.92839 23.2611 4.40311 23.4664 4.94198 23.6717C5.48085 23.877 6.04537 24.0566 6.63556 24.2106C7.22575 24.3389 7.79028 24.403 8.32915 24.403C8.97066 24.403 9.4967 24.2619 9.90726 23.9796C10.3435 23.6717 10.5616 23.2611 10.5616 22.7479C10.5616 22.44 10.6506 21.6445 10.1887 21.3366C9.75245 21.003 8.67924 20.5819 8.67924 20.5819C8.67924 20.5819 6.82802 19.9638 6.05821 19.5532C5.28839 19.117 4.5699 18.6551 3.90273 18.1675C3.23556 17.6543 2.67104 17.1155 2.20915 16.5509C1.77292 15.9864 1.55481 15.3834 1.55481 14.7419C1.55481 13.8181 1.73443 12.9585 2.09368 12.163C2.47858 11.3419 3.00462 10.6362 3.67179 10.046C4.36462 9.45585 5.16009 8.99396 6.05821 8.66038C6.98198 8.32679 7.98273 8.16 9.06047 8.16C9.70198 8.16 10.3307 8.22415 10.9465 8.35245C11.588 8.45509 12.1782 8.5834 12.7171 8.73736C13.2559 8.89132 13.7307 9.07094 14.1412 9.27623C14.5518 9.45585 15.6181 10.2392 15.8491 10.3932L13.2559 13.7411C13.1533 13.6385 12.9608 13.4974 12.6786 13.3177C12.3963 13.1125 12.0499 12.92 11.6393 12.7404C11.2544 12.5608 10.831 12.4068 10.3691 12.2785C9.90726 12.1245 9.45821 12.0475 9.02198 12.0475C8.22651 12.0475 7.64915 12.2528 7.2899 12.6634C6.95632 13.074 6.78953 13.5358 6.78953 14.0491C6.78953 14.3313 7.02047 14.6392 7.48236 14.9728C7.67662 15.1131 8.74504 15.3318 9.43396 15.6762C10.1887 16.0536 10.8218 16.1917 11.5522 16.5509C12.0755 16.8083 12.9177 17.0755 13.5849 17.563C14.2777 18.0506 15.0098 19.2883 15.4717 19.8272C15.9336 20.366 16.0273 21.2083 16.0273 21.8242Z" fill="#E6E6E6"/>
<path d="M25.2336 3.19472C25.2336 3.63094 25.1438 4.05434 24.9642 4.46491C24.7846 4.84981 24.5408 5.1834 24.2329 5.46566C23.9506 5.74792 23.6042 5.97887 23.1936 6.15849C22.8087 6.31245 22.3853 6.38943 21.9234 6.38943C21.4615 6.38943 21.0253 6.31245 20.6148 6.15849C20.2299 5.97887 19.8834 5.74792 19.5755 5.46566C19.2932 5.1834 19.0623 4.84981 18.8827 4.46491C18.7031 4.05434 18.6132 3.63094 18.6132 3.19472C18.6132 2.75849 18.7031 2.34792 18.8827 1.96302C19.0623 1.57811 19.2932 1.24453 19.5755 0.962263C19.8834 0.65434 20.2299 0.423396 20.6148 0.269433C21.0253 0.0898109 21.4615 0 21.9234 0C22.3853 0 22.8087 0.0898109 23.1936 0.269433C23.6042 0.423396 23.9506 0.65434 24.2329 0.962263C24.5408 1.24453 24.7846 1.57811 24.9642 1.96302C25.1438 2.34792 25.2336 2.75849 25.2336 3.19472ZM19.1906 27.7517V8.42943H24.6563V27.7517H19.1906Z" fill="#E6E6E6"/>
<path d="M40.8446 27.7517V15.3577C40.8446 14.6649 40.6521 14.0106 40.2672 13.3947C39.8823 12.7532 39.2921 12.4325 38.4967 12.4325C38.0604 12.4325 37.6499 12.5479 37.265 12.7789C36.9057 12.9842 36.585 13.2408 36.3027 13.5487C36.0204 13.8566 35.7767 14.1902 35.5714 14.5494C35.3918 14.883 35.2763 15.1781 35.225 15.4347V27.7517H29.7593V8.42943H34.994V10.9698C35.071 10.7645 35.2506 10.4951 35.5329 10.1615C35.8408 9.82792 36.2001 9.49434 36.6106 9.16076C37.0468 8.82717 37.5216 8.54491 38.0348 8.31396C38.5736 8.08302 39.1125 7.96755 39.6514 7.96755C40.9601 7.96755 42.0378 8.19849 42.8846 8.66038C43.7314 9.12226 44.4114 9.69962 44.9246 10.3925C45.4378 11.0853 45.797 11.8423 46.0023 12.6634C46.2076 13.4589 46.3102 14.203 46.3102 14.8958V27.7517H40.8446Z" fill="#E6E6E6"/>
<path d="M65.3528 11.8936C65.4554 12.0989 65.6222 12.5094 65.8532 13.1253C66.1098 13.7155 66.2381 14.3826 66.2381 15.1268C66.2381 16.2302 66.0585 17.2438 65.6992 18.1675C65.3656 19.0657 64.8524 19.8483 64.1596 20.5155C63.4924 21.157 62.6585 21.6574 61.6577 22.0166C60.6569 22.3759 59.5151 22.5555 58.232 22.5555C57.9241 22.5555 57.6034 22.6581 57.2698 22.8634C56.9362 23.043 56.7694 23.2611 56.7694 23.5177C56.7694 23.8257 56.8977 24.0823 57.1543 24.2875C57.4366 24.4928 57.7958 24.5955 58.232 24.5955C59.4894 24.5955 60.6826 24.7494 61.8117 25.0574C62.9407 25.3396 63.9286 25.7502 64.7754 26.2891C65.6479 26.8023 66.3407 27.4181 66.8539 28.1366C67.3671 28.8551 67.6237 29.6506 67.6237 30.523C67.6237 31.2159 67.3928 31.9215 66.9309 32.64C66.469 33.3585 65.8147 34.0128 64.9679 34.603C64.1468 35.2189 63.1588 35.7064 62.0041 36.0657C60.8751 36.4506 59.6177 36.643 58.232 36.643C56.949 36.643 55.7686 36.5147 54.6909 36.2581C53.6132 36.0015 52.6766 35.6294 51.8811 35.1419C51.0856 34.68 50.4569 34.1155 49.9951 33.4483C49.5588 32.7811 49.3408 32.037 49.3408 31.2158C49.3408 30.5743 49.5332 29.9713 49.9181 29.4068C50.303 28.8679 50.7649 28.406 51.3037 28.0211C51.8683 27.6362 52.4328 27.3411 52.9973 27.1359C53.5875 26.9049 54.0751 26.7766 54.46 26.7509C54.3317 26.7253 54.1136 26.674 53.8056 26.597C53.5234 26.4943 53.2154 26.3532 52.8819 26.1736C52.5483 25.994 52.2532 25.763 51.9966 25.4808C51.7656 25.1728 51.6502 24.7879 51.6502 24.326C51.6502 24.0181 51.74 23.723 51.9196 23.4408C52.0992 23.1585 52.3173 22.9019 52.5739 22.6709C52.8562 22.44 53.1385 22.2604 53.4207 22.1321C53.703 21.9781 53.9468 21.8755 54.152 21.8242C53.8185 21.6445 53.4207 21.4136 52.9588 21.1313C52.5226 20.8234 52.0992 20.4128 51.6886 19.8996C51.3037 19.3608 50.9702 18.7064 50.6879 17.9366C50.4056 17.1668 50.2645 16.2302 50.2645 15.1268C50.2645 14.357 50.4313 13.5487 50.7649 12.7019C51.0985 11.8551 51.5988 11.0853 52.266 10.3925C52.9332 9.69962 53.7543 9.12226 54.7294 8.66038C55.7302 8.19849 56.8977 7.96755 58.232 7.96755C59.0788 7.96755 59.823 8.0317 60.4645 8.16C61.106 8.2883 61.5037 8.37811 61.6577 8.42943H67.8547V11.8936H65.3528ZM60.8879 15.1268C60.8879 14.2543 60.6698 13.5102 60.2336 12.8943C59.823 12.2785 59.1558 11.9706 58.232 11.9706C57.7445 11.9706 57.3339 12.0732 57.0003 12.2785C56.6668 12.4838 56.3973 12.7404 56.192 13.0483C55.9868 13.3562 55.8328 13.7026 55.7302 14.0875C55.6532 14.4468 55.6147 14.7932 55.6147 15.1268C55.6147 15.5374 55.6532 15.9479 55.7302 16.3585C55.8328 16.7691 55.9868 17.1411 56.192 17.4747C56.3973 17.7826 56.6668 18.0392 57.0003 18.2445C57.3339 18.4498 57.7445 18.5525 58.232 18.5525C58.7453 18.5525 59.1686 18.4626 59.5022 18.283C59.8358 18.0777 60.1053 17.8211 60.3105 17.5132C60.5158 17.1796 60.6569 16.8075 60.7339 16.397C60.8366 15.9864 60.8879 15.563 60.8879 15.1268ZM62.2736 30.523C62.2736 30.0611 61.9271 29.6249 61.2343 29.2143C60.5415 28.8038 59.5407 28.5985 58.232 28.5985C57.1286 28.5985 56.2177 28.8038 55.4992 29.2143C54.8064 29.6249 54.46 30.0611 54.46 30.523C54.46 31.1132 54.7936 31.6136 55.4607 32.0242C56.1279 32.4347 57.0517 32.64 58.232 32.64C59.5407 32.64 60.5415 32.4091 61.2343 31.9472C61.9271 31.5109 62.2736 31.0362 62.2736 30.523Z" fill="#E6E6E6"/>
<path d="M80.4751 27.2898C80.3211 27.3668 80.103 27.4566 79.8207 27.5592C79.5641 27.6619 79.2562 27.7517 78.897 27.8287C78.5634 27.9313 78.2041 28.0211 77.8192 28.0981C77.4343 28.1751 77.0494 28.2136 76.6645 28.2136C75.5098 28.2136 74.5604 28.034 73.8162 27.6747C73.0977 27.3155 72.5204 26.8536 72.0841 26.2891C71.6736 25.6989 71.3913 25.0445 71.2373 24.326C71.0834 23.6075 71.0064 22.8891 71.0064 22.1706V0.461885H76.4721V21.9396C76.4721 22.4528 76.5106 22.8762 76.5875 23.2098C76.6902 23.5177 76.9083 23.6717 77.2419 23.6717C77.3958 23.6717 77.6268 23.5947 77.9347 23.4408C78.2683 23.2868 78.4992 23.12 78.6275 22.9404L80.4751 27.2898Z" fill="#E6E6E6"/>
<path d="M87.0137 19.3223C87.0137 19.8868 87.1035 20.4513 87.2831 21.0159C87.4627 21.5547 87.7193 22.0551 88.0529 22.517C88.4122 22.9532 88.8484 23.3125 89.3616 23.5947C89.9005 23.8513 90.5035 23.9796 91.1706 23.9796C91.7352 23.9796 92.2869 23.9155 92.8257 23.7872C93.3903 23.6589 93.9035 23.5049 94.3654 23.3253C94.8273 23.1457 95.4717 22.846 95.4717 22.846L96.6038 22.4687L98.2144 26.4815C97.9834 26.6098 97.6242 26.7766 97.1367 26.9819C96.6491 27.1615 96.0718 27.3411 95.4046 27.5208C94.7374 27.7004 93.9933 27.8543 93.1722 27.9826C92.351 28.1366 91.4914 28.2136 90.5933 28.2136C88.7714 28.2136 87.2831 27.88 86.1284 27.2128C84.9737 26.52 84.0627 25.6604 83.3956 24.634C82.7284 23.5819 82.2665 22.44 82.0099 21.2083C81.779 19.9509 81.6635 18.7449 81.6635 17.5902C81.6635 16.6921 81.8431 15.6913 82.2023 14.5879C82.5616 13.4589 83.0876 12.4068 83.7805 11.4317C84.499 10.4566 85.3842 9.63547 86.4363 8.9683C87.514 8.30113 88.7714 7.96755 90.2084 7.96755C91.8506 7.96755 93.1978 8.32679 94.2499 9.04528C95.3276 9.73811 96.1872 10.5977 96.8288 11.6242C97.4703 12.6249 97.9193 13.677 98.1759 14.7804C98.4325 15.8838 98.5608 16.8204 98.5608 17.5902V19.3223H87.0137ZM93.4416 15.8581C93.4159 15.6015 93.3261 15.2551 93.1722 14.8189C93.0182 14.3826 92.8129 13.9592 92.5563 13.5487C92.2997 13.1125 91.979 12.7404 91.594 12.4325C91.2091 12.1245 90.7729 11.9706 90.2854 11.9706C89.7465 11.9706 89.2846 12.1117 88.8997 12.394C88.5148 12.6506 88.194 12.9842 87.9374 13.3947C87.6808 13.8053 87.4884 14.2415 87.3601 14.7034C87.2318 15.1396 87.1548 15.5245 87.1291 15.8581H93.4416Z" fill="#E6E6E6"/>
<path d="M124.363 27.7517V25.2113C124.234 25.4936 124.016 25.8143 123.708 26.1736C123.426 26.5072 123.08 26.8279 122.669 27.1359C122.259 27.4438 121.822 27.7004 121.36 27.9057C120.899 28.1109 120.437 28.2136 119.975 28.2136C118.435 28.2136 117.165 27.8928 116.164 27.2513C115.163 26.5842 114.355 25.7374 113.739 24.7109C113.149 23.6845 112.726 22.5426 112.469 21.2853C112.238 20.0279 112.123 18.7962 112.123 17.5902C112.123 16.4355 112.302 15.2936 112.662 14.1645C113.046 13.0098 113.585 11.9706 114.278 11.0468C114.971 10.123 115.792 9.37887 116.742 8.81434C117.717 8.24981 118.794 7.96755 119.975 7.96755C120.462 7.96755 120.924 8.08302 121.36 8.31396C121.822 8.51925 122.233 8.78868 122.592 9.12226C122.977 9.43019 123.298 9.76377 123.554 10.123C123.811 10.4566 124.003 10.7389 124.132 10.9698V0.461885H129.597V27.7517H124.363ZM124.132 15.6657C124.08 15.4091 123.965 15.1011 123.785 14.7419C123.606 14.357 123.375 13.9977 123.092 13.6642C122.81 13.3049 122.489 13.0098 122.13 12.7789C121.797 12.5479 121.463 12.4325 121.129 12.4325C120.539 12.4325 120.026 12.5992 119.59 12.9328C119.179 13.2408 118.833 13.6513 118.551 14.1645C118.268 14.6521 118.05 15.2038 117.896 15.8196C117.768 16.4355 117.704 17.0257 117.704 17.5902C117.704 18.1804 117.755 18.8347 117.858 19.5532C117.96 20.246 118.127 20.9132 118.358 21.5547C118.615 22.1706 118.961 22.6966 119.397 23.1328C119.859 23.5434 120.437 23.7487 121.129 23.7487C121.463 23.7487 121.797 23.646 122.13 23.4408C122.489 23.2098 122.81 22.9404 123.092 22.6325C123.375 22.2989 123.606 21.9653 123.785 21.6317C123.965 21.2725 124.08 20.9774 124.132 20.7464V15.6657Z" fill="#E6E6E6"/>
<path d="M139.017 19.3223C139.017 19.8868 139.107 20.4513 139.287 21.0159C139.466 21.5547 139.723 22.0551 140.057 22.517C140.416 22.9532 140.852 23.3125 141.365 23.5947C141.904 23.8513 142.507 23.9796 143.174 23.9796C143.739 23.9796 144.291 23.9155 144.829 23.7872C145.394 23.6589 145.907 23.5049 146.369 23.3253C146.857 23.12 147.267 22.9147 147.601 22.7094C147.96 22.4785 148.217 22.286 148.371 22.1321L150.218 26.4815C149.987 26.6098 149.628 26.7766 149.14 26.9819C148.653 27.1615 148.075 27.3411 147.408 27.5208C146.741 27.7004 145.997 27.8543 145.176 27.9826C144.355 28.1366 143.495 28.2136 142.597 28.2136C140.775 28.2136 139.287 27.88 138.132 27.2128C136.977 26.52 136.066 25.6604 135.399 24.634C134.732 23.5819 134.27 22.44 134.014 21.2083C133.783 19.9509 133.667 18.7449 133.667 17.5902C133.667 16.6921 133.847 15.6913 134.206 14.5879C134.565 13.4589 135.091 12.4068 135.784 11.4317C136.503 10.4566 137.388 9.63547 138.44 8.9683C139.518 8.30113 140.775 7.96755 142.212 7.96755C143.854 7.96755 145.202 8.32679 146.254 9.04528C147.331 9.73811 148.191 10.5977 148.832 11.6242C149.474 12.6249 149.923 13.677 150.18 14.7804C150.436 15.8838 150.565 16.8204 150.565 17.5902V19.3223H139.017ZM145.445 15.8581C145.42 15.6015 145.33 15.2551 145.176 14.8189C145.022 14.3826 144.817 13.9592 144.56 13.5487C144.303 13.1125 143.983 12.7404 143.598 12.4325C143.213 12.1245 142.777 11.9706 142.289 11.9706C141.75 11.9706 141.288 12.1117 140.903 12.394C140.518 12.6506 140.198 12.9842 139.941 13.3947C139.685 13.8053 139.492 14.2415 139.364 14.7034C139.235 15.1396 139.159 15.5245 139.133 15.8581H145.445Z" fill="#E6E6E6"/>
<path d="M108.6 25.0189C108.6 25.4552 108.51 25.8786 108.33 26.2891C108.151 26.674 107.907 27.0076 107.599 27.2899C107.317 27.5721 106.97 27.7903 106.56 27.9442C106.175 28.1238 105.751 28.2137 105.289 28.2137C104.828 28.2137 104.391 28.1238 103.981 27.9442C103.596 27.7903 103.249 27.5721 102.942 27.2899C102.659 27.0076 102.428 26.674 102.249 26.2891C102.069 25.8786 101.979 25.4552 101.979 25.0189C101.979 24.5827 102.069 24.1721 102.249 23.7872C102.428 23.4023 102.659 23.0687 102.942 22.7865C103.249 22.4786 103.596 22.2476 103.981 22.0937C104.391 21.914 104.828 21.8242 105.289 21.8242C105.751 21.8242 106.175 21.914 106.56 22.0937C106.97 22.2476 107.317 22.4786 107.599 22.7865C107.907 23.0687 108.151 23.4023 108.33 23.7872C108.51 24.1721 108.6 24.5827 108.6 25.0189Z" fill="#CE341F"/>
</svg>
