<svg width="125" height="108" viewBox="0 0 125 108" fill="none" xmlns="http://www.w3.org/2000/svg">
<path fill-rule="evenodd" clip-rule="evenodd" d="M62.9663 54.2383V67.0187H67.6421C67.6421 67.0187 74.4998 66.7068 74.4998 60.4725C74.4998 54.2381 67.6421 54.2383 67.6421 54.2383H62.9663ZM66.3963 57.3556V63.9016H67.6432C67.6432 63.9016 71.0721 63.2782 71.0721 60.7845C71.0721 57.6673 67.6432 57.3556 67.6432 57.3556H66.3963Z" fill="#CE341F"/>
<path d="M42.083 67.0191H45.5119V60.1613L55.1751 67.6426V54.5504H52.058V61.0965L42.083 53.927V67.0191Z" fill="#CE341F"/>
<path d="M80.1108 66.707V54.2383H88.5272V57.3555H83.228V59.2258H88.5272V62.0312H83.228V64.2132H88.5272V66.707H80.1108Z" fill="#CE341F"/>
<path d="M0 55.1739L3.11717 53.927L7.48121 61.4082L12.157 53.927L14.9624 55.1739L7.48121 67.0191L0 55.1739Z" fill="#CE341F"/>
<path fill-rule="evenodd" clip-rule="evenodd" d="M28.0552 67.3304C32.0148 67.3304 35.2247 64.3996 35.2247 60.7843C35.2247 57.1691 32.0148 54.2383 28.0552 54.2383C24.0956 54.2383 20.8857 57.1691 20.8857 60.7843C20.8857 64.3996 24.0956 67.3304 28.0552 67.3304ZM28.0541 64.2134C30.2921 64.2134 32.1064 62.6782 32.1064 60.7845C32.1064 58.8908 30.2921 57.3556 28.0541 57.3556C25.816 57.3556 24.0017 58.8908 24.0017 60.7845C24.0017 62.6782 25.816 64.2134 28.0541 64.2134Z" fill="#CE341F"/>
<path fill-rule="evenodd" clip-rule="evenodd" d="M97.5664 54.551V67.0197H100.995V62.0322L105.983 67.3314L108.165 65.1494L104.424 61.4088C104.424 61.4088 106.294 61.0971 106.294 57.9799C106.294 54.8627 102.554 54.551 102.554 54.551H97.5664ZM100.997 57.3556V59.2259H102.555C102.555 59.2259 103.179 59.2259 103.179 58.2907C103.179 57.3556 102.243 57.3556 102.243 57.3556H100.997Z" fill="#CE341F"/>
<path fill-rule="evenodd" clip-rule="evenodd" d="M125 53.6153C125 83.2262 100.996 107.231 71.3848 107.231C56.1923 107.231 42.4757 100.912 32.7198 90.7586L35.4447 88.194C44.5184 97.6227 57.267 103.489 71.3859 103.489C98.931 103.489 121.261 81.1598 121.261 53.6147C121.261 26.0697 98.931 3.74001 71.3859 3.74001C51.9283 3.74001 35.0731 14.8823 26.8528 31.1344L23.4434 29.5847C32.2548 12.04 50.4138 0 71.3848 0C100.996 0 125 24.0044 125 53.6153Z" fill="#E5E5E5"/>
</svg>
