<svg width="200" height="77" viewBox="0 0 200 77" fill="none" xmlns="http://www.w3.org/2000/svg">
<path d="M119.615 35.3654C119.615 35.3654 133.402 35.3654 133.926 35.3654V76.6483H145.448V35.3654H158.001L161.299 25.5446H119.615V35.3654ZM186 64.831C184.735 66.5695 183.363 66.9092 181.424 66.9092H175.223V55.1368H181.424C182.909 55.1368 184.446 55.297 185.606 56.4042C186.588 57.332 187.201 59.0176 187.201 60.8043C187.201 62.2784 186.762 63.7446 186.002 64.831H186ZM175.088 35.6138H180.009C180.866 35.6138 182.462 35.6138 183.796 36.189C185.241 36.8027 186.135 38.4259 186.135 40.4288C186.135 41.7924 185.675 43.1384 184.936 43.9412C183.788 45.2134 182.387 45.3192 180.929 45.3192H175.088V35.6138ZM195.398 51.7093C194.277 50.7592 193.001 50.0333 191.634 49.4773C192.698 48.9517 193.672 48.3348 194.496 47.5897C196.85 45.3961 198.09 42.3308 198.09 38.7223C198.09 34.9889 196.707 31.9043 193.862 29.2925C190.392 26.1583 186.569 25.5446 181.142 25.5446H163.697V76.6483H184.257C193.821 76.6483 200 70.9071 200 62.0204C200 57.5755 198.584 54.3965 195.4 51.7093H195.398ZM97.5269 50.397C96.6311 53.0249 95.995 55.0967 95.4614 57.1157C94.7965 54.4526 94.3478 52.8326 93.9632 51.6757C93.9632 51.6757 93.9632 51.6757 85.9547 25.7369L85.8906 25.5366H73.3442L90.3435 76.6403H100.494L117.923 25.5366H105.817L97.522 50.389L97.5269 50.397Z" fill="#E6E6E6"/>
<path d="M47.3862 25.543H8.54692C8.54692 25.543 9.71823 29.2989 11.077 31.2217H45.6316C45.6316 31.2217 52.2269 36.3861 55.3803 45.4265H19.0599C12.7915 40.315 8.09986 33.4057 5.63545 25.543C5.94951 24.5816 6.29402 23.6362 6.67537 22.7068H47.3686C50.5412 20.502 53.693 17.0281 53.693 17.0281H9.52114C10.1076 16.0571 10.7277 15.1101 11.3911 14.192H56.0052C57.1829 12.7643 59.548 8.51327 59.548 8.51327H16.3119C17.3502 7.5118 18.4414 6.56642 19.5791 5.67711H60.8731C62.006 2.96755 62.812 0 62.812 0H17.9591C9.38655 6.10173 2.92428 15.0412 0 25.543C2.89864 35.9262 9.30162 44.9314 17.9351 51.086H18.3389V51.102H62.695C62.695 51.102 61.9099 37.5061 47.3862 25.5414" fill="#E6E6E6"/>
</svg>
