<svg width="200" height="55" viewBox="0 0 200 55" fill="none" xmlns="http://www.w3.org/2000/svg">
<path fillRule="evenodd" clip-rule="evenodd" d="M91.3613 47.7749C91.3613 50.9162 88.8743 53.4031 85.733 53.4031H5.62828C2.48691 53.4031 0 50.9162 0 47.7749V5.62827C0 2.4869 2.48691 0 5.62828 0H85.733C88.8743 0 91.3613 2.4869 91.3613 5.62827V47.7749ZM50.3926 18.4555L52.4869 12.4346H44.2408L42.2775 18.4555H50.3926ZM37.1728 18.4555L36.5183 12.4346H30.2356L26.9633 18.4555H37.1728ZM41.623 20.8115L38.4817 30.4974L37.4345 20.6806L26.0471 20.288L20.9424 29.9738L22.3822 20.1571L14.5288 19.8953L12.3037 40.5759H23.1675L31.4136 23.822L33.1152 40.5759H42.801L49.4764 21.2042L41.623 20.8115ZM22.644 18.4555L23.5602 12.3037H15.3141L14.6597 18.4555H22.644ZM70.1571 12.4346H54.5811L52.6178 18.4555H66.623C70.5498 18.5864 72.3822 21.7277 71.0733 25.6544C69.7644 29.5811 65.8377 32.5916 61.3874 32.8534C60.2094 32.8534 59.8167 32.9843 58.2461 32.8534L62.0419 21.5969L51.5707 21.2042L45.157 40.5759H60.733C68.5864 40.5759 77.0943 34.4241 79.7121 26.4398C82.4607 18.5864 78.0105 12.4346 70.1571 12.4346Z" fill="#E5E5E5"/>
<path fillRule="evenodd" clip-rule="evenodd" d="M109.293 4.4502H114.136L117.801 19.7643L121.073 4.4502H125.262L120.026 24.8691H115.183L111.518 9.29313L107.461 24.8691H102.487L97.5131 4.4502H102.094L105.236 19.7643L109.293 4.4502Z" fill="#E5E5E5"/>
<path fillRule="evenodd" clip-rule="evenodd" d="M128.403 18.8482C128.403 20.6807 128.665 22.3823 130.89 22.3823C132.33 22.3823 133.115 21.8587 133.508 20.5498H137.304C136.911 24.0838 134.162 25.2618 130.89 25.2618C126.047 25.2618 124.084 22.5131 124.084 17.8011C124.084 13.4817 126.571 10.2095 130.89 10.2095C133.508 10.2095 135.733 11.1257 136.911 13.6126C137.304 14.398 137.566 15.3142 137.566 16.0995C137.696 17.0158 137.696 17.932 137.696 18.8482H128.403ZM133.377 16.0995C133.377 14.5288 132.984 13.0891 130.89 13.0891C128.927 13.0891 128.534 14.5288 128.403 16.0995H133.377Z" fill="#E5E5E5"/>
<path fillRule="evenodd" clip-rule="evenodd" d="M146.99 14.3977C146.99 13.4815 146.073 12.9579 145.026 12.9579C143.848 12.9579 143.325 13.3506 143.325 14.2668C143.325 16.492 151.44 15.1831 151.44 20.5496C151.44 23.6909 147.644 25.2616 145.026 25.2616C141.754 25.2616 138.874 23.9527 138.743 20.6805H142.67C142.801 21.7276 143.717 22.382 145.026 22.382C146.204 22.382 147.12 21.8585 147.12 20.8113C147.12 19.6333 145.026 19.2407 144.241 18.9789C141.492 18.3244 139.005 17.8009 139.005 14.3977C139.005 11.3873 142.539 10.0784 145.026 10.0784C148.037 10.0784 150.524 11.1255 150.785 14.2668H146.99V14.3977Z" fill="#E5E5E5"/>
<path fillRule="evenodd" clip-rule="evenodd" d="M153.272 10.6021V7.8534L157.461 6.28271V10.6021H160.602V13.4817H157.461V20.0262C157.461 21.8586 157.723 22.3822 159.162 22.3822C159.555 22.3822 160.079 22.3822 160.471 22.2513V24.7382C159.948 25 157.723 25.1309 157.199 25.1309C153.927 25.1309 153.141 23.4293 153.141 20.288V13.3508H151.571V10.4712H153.272V10.6021Z" fill="#E5E5E5"/>
<path fillRule="evenodd" clip-rule="evenodd" d="M165.576 18.8482C165.576 20.6807 165.838 22.3823 168.063 22.3823C169.503 22.3823 170.288 21.8587 170.681 20.5498H174.476C174.084 24.0838 171.335 25.2618 168.063 25.2618C163.22 25.2618 161.256 22.5131 161.256 17.8011C161.256 13.4817 163.743 10.2095 168.063 10.2095C170.681 10.2095 172.906 11.1257 174.084 13.6126C174.476 14.398 174.738 15.3142 174.738 16.0995C174.869 17.0158 174.869 17.932 174.869 18.8482H165.576ZM170.419 16.0995C170.419 14.5288 170.026 13.0891 167.932 13.0891C165.969 13.0891 165.576 14.5288 165.445 16.0995H170.419Z" fill="#E5E5E5"/>
<path fillRule="evenodd" clip-rule="evenodd" d="M183.508 14.267C182.853 14.267 181.806 14.6597 181.414 15.3141C181.021 16.0995 180.89 16.8848 180.89 17.801V24.8691H176.702V13.4817C176.702 12.8272 176.571 11.6492 176.571 10.6021H180.497L180.628 13.2199C181.544 10.9947 183.377 10.4712 185.471 10.4712L183.508 14.267Z" fill="#E5E5E5"/>
<path fillRule="evenodd" clip-rule="evenodd" d="M190.576 12.3037C191.492 11.1257 192.801 10.2095 195.026 10.2095C196.466 10.2095 199.215 11.2566 199.738 13.3508C200 14.2671 200 15.1833 200 15.576V24.8692H195.811V16.3613C195.811 14.7906 195.419 13.0891 193.325 13.0891C192.016 13.0891 190.838 14.2671 190.838 16.3613V24.8692H186.649V10.6021H190.838V12.3037H190.576Z" fill="#E5E5E5"/>
<path fillRule="evenodd" clip-rule="evenodd" d="M99.0837 28.9268H106.021C112.435 28.9268 116.361 32.0681 116.361 39.1362C116.361 46.2042 112.435 49.3456 106.021 49.3456H99.0837V28.9268ZM103.534 45.9425H105.759C110.995 45.9425 111.78 42.4084 111.78 39.1362C111.78 35.8639 110.995 32.3299 105.759 32.3299H103.534V45.9425Z" fill="#E5E5E5"/>
<path fillRule="evenodd" clip-rule="evenodd" d="M122.644 28.9268V32.5917H118.063V28.9268H122.644ZM122.513 35.0786V49.3456H118.325V35.2095H122.513V35.0786Z" fill="#E5E5E5"/>
<path fillRule="evenodd" clip-rule="evenodd" d="M138.482 48.0366C138.482 51.3088 137.696 54.9737 131.544 54.8428C128.403 54.8428 125 54.0575 125 50.2617H129.058C129.058 51.5706 130.236 51.9633 131.414 51.9633C134.686 51.9633 134.555 49.0837 134.293 46.9894C133.377 48.4292 131.937 48.9528 130.366 48.9528C126.571 48.9528 124.607 45.2879 124.607 41.8847C124.607 38.2198 126.702 34.6858 130.628 34.6858C132.461 34.6858 133.77 35.3402 134.424 36.78V35.0785H138.613V48.0366H138.482ZM131.414 46.2041C133.77 46.2041 134.162 43.8481 134.162 42.0156C134.162 39.9214 133.77 37.5654 131.414 37.5654C129.058 37.5654 128.665 39.9214 128.665 42.0156C128.665 43.8481 129.188 46.2041 131.414 46.2041Z" fill="#E5E5E5"/>
<path fillRule="evenodd" clip-rule="evenodd" d="M145.288 28.9268V32.5917H140.707V28.9268H145.288ZM145.157 35.0786V49.3456H140.969V35.2095H145.157V35.0786Z" fill="#E5E5E5"/>
<path fillRule="evenodd" clip-rule="evenodd" d="M148.299 35.0786V32.33L152.487 30.7593V35.0786H155.628V37.9582H152.487V44.5027C152.487 46.3352 152.749 46.8587 154.189 46.8587C154.581 46.8587 155.105 46.8588 155.497 46.7279V49.2148C154.974 49.4766 152.749 49.6074 152.225 49.6074C148.953 49.6074 148.168 47.9059 148.168 44.7645V37.8273H146.466V34.9478H148.299V35.0786Z" fill="#E5E5E5"/>
<path fillRule="evenodd" clip-rule="evenodd" d="M157.33 39.136C157.33 37.3036 158.115 36.2565 159.293 35.602C160.471 34.9476 161.911 34.6858 163.482 34.6858C166.361 34.6858 169.503 35.7329 169.503 40.0523V47.7748C169.503 48.4292 169.634 48.9528 169.765 49.3455H165.838C165.707 48.691 165.707 48.0366 165.707 47.513C164.791 49.2146 163.22 49.869 161.388 49.869C158.77 49.869 156.806 48.2983 156.806 45.5497C156.806 44.5025 157.199 42.1465 159.817 41.0994C161.518 40.3141 163.613 40.3141 165.314 40.3141V39.0052C165.314 38.3507 164.922 37.3036 163.351 37.3036C161.911 37.3036 161.388 38.7434 161.518 39.3978H157.33V39.136ZM160.733 44.8952C160.733 46.0732 161.649 46.9894 162.827 46.9894C165.183 46.9894 165.314 44.3717 165.314 42.6701C163.744 42.6701 160.733 42.5392 160.733 44.8952Z" fill="#E5E5E5"/>
<path fillRule="evenodd" clip-rule="evenodd" d="M176.309 28.9268V49.3456H172.12V28.9268H176.309Z" fill="#E5E5E5"/>
<path fillRule="evenodd" clip-rule="evenodd" d="M178.534 31.2829C178.534 29.5814 179.843 28.2725 181.675 28.2725C183.377 28.2725 184.686 29.5814 184.686 31.2829C184.686 32.9845 183.377 34.4243 181.675 34.4243C179.843 34.4243 178.534 32.9845 178.534 31.2829ZM184.162 31.2829C184.162 29.8431 182.984 28.796 181.675 28.796C180.236 28.796 179.189 29.974 179.189 31.2829C179.189 32.7227 180.367 33.7698 181.675 33.7698C182.984 33.9007 184.162 32.7227 184.162 31.2829ZM180.89 31.5447V33.1154H180.367V29.4505H181.545C182.199 29.4505 182.853 29.5814 182.853 30.4976C182.853 30.8903 182.592 31.2829 182.068 31.2829C182.592 31.4138 182.592 31.5447 182.723 31.9374C182.723 32.33 182.853 32.5918 182.984 32.9845H182.199C182.199 32.7227 182.068 32.5918 182.068 32.3301C182.068 32.0683 182.068 31.6756 181.806 31.5447C181.675 31.4138 181.544 31.4138 181.283 31.4138H180.89V31.5447ZM181.545 30.8903C182.068 30.8903 182.199 30.6285 182.199 30.3667C182.199 30.1049 182.068 29.974 181.675 29.974H181.021V30.8903H181.545Z" fill="#E5E5E5"/>
</svg>
