<svg width="374" height="754" viewBox="0 0 374 754" fill="none" xmlns="http://www.w3.org/2000/svg">
<g opacity="0.2">
<path d="M36.8866 474.94L32.192 466.749L24.0001 471.443" stroke="#E4E4E4" strokeWidth="0.7"/>
<circle cx="190.436" cy="32.4366" r="10.9409" transform="rotate(-173.845 190.436 32.4366)" stroke="#E4E4E4" strokeWidth="0.7"/>
<path d="M195.518 32.9846C196.167 26.9729 201.505 22.6258 207.434 23.2652C213.363 23.9046 217.652 29.2899 217.003 35.3016C216.355 41.3132 211.017 45.6603 205.088 45.0209C199.159 44.3816 194.87 38.9962 195.518 32.9846Z" stroke="#E4E4E4" strokeWidth="0.7"/>
<circle cx="222.085" cy="35.8497" r="10.9409" transform="rotate(-173.845 222.085 35.8497)" stroke="#E4E4E4" strokeWidth="0.7"/>
<path d="M164.754 629.6C161.605 632.836 156.466 632.933 153.276 629.829C150.086 626.725 150.043 621.586 153.192 618.349C156.341 615.113 161.48 615.016 164.67 618.12C167.859 621.224 167.903 626.364 164.754 629.6Z" stroke="#E4E4E4" strokeWidth="0.7"/>
<path d="M172.041 636.691C168.892 639.927 163.753 640.024 160.563 636.92C157.373 633.816 157.33 628.676 160.479 625.44C163.628 622.204 168.767 622.107 171.957 625.211C175.146 628.315 175.19 633.454 172.041 636.691Z" stroke="#E4E4E4" strokeWidth="0.7"/>
<path d="M279.562 738.212L299.573 712.319L311.991 742.596L279.562 738.212Z" stroke="#E4E4E4" strokeWidth="0.7"/>
<path d="M23.0676 628.431L40.5176 633.818C54.727 638.204 62.6902 653.279 58.3038 667.489V667.489C51.0389 691.023 64.2279 715.991 87.7623 723.256L94.0468 725.196M23.0676 628.431L25.4397 632.922M23.0676 628.431L27.5582 626.059M94.0468 725.196L91.8723 721.079M94.0468 725.196L89.9303 727.37" stroke="#E4E4E4" strokeWidth="0.7"/>
<circle opacity="0.4" cx="47.0812" cy="306.945" r="7.54645" transform="rotate(-76.5416 47.0812 306.945)" fill="white" stroke="#E4E4E4" strokeWidth="0.7"/>
<path d="M48.9187 299.265L55.4824 271.838" stroke="#E4E4E4" strokeWidth="0.7"/>
<path d="M38.6792 342.051L45.2429 314.624" stroke="#E4E4E4" strokeWidth="0.7"/>
<circle opacity="0.4" cx="288.133" cy="132.576" r="5.04068" transform="rotate(35.2833 288.133 132.576)" fill="white" stroke="#E4E4E4" strokeWidth="0.7"/>
<circle cx="263.801" cy="115.358" r="5.04068" transform="rotate(35.2833 263.801 115.358)" stroke="#E4E4E4" strokeWidth="0.7"/>
<path d="M283.549 129.721L268.018 118.731" stroke="#E4E4E4" strokeWidth="0.7"/>
<path d="M66.5001 133.5L66.5001 143M66.5001 133.5L57.0001 133.5M66.5001 133.5L66.5001 124M66.5001 133.5L76.0001 133.5" stroke="#E4E4E4" strokeWidth="0.7"/>
<path d="M314 436L314 444M314 436L306 436M314 436L314 428M314 436L322 436" stroke="#E4E4E4" strokeWidth="0.7"/>
<circle cx="342.268" cy="293.818" r="8.94703" transform="rotate(-30 342.268 293.818)" stroke="#E4E4E4" strokeWidth="0.7"/>
<path d="M344.879 315.571L344.879 281.726L374.189 298.649L344.879 315.571Z" stroke="#E4E4E4" strokeWidth="0.7"/>
<path d="M46.6782 18.6018C45.2137 17.0827 45.2446 14.6895 46.7314 13.2561C48.2182 11.8227 50.611 11.8792 52.0755 13.3983C53.54 14.9174 53.5091 17.3106 52.0223 18.744C50.5355 20.1774 48.1428 20.1209 46.6782 18.6018Z" stroke="#E4E4E4" strokeWidth="0.7"/>
<path d="M46.4263 18.8442L35.8884 29.0037" stroke="#E4E4E4" strokeWidth="0.7"/>
<path d="M62.8654 2.99561L52.3275 13.155" stroke="#E4E4E4" strokeWidth="0.7"/>
<rect x="356.393" y="47.4838" width="6.88566" height="6.88566" transform="rotate(38.8449 356.393 47.4838)" stroke="#E4E4E4" strokeWidth="0.7"/>
<rect x="349.548" y="22.4921" width="48.3151" height="31.9767" transform="rotate(38.8449 349.548 22.4921)" stroke="#E4E4E4" strokeWidth="0.7"/>
<rect x="349.548" y="22.4921" width="48.3151" height="6.30215" transform="rotate(38.8449 349.548 22.4921)" stroke="#E4E4E4" strokeWidth="0.7"/>
<path d="M350.026 26.9229L354.116 30.2167" stroke="#E4E4E4" strokeWidth="0.7"/>
<rect x="333.353" y="625.463" width="32.0033" height="34.1132" transform="rotate(-180 333.353 625.463)" stroke="#E4E4E4" strokeWidth="0.7"/>
<rect x="348.65" y="646.562" width="47.3" height="50.4648" transform="rotate(-180 348.65 646.562)" stroke="#E4E4E4" strokeWidth="0.7"/>
</g>
</svg>
