<svg width="552" height="328" viewBox="0 0 552 328" fill="none" xmlns="http://www.w3.org/2000/svg">
<path opacity="0.2" d="M114.299 162.588L119.119 154.47L111 149.65" stroke="#E4E4E4" strokeWidth="0.7"/>
<g opacity="0.2">
<circle cx="428.463" cy="19.4633" r="7.82035" transform="rotate(-170.013 428.463 19.4633)" stroke="#E4E4E4" strokeWidth="0.7"/>
<path d="M432.201 20.1217C432.951 15.8642 436.966 13.0201 441.162 13.759C445.358 14.4979 448.161 18.5424 447.411 22.8C446.661 27.0575 442.646 29.9016 438.45 29.1627C434.254 28.4238 431.452 24.3793 432.201 20.1217Z" stroke="#E4E4E4" strokeWidth="0.7"/>
<circle cx="451.149" cy="23.4579" r="7.82035" transform="rotate(-170.013 451.149 23.4579)" stroke="#E4E4E4" strokeWidth="0.7"/>
</g>
<g opacity="0.2">
<path d="M515.753 218.6C512.604 221.836 507.465 221.933 504.276 218.829C501.086 215.725 501.042 210.586 504.191 207.349C507.34 204.113 512.479 204.016 515.669 207.12C518.859 210.224 518.902 215.364 515.753 218.6Z" stroke="#E4E4E4" strokeWidth="0.7"/>
<path d="M523.04 225.691C519.891 228.927 514.753 229.024 511.563 225.92C508.373 222.816 508.329 217.676 511.478 214.44C514.627 211.204 519.766 211.107 522.956 214.211C526.146 217.315 526.189 222.454 523.04 225.691Z" stroke="#E4E4E4" strokeWidth="0.7"/>
</g>
<path opacity="0.2" d="M23.5986 239.364L35.6226 240.243C45.4136 240.958 52.7709 249.475 52.0556 259.266V259.266C50.8709 275.482 63.0564 289.589 79.2727 290.773L83.6031 291.09M23.5986 239.364L25.7903 241.901M23.5986 239.364L26.1358 237.173M83.6031 291.09L81.5941 288.764M83.6031 291.09L81.2774 293.099" stroke="#E4E4E4" strokeWidth="0.7"/>
<g opacity="0.2">
<circle opacity="0.4" cx="12.9777" cy="120.617" r="4.1742" transform="rotate(-64.5342 12.9777 120.617)" fill="white" stroke="#E4E4E4" strokeWidth="0.7"/>
<path d="M14.9224 116.533L21.8698 101.945" stroke="#E4E4E4" strokeWidth="0.7"/>
<path d="M4.08447 139.291L11.0319 124.703" stroke="#E4E4E4" strokeWidth="0.7"/>
</g>
<g opacity="0.2">
<circle opacity="0.4" cx="431.65" cy="160.754" r="2.93853" transform="rotate(133.892 431.65 160.754)" fill="white" stroke="#E4E4E4" strokeWidth="0.7"/>
<circle cx="444.256" cy="147.649" r="2.93853" transform="rotate(133.892 444.256 147.649)" stroke="#E4E4E4" strokeWidth="0.7"/>
<path d="M433.79 158.25L441.837 149.886" stroke="#E4E4E4" strokeWidth="0.7"/>
</g>
<path opacity="0.2" d="M76 39L76 47M76 39L68 39M76 39L76 31M76 39L84 39" stroke="#E4E4E4" strokeWidth="0.7"/>
<g opacity="0.2">
<path d="M160.509 11.5708C159.79 9.58681 160.794 7.41382 162.735 6.71046C164.677 6.0071 166.839 7.03354 167.558 9.01749C168.276 11.0014 167.273 13.1744 165.331 13.8778C163.39 14.5812 161.228 13.5547 160.509 11.5708Z" stroke="#E4E4E4" strokeWidth="0.7"/>
<path d="M160.18 11.6899L146.418 16.6751" stroke="#E4E4E4" strokeWidth="0.7"/>
<path d="M181.65 3.91309L167.887 8.89821" stroke="#E4E4E4" strokeWidth="0.7"/>
</g>
<g opacity="0.2">
<rect x="533.07" y="76.1675" width="4.99433" height="4.99433" transform="rotate(166.648 533.07 76.1675)" stroke="#E4E4E4" strokeWidth="0.7"/>
<rect x="551.043" y="83.6065" width="36.0941" height="23.8294" transform="rotate(166.648 551.043 83.6065)" stroke="#E4E4E4" strokeWidth="0.7"/>
<rect x="551.043" y="83.6065" width="36.0941" height="4.55631" transform="rotate(166.648 551.043 83.6065)" stroke="#E4E4E4" strokeWidth="0.7"/>
<path d="M548.3 81.916L544.465 82.8264" stroke="#E4E4E4" strokeWidth="0.7"/>
</g>
<g opacity="0.2">
<rect x="475.133" y="312.584" width="21.7835" height="23.2341" transform="rotate(-180 475.133 312.584)" stroke="#E4E4E4" strokeWidth="0.7"/>
<rect x="485.65" y="327.09" width="32.3" height="34.4758" transform="rotate(-180 485.65 327.09)" stroke="#E4E4E4" strokeWidth="0.7"/>
</g>
</svg>
