<svg width="1047" height="663" viewBox="0 0 1047 663" fill="none" xmlns="http://www.w3.org/2000/svg">
<g opacity="0.9">
<path opacity="0.3" d="M194.878 132.3L201.185 112.579C206.321 96.5198 223.503 87.6649 239.562 92.8008V92.8008C266.159 101.307 294.616 86.6412 303.122 60.0439L305.394 52.9414M194.878 132.3L199.997 129.662M194.878 132.3L192.241 127.181M305.394 52.9414L300.702 55.3594M305.394 52.9414L307.812 57.6332" stroke="#E4E4E4"/>
<g opacity="0.3">
<circle opacity="0.4" cx="262.296" cy="440.742" r="8.71219" transform="rotate(-33.1496 262.296 440.742)" fill="white" stroke="#E4E4E4"/>
<path d="M270.01 435.704L297.556 417.713" stroke="#E4E4E4"/>
<path d="M227.037 463.77L254.583 445.779" stroke="#E4E4E4"/>
</g>
<rect opacity="0.3" x="200.5" y="646.5" width="123" height="42" transform="rotate(-180 200.5 646.5)" stroke="#E4E4E4"/>
<path opacity="0.3" d="M1 72.8008L35.0233 69.0236L31.2461 35.0003" stroke="#E4E4E4"/>
<path opacity="0.3" d="M64.6191 304.449L113.901 291.243L100.696 340.526L64.6191 304.449Z" stroke="#E4E4E4"/>
<g opacity="0.3">
<circle cx="752.396" cy="35.5519" r="8.63292" transform="rotate(136.048 752.396 35.5519)" stroke="#E4E4E4"/>
<path d="M745.82 41.8906L722.338 64.5292" stroke="#E4E4E4"/>
<path d="M782.452 6.5752L758.97 29.2138" stroke="#E4E4E4"/>
</g>
<g opacity="0.3">
<rect x="792.565" y="639.764" width="33.0658" height="35.2636" transform="rotate(-180 792.565 639.764)" stroke="#E4E4E4"/>
<rect x="808.501" y="661.742" width="48.9998" height="52.2965" transform="rotate(-180 808.501 661.742)" stroke="#E4E4E4"/>
</g>
<g opacity="0.3">
<circle cx="982.714" cy="413.13" r="17.7055" transform="rotate(137.891 982.714 413.13)" stroke="#E4E4E4"/>
<path d="M988.78 407.647C982.22 400.388 982.72 389.259 989.881 382.787C997.041 376.315 1008.16 376.938 1014.73 384.197C1021.29 391.455 1020.79 402.585 1013.63 409.057C1006.46 415.529 995.341 414.906 988.78 407.647Z" stroke="#E4E4E4"/>
<circle cx="1020.79" cy="378.714" r="17.7055" transform="rotate(137.891 1020.79 378.714)" stroke="#E4E4E4"/>
</g>
<g opacity="0.3">
<rect x="987.247" y="84.7222" width="13.5911" height="13.5911" transform="rotate(166.648 987.247 84.7222)" stroke="#E4E4E4"/>
<rect x="1033.3" y="103.784" width="93.2809" height="61.854" transform="rotate(166.648 1033.3 103.784)" stroke="#E4E4E4"/>
<rect x="1033.3" y="103.784" width="93.2809" height="12.4687" transform="rotate(166.648 1033.3 103.784)" stroke="#E4E4E4"/>
<path d="M1025.79 99.1577L1015.97 101.491" stroke="#E4E4E4"/>
</g>
<path opacity="0.3" d="M811.5 299.5L811.5 322M811.5 299.5L789 299.5M811.5 299.5L811.5 277M811.5 299.5L834 299.5" stroke="#E4E4E4"/>
<rect opacity="0.3" x="489.764" y="27.4941" width="20.6152" height="20.6152" transform="rotate(139.634 489.764 27.4941)" stroke="#E4E4E4"/>
</g>
</svg>
