<svg width="709" height="934" viewBox="0 0 709 934" fill="none" xmlns="http://www.w3.org/2000/svg">
<g opacity="0.2">
<circle opacity="0.4" cx="131.672" cy="299.929" r="7.70863" transform="rotate(-65.4146 131.672 299.929)" fill="white" stroke="#E4E4E4"/>
<circle cx="112.788" cy="341.203" r="7.70863" transform="rotate(-65.4146 112.788 341.203)" stroke="#E4E4E4"/>
<path d="M128.696 307.594L116.643 333.939" stroke="#E4E4E4"/>
</g>
<g opacity="0.2">
<circle opacity="0.4" cx="64.7304" cy="590.393" r="10.7037" transform="rotate(41.6186 64.7304 590.393)" fill="white" stroke="#E4E4E4"/>
<path d="M73.106 597.834L103.019 624.409" stroke="#E4E4E4"/>
<path d="M26.4414 556.375L56.3547 582.951" stroke="#E4E4E4"/>
</g>
<path opacity="0.2" d="M225.313 119.811L240.934 97.8764C253.654 80.0151 278.445 75.8473 296.307 88.5673V88.5673C325.889 109.635 366.95 102.732 388.017 73.1489L393.643 65.2492M225.313 119.811L232.698 118.57M225.313 119.811L224.072 112.426M393.643 65.2492L386.873 66.3873M393.643 65.2492L394.781 72.0188" stroke="#E4E4E4"/>
<g opacity="0.2">
<circle cx="65.2887" cy="887.325" r="19.5198" transform="rotate(137.33 65.2887 887.325)" stroke="#E4E4E4"/>
<circle cx="82.6857" cy="871.289" r="19.5198" transform="rotate(137.33 82.6857 871.289)" stroke="#E4E4E4"/>
</g>
<path opacity="0.2" d="M0.746094 116L15.7461 101.5L0.746098 87.0005" stroke="#E4E4E4"/>
<g opacity="0.2">
<path d="M413.042 860.503L463.851 846.889L450.237 897.698L413.042 860.503Z" stroke="#E4E4E4"/>
<path d="M391.029 881.358L441.838 867.743L428.223 918.553L391.029 881.358Z" stroke="#E4E4E4"/>
</g>
<g opacity="0.2">
<circle cx="517.086" cy="169.502" r="11.3092" transform="rotate(167.967 517.086 169.502)" stroke="#E4E4E4"/>
<path d="M504.055 171.989L462.806 180.781" stroke="#E4E4E4"/>
<path d="M568.403 158.272L527.154 167.065" stroke="#E4E4E4"/>
</g>
<g opacity="0.2">
<rect x="639" y="329.898" width="15.956" height="15.956" transform="rotate(11.0922 639 329.898)" stroke="#E4E4E4"/>
<rect x="599.447" y="287.587" width="108.562" height="72.041" transform="rotate(11.0922 599.447 287.587)" stroke="#E4E4E4"/>
<rect x="599.447" y="287.587" width="108.562" height="14.6516" transform="rotate(11.0922 599.447 287.587)" stroke="#E4E4E4"/>
<path d="M605.226 296.186L616.746 298.444" stroke="#E4E4E4"/>
</g>
<g opacity="0.2">
<circle cx="628.87" cy="596.347" r="15.5224" transform="rotate(150.16 628.87 596.347)" stroke="#E4E4E4"/>
<path d="M635.165 592.736C630.897 585.295 633.4 575.854 640.739 571.644C648.077 567.435 657.491 570.04 661.759 577.481C666.027 584.922 663.524 594.363 656.186 598.573C648.847 602.783 639.433 600.177 635.165 592.736Z" stroke="#E4E4E4"/>
<circle cx="668.053" cy="573.87" r="15.5224" transform="rotate(150.16 668.053 573.87)" stroke="#E4E4E4"/>
</g>
<g opacity="0.2">
<rect x="684.542" y="857.271" width="48.2954" height="51.4757" transform="rotate(-180 684.542 857.271)" stroke="#E4E4E4"/>
<rect x="708.246" y="894.5" width="59" height="76.6471" transform="rotate(-180 708.246 894.5)" stroke="#E4E4E4"/>
</g>
<path opacity="0.2" d="M681 96L681 115M681 96L662 96M681 96L681 77M681 96L700 96" stroke="#E4E4E4"/>
<path opacity="0.2" d="M249.5 792.5L249.5 805M249.5 792.5L237 792.5M249.5 792.5L249.5 780M249.5 792.5L262 792.5" stroke="#E4E4E4"/>
</svg>
