<svg width="723" height="328" viewBox="0 0 723 328" fill="none" xmlns="http://www.w3.org/2000/svg">
<g opacity="0.2">
<circle cx="663.881" cy="289.708" r="10.71" transform="rotate(-146.383 663.881 289.708)" stroke="#E4E4E4"/>
<path d="M654.546 283.501L621.206 261.336" stroke="#E4E4E4"/>
<path d="M706.556 318.079L673.216 295.914" stroke="#E4E4E4"/>
<path d="M424.784 234.873L418.382 217.491L401 223.893" stroke="#E4E4E4"/>
<path d="M56 33.3584L70.3888 34.3897L71.4201 20.0009" stroke="#E4E4E4"/>
<circle cx="61.4186" cy="255.402" r="15.6846" transform="rotate(-131.722 61.4186 255.402)" stroke="#E4E4E4"/>
<path d="M52.2212 255.632C60.1202 259.202 63.6559 268.416 60.1354 276.207C56.6148 283.997 47.3627 287.432 39.4637 283.863C31.5647 280.293 28.029 271.079 31.5496 263.288C35.0701 255.498 44.3223 252.063 52.2212 255.632Z" stroke="#E4E4E4"/>
<circle cx="30.4296" cy="284.136" r="15.6846" transform="rotate(-65.6814 30.4296 284.136)" stroke="#E4E4E4"/>
<rect x="176.307" y="149.787" width="22.4193" height="22.4193" transform="rotate(139.634 176.307 149.787)" stroke="#E4E4E4"/>
<path d="M369.905 80.019L375.278 65.2437C379.653 53.2123 392.953 47.0056 404.985 51.3807V51.3807C424.912 58.6269 446.94 48.3471 454.186 28.42L456.121 23.0988M369.905 80.019L373.867 78.1702M369.905 80.019L368.056 76.0571M456.121 23.0988L452.49 24.7937M456.121 23.0988L457.816 26.7306" stroke="#E4E4E4"/>
<circle opacity="0.4" cx="686.557" cy="51.9712" r="5.76521" transform="rotate(139.707 686.557 51.9712)" fill="white" stroke="#E4E4E4"/>
<circle cx="712.981" cy="29.5683" r="5.76521" transform="rotate(139.707 712.981 29.5683)" stroke="#E4E4E4"/>
<path d="M691.098 47.6385L707.964 33.3384" stroke="#E4E4E4"/>
</g>
</svg>
