<svg width="375" height="505" viewBox="0 0 375 505" fill="none" xmlns="http://www.w3.org/2000/svg">
<g opacity="0.2">
<circle cx="7.32115" cy="258.156" r="10.4244" transform="rotate(166.318 7.32115 258.156)" stroke="#E4E4E4"/>
<path d="M4.63754 263.838C9.20098 260.318 15.71 261.125 19.1781 265.622C22.6463 270.119 21.7729 276.619 17.2095 280.138C12.646 283.658 6.13703 282.851 2.66887 278.354C-0.799287 273.858 0.0740984 267.357 4.63754 263.838Z" stroke="#E4E4E4"/>
<circle cx="14.6058" cy="285.736" r="10.4244" transform="rotate(-127.641 14.6058 285.736)" stroke="#E4E4E4"/>
</g>
<g opacity="0.3">
<rect x="345.782" y="27.9863" width="25.0754" height="26.7577" transform="rotate(-30.8501 345.782 27.9863)" stroke="#E4E4E4"/>
<rect x="326.685" y="19.7988" width="37.272" height="39.7954" transform="rotate(-30.8501 326.685 19.7988)" stroke="#E4E4E4"/>
</g>
<g opacity="0.2">
<circle opacity="0.4" cx="18.9773" cy="27.8648" r="4.94201" transform="rotate(-137.133 18.9773 27.8648)" fill="white" stroke="#E4E4E4"/>
<circle cx="41.032" cy="48.3346" r="4.94201" transform="rotate(-137.133 41.032 48.3346)" stroke="#E4E4E4"/>
<path d="M23.1823 31.3318L37.2598 44.3984" stroke="#E4E4E4"/>
</g>
<path opacity="0.2" d="M359.783 320.872L353.381 303.49L335.999 309.893" stroke="#E4E4E4"/>
<g opacity="0.3">
<path d="M24.304 515.417L-5.44806 502.229L20.8495 483.057L24.304 515.417Z" stroke="#F2F2F2"/>
<circle cx="9.47289" cy="487.045" r="8.64214" transform="rotate(22.8658 9.47289 487.045)" stroke="#F2F2F2"/>
</g>
</svg>
