<svg width="588" height="461" viewBox="0 0 588 461" fill="none" xmlns="http://www.w3.org/2000/svg">
<g opacity="0.2">
<circle cx="545.222" cy="418.221" r="6.25462" transform="rotate(-30.2106 545.222 418.221)" stroke="#E4E4E4"/>
<path d="M551.059 414.823L571.906 402.684" stroke="#E4E4E4"/>
<path d="M518.537 433.759L539.384 421.62" stroke="#E4E4E4"/>
<circle cx="545.222" cy="418.222" r="6.25462" transform="rotate(59.7894 545.222 418.222)" stroke="#E4E4E4"/>
<path d="M548.621 424.059L560.76 444.907" stroke="#E4E4E4"/>
<path d="M529.685 391.537L541.823 412.385" stroke="#E4E4E4"/>
<path d="M549.5 133.5L549.5 147M549.5 133.5L536 133.5M549.5 133.5L549.5 120M549.5 133.5L563 133.5" stroke="#E4E4E4" strokeWidth="0.7"/>
<circle cx="461.967" cy="23.9671" r="10.9409" transform="rotate(-135.488 461.967 23.9671)" stroke="#E4E4E4" strokeWidth="0.7"/>
<path d="M465.612 27.5506C469.851 23.2388 476.735 23.1427 480.987 27.3234C485.24 31.5041 485.261 38.3885 481.022 42.7003C476.783 47.0121 469.899 47.1082 465.647 42.9275C461.394 38.7468 461.373 31.8624 465.612 27.5506Z" stroke="#E4E4E4" strokeWidth="0.7"/>
<circle cx="484.667" cy="46.2837" r="10.9409" transform="rotate(-135.488 484.667 46.2837)" stroke="#E4E4E4" strokeWidth="0.7"/>
<rect x="27.9191" y="31.1305" width="30.7806" height="41.8674" transform="rotate(-90 27.9191 31.1305)" stroke="#E4E4E4" strokeWidth="0.7"/>
<rect x="0.35" y="52.65" width="45.5054" height="61.8612" transform="rotate(-90 0.35 52.65)" stroke="#E4E4E4" strokeWidth="0.7"/>
<path d="M45.6721 418.575L35.9553 401.619L18.9999 411.336" stroke="#E4E4E4" strokeWidth="0.7"/>
<path d="M70.821 136.319L73.9363 121.971C76.473 110.288 88.0005 102.873 99.6837 105.41V105.41C119.034 109.611 138.127 97.3306 142.328 77.9803L143.45 72.813M70.821 136.319L74.2549 134.11M70.821 136.319L68.6123 132.885M143.45 72.813L140.302 74.8377M143.45 72.813L145.475 75.9608" stroke="#E4E4E4" strokeWidth="0.7"/>
<path d="M89.7535 267.6C86.6044 270.836 81.4656 270.933 78.2758 267.829C75.0859 264.725 75.0426 259.586 78.1916 256.349C81.3406 253.113 86.4794 253.016 89.6693 256.12C92.8591 259.224 92.9025 264.364 89.7535 267.6Z" stroke="#E4E4E4" strokeWidth="0.7"/>
<circle cx="526.843" cy="278.443" r="9.81068" transform="rotate(-176.219 526.843 278.443)" stroke="#E4E4E4" strokeWidth="0.7"/>
<path d="M537.748 257.068L517.119 287.905L500.727 254.621L537.748 257.068Z" stroke="#E4E4E4" strokeWidth="0.7"/>
</g>
</svg>
