<svg width="1920" height="246" viewBox="0 0 1920 246" fill="none" xmlns="http://www.w3.org/2000/svg">
<g opacity="0.3">
<circle opacity="0.4" cx="942.46" cy="92.6965" r="8" transform="rotate(-137.133 942.46 92.6965)" fill="white" stroke="#E4E4E4"/>
<circle cx="976.907" cy="124.671" r="8" transform="rotate(-137.133 976.907 124.671)" stroke="#E4E4E4"/>
<path d="M949.03 98.1124L971.018 118.521" stroke="#E4E4E4"/>
<rect x="1938.82" y="220.333" width="36.261" height="36.261" transform="rotate(139.634 1938.82 220.333)" stroke="#E4E4E4"/>
<circle cx="485.409" cy="204.949" r="13.1087" transform="rotate(114.617 485.409 204.949)" stroke="#E4E4E4"/>
<path d="M488.77 211.956C488.853 204.711 494.721 198.914 501.864 198.996C509.007 199.078 514.741 205.008 514.658 212.253C514.575 219.498 508.706 225.294 501.563 225.212C494.42 225.13 488.687 219.201 488.77 211.956Z" stroke="#E4E4E4"/>
<circle cx="517.997" cy="219.119" r="13.1087" transform="rotate(-179.342 517.997 219.119)" stroke="#E4E4E4"/>
<circle cx="1496.47" cy="215.588" r="13.5" transform="rotate(-165.49 1496.47 215.588)" stroke="#E4E4E4"/>
<path d="M1482.91 212.081L1434.51 199.554" stroke="#E4E4E4"/>
<path d="M1558.43 231.623L1510.02 219.096" stroke="#E4E4E4"/>
<path d="M108.876 196.106L80.9278 183.86C58.1701 173.889 47.8046 147.357 57.7759 124.599V124.599C74.2908 86.9068 57.123 42.9631 19.4306 26.4482L9.36536 22.0381M108.876 196.106L105.788 188.202M108.876 196.106L100.972 199.193M9.36536 22.0381L12.1959 29.2831M9.36536 22.0381L16.6104 19.2077" stroke="#E4E4E4"/>
<path d="M1824.78 40.8711L1818.38 23.4894L1801 29.8916" stroke="#E4E4E4"/>
<path d="M596.563 35L595.95 53.5131L614.463 54.1264" stroke="#E4E4E4"/>
<mask id="mask0" maskUnits="userSpaceOnUse" x="1247" y="-28" width="74" height="72">
<rect x="1273.63" y="8.51075" width="33.0659" height="35.2637" transform="rotate(-30.8501 1273.63 8.51075)" stroke="#E4E4E4"/>
<rect x="1248.69" y="-2.18652" width="49" height="52.2967" transform="rotate(-30.8501 1248.69 -2.18652)" stroke="#E4E4E4"/>
</mask>
<g mask="url(#mask0)">
<rect x="1219" y="-13" width="122" height="56" fill="#C4C4C4"/>
</g>
</g>
</svg>
