<svg width="781" height="2224" viewBox="0 0 781 2224" fill="none" xmlns="http://www.w3.org/2000/svg">
<g opacity="0.2">
<path d="M6 33L22 17L6 1" stroke="#E4E4E4"/>
<path d="M56.6228 423.267L18.8634 392.045L64.7822 374.956L56.6228 423.267Z" stroke="#E4E4E4"/>
<path d="M86.6228 423.267L48.8634 392.045L94.7822 374.956L86.6228 423.267Z" stroke="#E4E4E4"/>
<path d="M500.278 218.161L507.235 196.406C512.901 178.691 531.855 168.922 549.57 174.588V174.588C578.911 183.972 610.303 167.793 619.687 138.452L622.193 130.617M500.278 218.161L505.924 215.251M500.278 218.161L497.368 212.515M622.193 130.617L617.017 133.285M622.193 130.617L624.86 135.793" stroke="#E4E4E4"/>
<circle opacity="0.4" cx="531.239" cy="624.718" r="13.5" transform="rotate(-33.1496 531.239 624.718)" fill="white" stroke="#E4E4E4"/>
<path d="M542.961 617.062L584.823 589.721" stroke="#E4E4E4"/>
<path d="M477.656 659.715L519.518 632.374" stroke="#E4E4E4"/>
<path d="M159 828L159 853M159 828L134 828M159 828L159 803M159 828L184 828" stroke="#E4E4E4"/>
<circle cx="531.089" cy="1014.09" r="29.8481" transform="rotate(-110.611 531.089 1014.09)" stroke="#E4E4E4"/>
<circle cx="543.714" cy="1047.66" r="29.8481" transform="rotate(-110.611 543.714 1047.66)" stroke="#E4E4E4"/>
<rect x="203.153" y="1294.78" width="98.0756" height="94.9264" transform="rotate(-167.873 203.153 1294.78)" stroke="#E4E4E4"/>
<rect x="209.044" y="1314.21" width="56.3946" height="54.5702" transform="rotate(-167.873 209.044 1314.21)" stroke="#E4E4E4"/>
<circle opacity="0.4" cx="12.0207" cy="1498.25" r="8" transform="rotate(135 12.0207 1498.25)" fill="white" stroke="#E4E4E4"/>
<circle cx="45.2551" cy="1465.02" r="8" transform="rotate(135 45.2551 1465.02)" stroke="#E4E4E4"/>
<path d="M17.6774 1491.89L38.8906 1470.68" stroke="#E4E4E4"/>
<path d="M692.981 1598.44L661.595 1527.32L738.881 1535.7L692.981 1598.44Z" stroke="#E4E4E4"/>
<circle cx="711.937" cy="1525.33" r="20.6965" transform="rotate(65.1473 711.937 1525.33)" stroke="#E4E4E4"/>
<circle cx="679.122" cy="2176.12" r="9.80788" stroke="#E4E4E4"/>
<path d="M689.43 2176.12H726.244" stroke="#E4E4E4"/>
<path d="M632 2176.12L668.814 2176.12" stroke="#E4E4E4"/>
<circle cx="679.122" cy="2176.12" r="9.80788" transform="rotate(90 679.122 2176.12)" stroke="#E4E4E4"/>
<path d="M679.123 2186.43L679.123 2223.24" stroke="#E4E4E4"/>
<path d="M679.123 2129L679.123 2165.81" stroke="#E4E4E4"/>
<circle cx="238.5" cy="2140.5" r="15" stroke="#E4E4E4"/>
</g>
</svg>
