<svg width="1064" height="2110" viewBox="0 0 1064 2110" fill="none" xmlns="http://www.w3.org/2000/svg">
<g opacity="0.9">
<path opacity="0.3" d="M83.6406 2084.89L72.8582 2086.15C62.1472 2087.41 52.443 2079.75 51.1832 2069.04V2069.04C49.0967 2051.3 33.0241 2038.61 15.284 2040.7L1.27863 2042.35M83.6406 2084.89L80.7498 2082.6M83.6406 2084.89L81.3582 2087.78M1.27863 2042.35L3.92849 2044.44M1.27863 2042.35L3.37076 2039.7" stroke="#E4E4E4"/>
<path opacity="0.3" d="M177.516 96.4902L183.236 78.6062C187.893 64.0433 203.475 56.0134 218.037 60.6708V60.6708C242.157 68.3846 267.964 55.085 275.677 30.9653L277.737 24.5244M177.516 96.4902L182.158 94.0982M177.516 96.4902L175.124 91.8488M277.737 24.5244L273.483 26.7172M277.737 24.5244L279.93 28.7791" stroke="#E4E4E4"/>
<g opacity="0.3">
<circle opacity="0.4" cx="240.264" cy="775.716" r="15.1405" transform="rotate(21.4618 240.264 775.716)" fill="white" stroke="#E4E4E4"/>
<path d="M254.821 781.438L306.807 801.876" stroke="#E4E4E4"/>
<path d="M173.723 749.555L225.708 769.993" stroke="#E4E4E4"/>
</g>
<path opacity="0.3" d="M109.925 416.504L149.151 405.993L138.641 445.22L109.925 416.504Z" stroke="#E4E4E4"/>
<g opacity="0.3">
<circle cx="929.388" cy="66.6825" r="7.12525" transform="rotate(136.048 929.388 66.6825)" stroke="#E4E4E4"/>
<path d="M923.898 71.9749L904.293 90.8762" stroke="#E4E4E4"/>
<path d="M954.483 42.489L934.878 61.3904" stroke="#E4E4E4"/>
</g>
<g opacity="0.3">
<rect x="1026.74" y="1312.34" width="46.9622" height="50.0565" transform="rotate(143.326 1026.74 1312.34)" stroke="#E4E4E4"/>
<rect x="1063.22" y="1323.76" width="69.3961" height="74.0377" transform="rotate(143.326 1063.22 1323.76)" stroke="#E4E4E4"/>
</g>
<g opacity="0.3">
<circle cx="910.453" cy="577.451" r="18.6159" transform="rotate(-146.913 910.453 577.451)" stroke="#E4E4E4"/>
<path d="M917.625 582.126C923.241 573.507 934.689 571.025 943.192 576.565C951.695 582.106 954.05 593.581 948.434 602.2C942.818 610.819 931.37 613.3 922.867 607.76C914.364 602.22 912.009 590.745 917.625 582.126Z" stroke="#E4E4E4"/>
<circle cx="955.606" cy="606.873" r="18.6159" transform="rotate(-146.913 955.606 606.873)" stroke="#E4E4E4"/>
</g>
<g opacity="0.3">
<rect x="913.374" y="246.372" width="12.0836" height="12.0836" transform="rotate(166.648 913.374 246.372)" stroke="#E4E4E4"/>
<rect x="954.669" y="263.465" width="83.5401" height="55.3601" transform="rotate(166.648 954.669 263.465)" stroke="#E4E4E4"/>
<rect x="954.669" y="263.465" width="83.5401" height="11.0772" transform="rotate(166.648 954.669 263.465)" stroke="#E4E4E4"/>
<path d="M948.001 259.355L939.188 261.447" stroke="#E4E4E4"/>
</g>
<path opacity="0.3" d="M281 1135L281 1156M281 1135L260 1135M281 1135L281 1114M281 1135L302 1135" stroke="#E4E4E4"/>
<g opacity="0.3">
<circle opacity="0.4" cx="901.33" cy="962.574" r="10.482" transform="rotate(-166.202 901.33 962.574)" fill="white" stroke="#E4E4E4"/>
<circle cx="960.302" cy="977.057" r="10.482" transform="rotate(-166.202 960.302 977.057)" stroke="#E4E4E4"/>
<path d="M912.149 964.566L949.79 973.81" stroke="#E4E4E4"/>
</g>
<g opacity="0.3">
<circle cx="35.3061" cy="1220.67" r="19.0467" transform="rotate(-140.684 35.3061 1220.67)" stroke="#E4E4E4"/>
<circle cx="53.1787" cy="1235.31" r="19.0467" transform="rotate(-140.684 53.1787 1235.31)" stroke="#E4E4E4"/>
</g>
<g opacity="0.3">
<path d="M232.451 1400.4L193.692 1372.33L237.384 1352.8L232.451 1400.4Z" stroke="#E4E4E4"/>
<circle cx="219.821" cy="1355.38" r="12.7268" transform="rotate(34.8753 219.821 1355.38)" stroke="#E4E4E4"/>
</g>
<g opacity="0.3">
<circle cx="1005.88" cy="2062.88" r="9.75462" stroke="#E4E4E4"/>
<path d="M1016.13 2062.88H1052.76" stroke="#E4E4E4"/>
<path d="M959 2062.88L995.624 2062.88" stroke="#E4E4E4"/>
<circle cx="1005.88" cy="2062.88" r="9.75462" transform="rotate(90 1005.88 2062.88)" stroke="#E4E4E4"/>
<path d="M1005.88 2073.13L1005.88 2109.76" stroke="#E4E4E4"/>
<path d="M1005.88 2016L1005.88 2052.62" stroke="#E4E4E4"/>
</g>
<circle opacity="0.3" cx="848" cy="1436" r="10.5" stroke="#E4E4E4"/>
<path opacity="0.3" d="M29 176.985L51.4892 174.489L48.9925 151.999" stroke="#E4E4E4"/>
</g>
</svg>
