<svg width="601" height="1846" viewBox="0 0 601 1846" fill="none" xmlns="http://www.w3.org/2000/svg">
<g opacity="0.2">
<path d="M169.859 1163.62C164.858 1168.75 156.707 1168.92 151.653 1164C146.599 1159.09 146.543 1150.93 151.543 1145.79C156.544 1140.65 164.695 1140.49 169.749 1145.41C174.803 1150.32 174.859 1158.48 169.859 1163.62Z" stroke="#E4E4E4" strokeWidth="0.7"/>
<path d="M54.6785 18.6018C53.2139 17.0827 53.2449 14.6895 54.7317 13.2561C56.2185 11.8227 58.6112 11.8792 60.0757 13.3983C61.5403 14.9174 61.5093 17.3106 60.0225 18.744C58.5357 20.1774 56.143 20.1209 54.6785 18.6018Z" stroke="#E4E4E4" strokeWidth="0.7"/>
<path d="M54.4265 18.8447L43.8886 29.0042" stroke="#E4E4E4" strokeWidth="0.7"/>
<path d="M70.8657 2.99609L60.3278 13.1555" stroke="#E4E4E4" strokeWidth="0.7"/>
<circle cx="438.437" cy="209.436" r="10.9409" transform="rotate(-173.845 438.437 209.436)" stroke="#E4E4E4" strokeWidth="0.7"/>
<path d="M443.518 209.985C444.167 203.973 449.505 199.626 455.434 200.265C461.363 200.905 465.652 206.29 465.004 212.302C464.355 218.313 459.017 222.66 453.088 222.021C447.159 221.382 442.87 215.996 443.518 209.985Z" stroke="#E4E4E4" strokeWidth="0.7"/>
<circle cx="470.086" cy="212.85" r="10.9409" transform="rotate(-173.845 470.086 212.85)" stroke="#E4E4E4" strokeWidth="0.7"/>
<path d="M552.5 99.5L552.5 109M552.5 99.5L543 99.5M552.5 99.5L552.5 90M552.5 99.5L562 99.5" stroke="#E4E4E4" strokeWidth="0.7"/>
<rect x="39.8504" y="423.901" width="9.06176" height="9.06176" transform="rotate(166.648 39.8504 423.901)" stroke="#E4E4E4" strokeWidth="0.7"/>
<rect x="70.6607" y="436.654" width="62.376" height="41.3507" transform="rotate(166.648 70.6607 436.654)" stroke="#E4E4E4" strokeWidth="0.7"/>
<rect x="70.6607" y="436.654" width="62.376" height="8.31086" transform="rotate(166.648 70.6607 436.654)" stroke="#E4E4E4" strokeWidth="0.7"/>
<path d="M65.658 433.571L59.0825 435.131" stroke="#E4E4E4" strokeWidth="0.7"/>
<circle cx="46.3476" cy="706.052" r="8.94703" transform="rotate(-76.6995 46.3476 706.052)" stroke="#E4E4E4" strokeWidth="0.7"/>
<path d="M63.9688 719.07L39.3377 695.859L71.7551 686.133L63.9688 719.07Z" stroke="#E4E4E4" strokeWidth="0.7"/>
<path d="M136.181 324.846C135.28 330.259 130.216 333.92 124.878 333.031C119.539 332.143 115.934 327.04 116.835 321.626C117.736 316.212 122.8 312.552 128.138 313.44C133.477 314.329 137.082 319.432 136.181 324.846Z" stroke="#E4E4E4" strokeWidth="0.7"/>
<path d="M148.284 326.859C147.383 332.273 142.319 335.933 136.981 335.045C131.642 334.156 128.037 329.053 128.938 323.639C129.839 318.226 134.903 314.566 140.241 315.454C145.58 316.343 149.185 321.446 148.284 326.859Z" stroke="#E4E4E4" strokeWidth="0.7"/>
<path d="M440.026 548.115L453.239 542.9C463.998 538.654 476.162 543.933 480.409 554.692V554.692C487.442 572.512 507.589 581.257 525.409 574.224L530.168 572.345M440.026 548.115L443.649 549.688M440.026 548.115L441.598 544.491M530.168 572.345L526.846 570.904M530.168 572.345L528.726 575.667" stroke="#E4E4E4" strokeWidth="0.7"/>
<path d="M160.887 795.94L156.192 787.749L148 792.443" stroke="#E4E4E4" strokeWidth="0.7"/>
<path d="M462.485 853.728L453.587 834.552L474.644 836.435L462.485 853.728Z" stroke="#E4E4E4" strokeWidth="0.7"/>
<path d="M471.255 858.277L462.358 839.1L483.414 840.983L471.255 858.277Z" stroke="#E4E4E4" strokeWidth="0.7"/>
<circle cx="425.178" cy="1224.18" r="6.5266" transform="rotate(-39.0011 425.178 1224.18)" stroke="#E4E4E4"/>
<path d="M430.639 1219.76L450.141 1203.96" stroke="#E4E4E4"/>
<path d="M400.215 1244.39L419.717 1228.6" stroke="#E4E4E4"/>
<circle cx="425.178" cy="1224.18" r="6.5266" transform="rotate(50.9989 425.178 1224.18)" stroke="#E4E4E4"/>
<path d="M429.6 1229.64L445.394 1249.14" stroke="#E4E4E4"/>
<path d="M404.963 1199.22L420.756 1218.72" stroke="#E4E4E4"/>
<rect x="586.777" y="1358.59" width="27.4269" height="29.2415" transform="rotate(-180 586.777 1358.59)" stroke="#E4E4E4" strokeWidth="0.7"/>
<rect x="599.933" y="1376.74" width="40.583" height="43.3049" transform="rotate(-180 599.933 1376.74)" stroke="#E4E4E4" strokeWidth="0.7"/>
<path d="M70.5 1270.5L70.5 1280M70.5 1270.5L61 1270.5M70.5 1270.5L70.5 1261M70.5 1270.5L80 1270.5" stroke="#E4E4E4" strokeWidth="0.7"/>
<circle opacity="0.4" cx="49.009" cy="1007.84" r="5.47822" transform="rotate(4.35911 49.009 1007.84)" fill="white" stroke="#E4E4E4" strokeWidth="0.7"/>
<path d="M54.8203 1008.28L75.5752 1009.86" stroke="#E4E4E4" strokeWidth="0.7"/>
<path d="M22.4429 1005.81L43.1977 1007.39" stroke="#E4E4E4" strokeWidth="0.7"/>
<circle opacity="0.4" cx="543.126" cy="990.418" r="6.47095" transform="rotate(144.646 543.126 990.418)" fill="white" stroke="#E4E4E4" strokeWidth="0.7"/>
<circle cx="573.888" cy="968.595" r="6.47095" transform="rotate(144.646 573.888 968.595)" stroke="#E4E4E4" strokeWidth="0.7"/>
<path d="M548.457 986.144L568.092 972.214" stroke="#E4E4E4" strokeWidth="0.7"/>
<path d="M572.612 1771.5L568.339 1783.72C564.86 1793.68 553.972 1798.92 544.02 1795.44V1795.44C527.537 1789.68 509.504 1798.37 503.742 1814.86L502.203 1819.26M572.612 1771.5L569.369 1773.07M572.612 1771.5L574.175 1774.75M502.203 1819.26L505.176 1817.82M502.203 1819.26L500.77 1816.28" stroke="#E4E4E4" strokeWidth="0.7"/>
<circle cx="46.2091" cy="1810.74" r="7.83589" transform="rotate(156.66 46.2091 1810.74)" stroke="#E4E4E4" strokeWidth="0.7"/>
<path d="M45.6459 1808.62L42.2066 1838.07L18.4176 1820.37L45.6459 1808.62Z" stroke="#E4E4E4" strokeWidth="0.7"/>
<path d="M306.495 1788.95L312.35 1769.6L293 1763.75" stroke="#E4E4E4" strokeWidth="0.7"/>
</g>
</svg>
