<svg width="375" height="2004" viewBox="0 0 375 2004" fill="none" xmlns="http://www.w3.org/2000/svg">
    <g opacity="0.2">
        <path d="M375.943 1160.57C368.189 1168.54 355.544 1168.8 347.702 1161.17C339.859 1153.53 339.775 1140.89 347.529 1132.92C355.284 1124.95 367.928 1124.69 375.771 1132.32C383.614 1139.95 383.698 1152.6 375.943 1160.57Z" stroke="#E4E4E4" strokeWidth="0.7"/>
        <path d="M208.964 1994.74C204.31 1999.52 196.723 1999.68 192.018 1995.1C187.314 1990.52 187.262 1982.93 191.917 1978.15C196.571 1973.37 204.158 1973.21 208.863 1977.79C213.567 1982.37 213.619 1989.95 208.964 1994.74Z" stroke="#E4E4E4" strokeWidth="0.7"/>
        <path d="M30.6783 42.6018C29.2138 41.0827 29.2447 38.6895 30.7316 37.2561C32.2184 35.8227 34.6111 35.8792 36.0756 37.3983C37.5402 38.9174 37.5092 41.3106 36.0224 42.744C34.5356 44.1774 32.1429 44.1209 30.6783 42.6018Z" stroke="#E4E4E4" strokeWidth="0.7"/>
        <path d="M30.4264 42.8447L19.8885 53.0042" stroke="#E4E4E4" strokeWidth="0.7"/>
        <path d="M46.8655 26.9961L36.3276 37.1555" stroke="#E4E4E4" strokeWidth="0.7"/>
        <circle cx="308.436" cy="48.4363" r="10.9409" transform="rotate(-173.845 308.436 48.4363)" stroke="#E4E4E4" strokeWidth="0.7"/>
        <path d="M313.518 48.9846C314.166 42.9729 319.505 38.6258 325.434 39.2652C331.363 39.9046 335.652 45.2899 335.003 51.3016C334.355 57.3132 329.017 61.6603 323.088 61.0209C317.159 60.3816 312.87 54.9962 313.518 48.9846Z" stroke="#E4E4E4" strokeWidth="0.7"/>
        <circle cx="340.085" cy="51.8497" r="10.9409" transform="rotate(-173.845 340.085 51.8497)" stroke="#E4E4E4" strokeWidth="0.7"/>
        <path d="M193.5 9.5L193.5 19M193.5 9.5L184 9.5M193.5 9.5L193.5 1.07683e-06M193.5 9.5L203 9.5" stroke="#E4E4E4" strokeWidth="0.7"/>
        <rect x="36.0702" y="176.167" width="4.99433" height="4.99433" transform="rotate(166.648 36.0702 176.167)" stroke="#E4E4E4" strokeWidth="0.7"/>
        <rect x="54.043" y="183.607" width="36.0941" height="23.8294" transform="rotate(166.648 54.043 183.607)" stroke="#E4E4E4" strokeWidth="0.7"/>
        <rect x="54.043" y="183.607" width="36.0941" height="4.55631" transform="rotate(166.648 54.043 183.607)" stroke="#E4E4E4" strokeWidth="0.7"/>
        <path d="M51.3003 181.916L47.4646 182.826" stroke="#E4E4E4" strokeWidth="0.7"/>
        <circle cx="334.268" cy="348.819" r="8.94703" transform="rotate(-30 334.268 348.819)" stroke="#E4E4E4" strokeWidth="0.7"/>
        <path d="M336.878 370.571L336.878 336.726L366.189 353.649L336.878 370.571Z" stroke="#E4E4E4" strokeWidth="0.7"/>
        <path d="M8.75358 369.6C5.60456 372.836 0.465768 372.933 -2.72409 369.829C-5.91396 366.725 -5.9573 361.586 -2.80828 358.349C0.340749 355.113 5.47954 355.016 8.6694 358.12C11.8593 361.224 11.9026 366.364 8.75358 369.6Z" stroke="#E4E4E4" strokeWidth="0.7"/>
        <path d="M16.0407 376.691C12.8917 379.927 7.75288 380.024 4.56302 376.92C1.37315 373.816 1.32981 368.676 4.47883 365.44C7.62786 362.204 12.7667 362.107 15.9565 365.211C19.1464 368.315 19.1897 373.454 16.0407 376.691Z" stroke="#E4E4E4" strokeWidth="0.7"/>
        <path d="M287.336 546.319L300.549 541.104C311.309 536.858 323.473 542.137 327.719 552.897V552.897C334.753 570.717 354.9 579.461 372.72 572.428L377.479 570.55M287.336 546.319L290.96 547.892M287.336 546.319L288.909 542.696M377.479 570.55L374.157 569.108M377.479 570.55L376.037 573.871" stroke="#E4E4E4" strokeWidth="0.7"/>
        <path d="M38.8866 758.94L34.192 750.749L26.0001 755.443" stroke="#E4E4E4" strokeWidth="0.7"/>
        <path d="M322.484 943.729L313.587 924.552L334.643 926.435L322.484 943.729Z" stroke="#E4E4E4" strokeWidth="0.7"/>
        <path d="M331.255 948.277L322.357 929.1L343.414 930.983L331.255 948.277Z" stroke="#E4E4E4" strokeWidth="0.7"/>
        <path d="M43.3887 1962.92L28.9229 1931.74L63.1575 1934.8L43.3887 1962.92Z" stroke="#E4E4E4" strokeWidth="0.7"/>
        <path d="M57.3505 1970.16L42.8847 1938.98L77.1193 1942.05L57.3505 1970.16Z" stroke="#E4E4E4" strokeWidth="0.7"/>
        <circle cx="29.3015" cy="572.803" r="7.64683" transform="rotate(132.955 29.3015 572.803)" stroke="#E4E4E4" strokeWidth="0.7"/>
        <path d="M31.8382 570.079C28.7444 567.198 28.5479 562.391 31.3868 559.342C34.2256 556.293 39.0346 556.146 42.1285 559.027C45.2223 561.907 45.4188 566.714 42.58 569.763C39.7411 572.813 34.9321 572.959 31.8382 570.079Z" stroke="#E4E4E4" strokeWidth="0.7"/>
        <circle cx="44.6649" cy="556.302" r="7.64683" transform="rotate(132.955 44.6649 556.302)" stroke="#E4E4E4" strokeWidth="0.7"/>
        <circle cx="352.044" cy="1350.04" r="6.5266" transform="rotate(-3.5407 352.044 1350.04)" stroke="#E4E4E4"/>
        <path d="M359.057 1349.61L384.104 1348.06" stroke="#E4E4E4"/>
        <path d="M319.984 1352.03L345.031 1350.48" stroke="#E4E4E4"/>
        <circle cx="352.044" cy="1350.04" r="6.5266" transform="rotate(86.4593 352.044 1350.04)" stroke="#E4E4E4"/>
        <path d="M352.478 1357.06L354.028 1382.1" stroke="#E4E4E4"/>
        <path d="M350.06 1317.98L351.61 1343.03" stroke="#E4E4E4"/>
        <rect x="212.777" y="1372.59" width="27.4269" height="29.2415" transform="rotate(-180 212.777 1372.59)" stroke="#E4E4E4" strokeWidth="0.7"/>
        <rect x="225.933" y="1390.74" width="40.583" height="43.3049" transform="rotate(-180 225.933 1390.74)" stroke="#E4E4E4" strokeWidth="0.7"/>
        <rect x="379.65" y="1635.65" width="20.5667" height="81.3" transform="rotate(-180 379.65 1635.65)" stroke="#E4E4E4" strokeWidth="0.7"/>
        <rect x="367.916" y="1614.65" width="20.5667" height="81.3" transform="rotate(-180 367.916 1614.65)" stroke="#E4E4E4" strokeWidth="0.7"/>
        <path d="M45.4999 1351.5L45.4999 1361M45.4999 1351.5L35.9999 1351.5M45.4999 1351.5L45.4999 1342M45.4999 1351.5L54.9999 1351.5" stroke="#E4E4E4" strokeWidth="0.7"/>
        <circle opacity="0.4" cx="45.8696" cy="926.938" r="5.47822" transform="rotate(-49.0301 45.8696 926.938)" fill="white" stroke="#E4E4E4" strokeWidth="0.7"/>
        <path d="M49.6909 922.538L63.3386 906.821" stroke="#E4E4E4" strokeWidth="0.7"/>
        <path d="M28.4005 947.055L42.0482 931.339" stroke="#E4E4E4" strokeWidth="0.7"/>
        <circle opacity="0.4" cx="341.87" cy="1937.94" r="5.47822" transform="rotate(-4.52049 341.87 1937.94)" fill="white" stroke="#E4E4E4" strokeWidth="0.7"/>
        <path d="M347.68 1937.48L368.43 1935.84" stroke="#E4E4E4" strokeWidth="0.7"/>
        <path d="M315.309 1940.04L336.06 1938.4" stroke="#E4E4E4" strokeWidth="0.7"/>
        <circle opacity="0.4" cx="37.1262" cy="1128.42" r="6.47095" transform="rotate(144.646 37.1262 1128.42)" fill="white" stroke="#E4E4E4" strokeWidth="0.7"/>
        <circle cx="67.8876" cy="1106.59" r="6.47095" transform="rotate(144.646 67.8876 1106.59)" stroke="#E4E4E4" strokeWidth="0.7"/>
        <path d="M42.4571 1124.14L62.0916 1110.21" stroke="#E4E4E4" strokeWidth="0.7"/>
        <path d="M44.1589 1421.11L47.7425 1433.55C50.6605 1443.68 44.8135 1454.26 34.6828 1457.18V1457.18C17.9039 1462.01 8.21981 1479.53 13.0528 1496.31L14.3434 1500.79M44.1589 1421.11L42.4172 1424.26M44.1589 1421.11L47.31 1422.85M14.3434 1500.79L15.94 1497.9M14.3434 1500.79L11.4549 1499.19" stroke="#E4E4E4" strokeWidth="0.7"/>
        <circle cx="269.437" cy="1633.38" r="11.4911" transform="rotate(-114.852 269.437 1633.38)" stroke="#E4E4E4" strokeWidth="0.7"/>
        <path d="M272.732 1632.66L229.469 1628.77L254.476 1593.25L272.732 1632.66Z" stroke="#E4E4E4" strokeWidth="0.7"/>
        <path d="M147.495 1586.95L153.35 1567.6L134 1561.75" stroke="#E4E4E4" strokeWidth="0.7"/>
    </g>
</svg>