<svg width="1920" height="1892" viewBox="0 0 1920 1892" fill="none" xmlns="http://www.w3.org/2000/svg">
<g opacity="0.3">
<path d="M249.13 138.456L256.088 116.701C261.753 98.9857 280.707 89.2176 298.423 94.8832V94.8832C327.763 104.267 359.156 88.0883 368.539 58.7474L371.045 50.9124M249.13 138.456L254.776 135.546M249.13 138.456L246.22 132.81M371.045 50.9124L365.87 53.5798M371.045 50.9124L373.712 56.0881" stroke="#E4E4E4"/>
<circle opacity="0.4" cx="40.2395" cy="584.718" r="13.5" transform="rotate(-33.1496 40.2395 584.718)" fill="white" stroke="#E4E4E4"/>
<path d="M51.9609 577.062L93.8232 549.721" stroke="#E4E4E4"/>
<path d="M-13.3442 619.715L28.5181 592.374" stroke="#E4E4E4"/>
<rect x="1906.8" y="118.428" width="21.1014" height="21.1014" transform="rotate(-65.4769 1906.8 118.428)" stroke="#E4E4E4"/>
<rect x="1841.18" y="155.764" width="141.809" height="94.2059" transform="rotate(-65.4769 1841.18 155.764)" stroke="#E4E4E4"/>
<rect x="1841.18" y="155.764" width="141.809" height="19.4013" transform="rotate(-65.4769 1841.18 155.764)" stroke="#E4E4E4"/>
<path d="M1854.04 150.965L1860.39 137.044" stroke="#E4E4E4"/>
<rect x="447.93" y="1183.62" width="72.1005" height="69.7769" transform="rotate(-167.873 447.93 1183.62)" stroke="#E4E4E4"/>
<rect x="452.277" y="1197.96" width="41.3472" height="40.0011" transform="rotate(-167.873 452.277 1197.96)" stroke="#E4E4E4"/>
<circle cx="5.08895" cy="1012.09" r="29.8481" transform="rotate(-110.611 5.08895 1012.09)" stroke="#E4E4E4"/>
<circle cx="17.7143" cy="1045.66" r="29.8481" transform="rotate(-110.611 17.7143 1045.66)" stroke="#E4E4E4"/>
<path d="M118.623 291.267L80.8637 260.045L126.782 242.956L118.623 291.267Z" stroke="#E4E4E4"/>
<circle cx="1536.79" cy="101.499" r="13.5" transform="rotate(136.048 1536.79 101.499)" stroke="#E4E4E4"/>
<path d="M1526.71 111.216L1490.72 145.919" stroke="#E4E4E4"/>
<path d="M1582.87 57.0789L1546.87 91.7819" stroke="#E4E4E4"/>
<rect x="1934.94" y="1039.54" width="77.3516" height="82.4066" transform="rotate(152.124 1934.94 1039.54)" stroke="#E4E4E4"/>
<rect x="1990.97" y="1067.09" width="114" height="121.582" transform="rotate(152.124 1990.97 1067.09)" stroke="#E4E4E4"/>
<path d="M59.0002 33L75.0002 17L59.0002 1" stroke="#E4E4E4"/>
<circle opacity="0.4" cx="1711.02" cy="792.255" r="8" transform="rotate(135 1711.02 792.255)" fill="white" stroke="#E4E4E4"/>
<circle cx="1744.26" cy="759.021" r="8" transform="rotate(135 1744.26 759.021)" stroke="#E4E4E4"/>
<path d="M1716.68 785.891L1737.89 764.678" stroke="#E4E4E4"/>
<circle cx="1788.43" cy="498.082" r="10.4243" transform="rotate(137.891 1788.43 498.082)" stroke="#E4E4E4"/>
<path d="M1792.22 494.657C1788.35 490.382 1788.65 483.83 1792.86 480.022C1797.08 476.214 1803.63 476.579 1807.49 480.854C1811.35 485.129 1811.06 491.681 1806.84 495.489C1802.63 499.297 1796.08 498.933 1792.22 494.657Z" stroke="#E4E4E4"/>
<circle cx="1811.28" cy="477.43" r="10.4243" transform="rotate(137.891 1811.28 477.43)" stroke="#E4E4E4"/>
<path d="M1598 366L1598 391M1598 366L1573 366M1598 366L1598 341M1598 366L1623 366" stroke="#E4E4E4"/>
<path d="M204 821L204 846M204 821L179 821M204 821L204 796M204 821L229 821" stroke="#E4E4E4"/>
<circle cx="1871.88" cy="1827.88" r="13.4734" stroke="#E4E4E4"/>
<path d="M1885.85 1827.88H1935.76" stroke="#E4E4E4"/>
<path d="M1808 1827.88L1857.9 1827.88" stroke="#E4E4E4"/>
<circle cx="1871.88" cy="1827.88" r="13.4734" transform="rotate(90 1871.88 1827.88)" stroke="#E4E4E4"/>
<path d="M1871.88 1841.85L1871.88 1891.76" stroke="#E4E4E4"/>
<path d="M1871.88 1764L1871.88 1813.9" stroke="#E4E4E4"/>
<circle cx="1788.5" cy="1238.5" r="15" stroke="#E4E4E4"/>
<path d="M1437.19 1183.79L1374.23 1138.19L1445.2 1106.47L1437.19 1183.79Z" stroke="#E4E4E4"/>
<circle cx="1416.7" cy="1111.09" r="20.6965" transform="rotate(34.8753 1416.7 1111.09)" stroke="#E4E4E4"/>
<path d="M106.164 1881.48L82.6942 1872.83C59.3793 1864.24 47.4409 1838.38 56.029 1815.06V1815.06C70.253 1776.45 50.48 1733.61 11.8647 1719.39L-18.6211 1708.16M106.164 1881.48L102.608 1873.77M106.164 1881.48L98.4602 1885.03M-18.6211 1708.16L-15.3611 1715.22M-18.6211 1708.16L-11.559 1704.9" stroke="#E4E4E4"/>
</g>
</svg>
