<svg width="593" height="580" viewBox="0 0 593 580" fill="none" xmlns="http://www.w3.org/2000/svg">
<g opacity="0.2">
<circle cx="550.222" cy="528.222" r="6.25462" transform="rotate(-30.2106 550.222 528.222)" stroke="#E4E4E4"/>
<path d="M556.059 524.823L576.906 512.684" stroke="#E4E4E4"/>
<path d="M523.537 543.759L544.384 531.62" stroke="#E4E4E4"/>
<circle cx="550.222" cy="528.222" r="6.25462" transform="rotate(59.7894 550.222 528.222)" stroke="#E4E4E4"/>
<path d="M553.621 534.059L565.76 554.907" stroke="#E4E4E4"/>
<path d="M534.685 501.537L546.823 522.385" stroke="#E4E4E4"/>
<path d="M554.5 106.5L554.5 120M554.5 106.5L541 106.5M554.5 106.5L554.5 93.0001M554.5 106.5L568 106.5" stroke="#E4E4E4" strokeWidth="0.7"/>
<circle cx="423.899" cy="14.8988" r="10.9409" transform="rotate(-156.084 423.899 14.8988)" stroke="#E4E4E4" strokeWidth="0.7"/>
<path d="M428.571 16.9712C431.022 11.4438 437.432 8.93237 442.884 11.3499C448.335 13.7675 450.777 20.2044 448.325 25.7318C445.874 31.2592 439.464 33.7706 434.013 31.353C428.561 28.9355 426.12 22.4985 428.571 16.9712Z" stroke="#E4E4E4" strokeWidth="0.7"/>
<circle cx="452.998" cy="27.8039" r="10.9409" transform="rotate(-156.084 452.998 27.8039)" stroke="#E4E4E4" strokeWidth="0.7"/>
<rect x="27.9191" y="52.1307" width="30.7806" height="41.8674" transform="rotate(-90 27.9191 52.1307)" stroke="#E4E4E4" strokeWidth="0.7"/>
<rect x="0.35" y="73.6501" width="45.5054" height="61.8612" transform="rotate(-90 0.35 73.6501)" stroke="#E4E4E4" strokeWidth="0.7"/>
<path d="M45.6724 439.575L35.9555 422.619L19.0002 432.336" stroke="#E4E4E4" strokeWidth="0.7"/>
<path d="M101.821 563.319L104.936 548.971C107.473 537.288 119.001 529.873 130.684 532.41V532.41C150.034 536.611 169.127 524.331 173.328 504.98L174.45 499.813M101.821 563.319L105.255 561.11M101.821 563.319L99.6123 559.885M174.45 499.813L171.302 501.838M174.45 499.813L176.475 502.961" stroke="#E4E4E4" strokeWidth="0.7"/>
<path d="M89.7535 288.6C86.6044 291.836 81.4656 291.933 78.2758 288.829C75.0859 285.725 75.0426 280.586 78.1916 277.35C81.3406 274.113 86.4794 274.016 89.6693 277.12C92.8591 280.224 92.9025 285.364 89.7535 288.6Z" stroke="#E4E4E4" strokeWidth="0.7"/>
<circle cx="372.842" cy="567.442" r="9.81068" transform="rotate(-176.219 372.842 567.442)" stroke="#E4E4E4" strokeWidth="0.7"/>
<path d="M383.748 546.068L363.118 576.905L346.727 543.621L383.748 546.068Z" stroke="#E4E4E4" strokeWidth="0.7"/>
</g>
</svg>
