<svg width="1981" height="804" viewBox="0 0 1981 804" fill="none" xmlns="http://www.w3.org/2000/svg">
<g opacity="0.3">
<path d="M265.008 180.962L274.303 151.899C281.871 128.234 307.191 115.185 330.857 122.753V122.753C370.053 135.289 411.99 113.676 424.525 74.4803L427.872 64.0136M265.008 180.962L272.551 177.075M265.008 180.962L261.121 173.42M427.872 64.0136L420.958 67.5769M427.872 64.0136L431.436 70.9277" stroke="#E4E4E4"/>
<circle opacity="0.4" cx="37.0293" cy="553.569" r="13.5" transform="rotate(-67.9216 37.0293 553.569)" fill="white" stroke="#E4E4E4"/>
<path d="M42.2917 540.596L61.0855 494.262" stroke="#E4E4E4"/>
<path d="M12.9734 612.876L31.7672 566.542" stroke="#E4E4E4"/>
<rect x="1910.58" y="122.388" width="21.1014" height="21.1014" transform="rotate(166.648 1910.58 122.388)" stroke="#E4E4E4"/>
<rect x="1980.33" y="151.261" width="141.809" height="94.2059" transform="rotate(166.648 1980.33 151.261)" stroke="#E4E4E4"/>
<rect x="1980.33" y="151.261" width="141.809" height="19.4013" transform="rotate(166.648 1980.33 151.261)" stroke="#E4E4E4"/>
<path d="M1968.65 144.063L1953.77 147.597" stroke="#E4E4E4"/>
<path d="M318.467 405.469L365.793 392.788L353.112 440.114L318.467 405.469Z" stroke="#E4E4E4"/>
<circle cx="1479.79" cy="61.4988" r="13.5" transform="rotate(136.048 1479.79 61.4988)" stroke="#E4E4E4"/>
<path d="M1469.71 71.2156L1433.72 105.919" stroke="#E4E4E4"/>
<path d="M1525.87 17.0789L1489.87 51.7819" stroke="#E4E4E4"/>
<rect x="1673.67" y="756.745" width="31.1698" height="33.2453" transform="rotate(-180 1673.67 756.745)" stroke="#E4E4E4"/>
<rect x="1688.72" y="777.5" width="46.217" height="49.3302" transform="rotate(-180 1688.72 777.5)" stroke="#E4E4E4"/>
<path d="M75 33L91 17L75 1" stroke="#E4E4E4"/>
<circle opacity="0.4" cx="884.46" cy="757.696" r="8" transform="rotate(-137.133 884.46 757.696)" fill="white" stroke="#E4E4E4"/>
<circle cx="918.907" cy="789.671" r="8" transform="rotate(-137.133 918.907 789.671)" stroke="#E4E4E4"/>
<path d="M891.03 763.113L913.018 783.522" stroke="#E4E4E4"/>
<path d="M1541 388L1541 413M1541 388L1516 388M1541 388L1541 363M1541 388L1566 388" stroke="#E4E4E4"/>
<rect x="804.283" y="34.1033" width="28.0685" height="28.0685" transform="rotate(139.634 804.283 34.1033)" stroke="#E4E4E4"/>
<circle cx="1931.04" cy="536.579" r="22.9713" transform="rotate(-173.873 1931.04 536.579)" stroke="#E4E4E4"/>
<path d="M1921.31 545.563C1933.39 541.676 1946.29 548.204 1950.13 560.127C1953.96 572.05 1947.29 584.873 1935.21 588.76C1923.12 592.647 1910.23 586.119 1906.39 574.196C1902.55 562.273 1909.23 549.45 1921.31 545.563Z" stroke="#E4E4E4"/>
<circle cx="1925.69" cy="597.634" r="22.9713" transform="rotate(-107.833 1925.69 597.634)" stroke="#E4E4E4"/>
</g>
</svg>
