<svg width="1367" height="644" viewBox="0 0 1367 644" fill="none" xmlns="http://www.w3.org/2000/svg">
<path opacity="0.2" d="M196.621 149.727L204.428 125.316C210.785 105.439 232.053 94.4784 251.93 100.836V100.836C284.853 111.365 320.077 93.2113 330.606 60.289L333.418 51.4976M196.621 149.727L202.957 146.462M196.621 149.727L193.356 143.392M333.418 51.4976L327.61 54.4906M333.418 51.4976L336.41 57.305" stroke="#E4E4E4"/>
<path opacity="0.2" d="M37 33.7907L59.5124 31.5124L57.2342 9.00001" stroke="#E4E4E4"/>
<g opacity="0.2">
<circle opacity="0.4" cx="28.4285" cy="478.571" r="10.248" transform="rotate(-67.9216 28.4285 478.571)" fill="white" stroke="#E4E4E4"/>
<path d="M32.4678 468.611L46.896 433.04" stroke="#E4E4E4"/>
<path d="M9.95996 524.102L24.3882 488.531" stroke="#E4E4E4"/>
</g>
<g opacity="0.2">
<circle opacity="0.4" cx="492.46" cy="597.697" r="8" transform="rotate(-137.133 492.46 597.697)" fill="white" stroke="#E4E4E4"/>
<circle cx="526.908" cy="629.671" r="8" transform="rotate(-137.133 526.908 629.671)" stroke="#E4E4E4"/>
<path d="M499.031 603.113L521.019 623.522" stroke="#E4E4E4"/>
</g>
<g opacity="0.2">
<rect x="1000.67" y="581.745" width="31.1698" height="33.2453" transform="rotate(-180 1000.67 581.745)" stroke="#E4E4E4"/>
<rect x="1015.72" y="602.5" width="46.217" height="49.3302" transform="rotate(-180 1015.72 602.5)" stroke="#E4E4E4"/>
</g>
<g opacity="0.2">
<rect x="1296.58" y="95.3879" width="21.1014" height="21.1014" transform="rotate(166.648 1296.58 95.3879)" stroke="#E4E4E4"/>
<rect x="1366.33" y="124.261" width="141.809" height="94.2059" transform="rotate(166.648 1366.33 124.261)" stroke="#E4E4E4"/>
<rect x="1366.33" y="124.261" width="141.809" height="19.4013" transform="rotate(166.648 1366.33 124.261)" stroke="#E4E4E4"/>
<path d="M1354.65 117.063L1339.77 120.597" stroke="#E4E4E4"/>
</g>
<g opacity="0.2">
<circle cx="961.449" cy="20.9963" r="9.22383" transform="rotate(164.86 961.449 20.9963)" stroke="#E4E4E4"/>
<path d="M952.062 23.5361L918.54 32.6064" stroke="#E4E4E4"/>
<path d="M1004.36 9.38647L970.835 18.4567" stroke="#E4E4E4"/>
</g>
<g opacity="0.2">
<circle cx="1304.04" cy="392.579" r="22.9713" transform="rotate(-173.873 1304.04 392.579)" stroke="#E4E4E4"/>
<path d="M1294.31 401.563C1306.39 397.676 1319.29 404.204 1323.13 416.127C1326.96 428.05 1320.29 440.873 1308.21 444.76C1296.12 448.647 1283.23 442.12 1279.39 430.197C1275.56 418.273 1282.23 405.45 1294.31 401.563Z" stroke="#E4E4E4"/>
<circle cx="1298.69" cy="453.634" r="22.9713" transform="rotate(-107.833 1298.69 453.634)" stroke="#E4E4E4"/>
</g>
</svg>
