<svg width="1043" height="673" viewBox="0 0 1043 673" fill="none" xmlns="http://www.w3.org/2000/svg">
<g opacity="0.9">
<g opacity="0.3">
<circle cx="751.388" cy="29.6831" r="7.12525" transform="rotate(136.048 751.388 29.6831)" stroke="#E4E4E4"/>
<path d="M745.898 34.9756L726.292 53.877" stroke="#E4E4E4"/>
<path d="M776.482 5.48975L756.877 24.3911" stroke="#E4E4E4"/>
</g>
<g opacity="0.3">
<rect x="954.374" y="137.373" width="12.0836" height="12.0836" transform="rotate(166.648 954.374 137.373)" stroke="#E4E4E4"/>
<rect x="995.669" y="154.466" width="83.5401" height="55.3601" transform="rotate(166.648 995.669 154.466)" stroke="#E4E4E4"/>
<rect x="995.669" y="154.466" width="83.5401" height="11.0772" transform="rotate(166.648 995.669 154.466)" stroke="#E4E4E4"/>
<path d="M989.001 150.356L980.188 152.448" stroke="#E4E4E4"/>
</g>
<path opacity="0.3" d="M1 55.986L23.4892 53.4892L20.9925 31" stroke="#E4E4E4"/>
<path opacity="0.3" d="M112.516 143.491L118.236 125.607C122.893 111.044 138.475 103.014 153.037 107.671V107.671C177.157 115.385 202.964 102.086 210.677 77.9659L212.737 71.525M112.516 143.491L117.158 141.099M112.516 143.491L110.124 138.849M212.737 71.525L208.483 73.7178M212.737 71.525L214.93 75.7797" stroke="#E4E4E4"/>
<g opacity="0.3">
<rect x="696.819" y="632.213" width="40.817" height="43.5148" transform="rotate(160.127 696.819 632.213)" stroke="#E4E4E4"/>
<rect x="724.385" y="650.936" width="60.3765" height="64.4233" transform="rotate(160.127 724.385 650.936)" stroke="#E4E4E4"/>
</g>
<g opacity="0.3">
<circle opacity="0.4" cx="203.392" cy="620.829" r="10.1901" transform="rotate(-18.4717 203.392 620.829)" fill="white" stroke="#E4E4E4"/>
<path d="M213.532 617.442L249.744 605.346" stroke="#E4E4E4"/>
<path d="M157.041 636.313L193.253 624.216" stroke="#E4E4E4"/>
</g>
<g opacity="0.3">
<circle cx="1020.12" cy="428.807" r="18.6159" transform="rotate(-79.6406 1020.12 428.807)" stroke="#E4E4E4"/>
<path d="M1018.58 437.229C1028.7 439.078 1035.41 448.679 1033.59 458.662C1031.77 468.645 1022.09 475.25 1011.97 473.4C1001.85 471.551 995.14 461.95 996.965 451.967C998.79 441.984 1008.46 435.379 1018.58 437.229Z" stroke="#E4E4E4"/>
<circle cx="1010.43" cy="481.822" r="18.6159" transform="rotate(-79.6406 1010.43 481.822)" stroke="#E4E4E4"/>
</g>
</g>
</svg>
