<svg width="716" height="626" viewBox="0 0 716 626" fill="none" xmlns="http://www.w3.org/2000/svg">
<g opacity="0.2">
<rect x="360.27" y="22.0906" width="28.0685" height="28.0685" transform="rotate(139.634 360.27 22.0906)" stroke="#E4E4E4"/>
<circle opacity="0.4" cx="51.8011" cy="588.608" r="8" transform="rotate(171.235 51.8011 588.608)" fill="white" stroke="#E4E4E4"/>
<circle cx="98.2528" cy="581.446" r="8" transform="rotate(171.235 98.2528 581.446)" stroke="#E4E4E4"/>
<path d="M60.1257 586.818L89.7754 582.247" stroke="#E4E4E4"/>
<rect x="699.67" y="581.745" width="31.1698" height="33.2453" transform="rotate(-180 699.67 581.745)" stroke="#E4E4E4"/>
<rect x="714.717" y="602.5" width="46.217" height="49.3302" transform="rotate(-180 714.717 602.5)" stroke="#E4E4E4"/>
<circle cx="406.927" cy="565.549" r="18.8262" transform="rotate(-64.2274 406.927 565.549)" stroke="#E4E4E4"/>
<path d="M402.566 555.511C402.237 565.909 393.644 574.064 383.386 573.739C373.128 573.415 365.069 564.732 365.398 554.334C365.727 543.936 374.32 535.781 384.578 536.106C394.836 536.431 402.895 545.113 402.566 555.511Z" stroke="#E4E4E4"/>
<circle cx="361.063" cy="544.497" r="18.8262" transform="rotate(1.8132 361.063 544.497)" stroke="#E4E4E4"/>
<path d="M605.52 17.0667L626.201 19.1463C643.041 20.8398 655.32 35.8644 653.626 52.7048V52.7048C650.822 80.5966 671.159 105.481 699.051 108.286L706.499 109.035M605.52 17.0667L609.177 21.5423M605.52 17.0667L609.995 13.4089M706.499 109.035L703.146 104.932M706.499 109.035L702.396 112.388" stroke="#E4E4E4"/>
<circle opacity="0.4" cx="63.2377" cy="89.9559" r="13.5" transform="rotate(152.516 63.2377 89.9559)" fill="white" stroke="#E4E4E4"/>
<path d="M50.8179 96.417L6.46094 119.492" stroke="#E4E4E4"/>
<path d="M120.015 60.4197L75.6577 83.4948" stroke="#E4E4E4"/>
</g>
</svg>
