<svg width="375" height="499" viewBox="0 0 375 499" fill="none" xmlns="http://www.w3.org/2000/svg">
<g opacity="0.2">
<path d="M60.754 492.6C57.6049 495.836 52.4661 495.933 49.2763 492.829C46.0864 489.725 46.0431 484.586 49.1921 481.349C52.3411 478.113 57.4799 478.016 60.6698 481.12C63.8596 484.224 63.903 489.364 60.754 492.6Z" stroke="#E4E4E4" stroke-width="0.7"/>
<rect x="19.2716" y="35.9614" width="7.67641" height="7.67641" transform="rotate(136.704 19.2716 35.9614)" stroke="#E4E4E4" stroke-width="0.7"/>
<rect x="47.6429" y="32.247" width="53.4245" height="35.383" transform="rotate(136.704 47.6429 32.247)" stroke="#E4E4E4" stroke-width="0.7"/>
<rect x="47.6429" y="32.247" width="53.4245" height="7.03207" transform="rotate(136.704 47.6429 32.247)" stroke="#E4E4E4" stroke-width="0.7"/>
<path d="M42.6727 32.0996L38.4521 36.0764" stroke="#E4E4E4" stroke-width="0.7"/>
<path d="M153.5 9.5L153.5 19M153.5 9.5L144 9.5M153.5 9.5L153.5 1.07683e-06M153.5 9.5L163 9.5" stroke="#E4E4E4" stroke-width="0.7"/>
<circle opacity="0.4" cx="364.963" cy="38.6709" r="4.02066" transform="rotate(40.6636 364.963 38.6709)" fill="white" stroke="#E4E4E4" stroke-width="0.7"/>
<circle cx="346.631" cy="22.9226" r="4.02066" transform="rotate(40.6636 346.631 22.9226)" stroke="#E4E4E4" stroke-width="0.7"/>
<path d="M361.48 36.0181L349.779 25.9663" stroke="#E4E4E4" stroke-width="0.7"/>
<path d="M265.434 55.9912L258.354 43.6371L246 50.717" stroke="#E4E4E4" stroke-width="0.7"/>
<circle cx="311.691" cy="411.145" r="8.94703" transform="rotate(-74.5402 311.691 411.145)" stroke="#E4E4E4" stroke-width="0.7"/>
<path d="M328.809 424.818L305.07 400.695L337.831 392.198L328.809 424.818Z" stroke="#E4E4E4" stroke-width="0.7"/>
<circle cx="-0.437307" cy="270.367" r="10.9409" transform="rotate(-84.2392 -0.437307 270.367)" stroke="#E4E4E4" stroke-width="0.7"/>
<path d="M-0.950519 275.453C5.06547 276.06 9.4492 281.368 8.85062 287.301C8.25204 293.234 2.89637 297.56 -3.11962 296.953C-9.13561 296.346 -13.5193 291.038 -12.9208 285.105C-12.3222 279.171 -6.96651 274.846 -0.950519 275.453Z" stroke="#E4E4E4" stroke-width="0.7"/>
<circle cx="-3.63262" cy="302.039" r="10.9409" transform="rotate(-84.2392 -3.63262 302.039)" stroke="#E4E4E4" stroke-width="0.7"/>
<circle opacity="0.4" cx="370.869" cy="156.268" r="5.47822" transform="rotate(-90 370.869 156.268)" fill="white" stroke="#E4E4E4" stroke-width="0.7"/>
<path d="M370.869 150.44V129.625" stroke="#E4E4E4" stroke-width="0.7"/>
<path d="M370.869 182.912L370.869 162.097" stroke="#E4E4E4" stroke-width="0.7"/>
<path d="M24.6798 412.646L36.9221 409.19C46.8909 406.375 57.254 412.175 60.0688 422.143V422.143C64.7307 438.654 81.8946 448.26 98.4054 443.598L102.814 442.353M24.6798 412.646L27.7668 414.374M24.6798 412.646L26.4074 409.559M102.814 442.353L99.9846 440.769M102.814 442.353L101.231 445.183" stroke="#E4E4E4" stroke-width="0.7"/>
<path d="M212.063 467.514C211.357 463.714 213.818 460.079 217.547 459.386C221.276 458.692 224.88 461.199 225.586 464.999C226.293 468.798 223.832 472.434 220.103 473.127C216.373 473.821 212.77 471.314 212.063 467.514Z" stroke="#E4E4E4" stroke-width="0.7"/>
<path d="M211.719 467.577L186.342 472.297" stroke="#E4E4E4" stroke-width="0.7"/>
<path d="M251.308 460.215L225.93 464.935" stroke="#E4E4E4" stroke-width="0.7"/>
</g>
</svg>
